<svg xmlns="http://www.w3.org/2000/svg" width="177.04mm" height="39.79mm" viewBox="0 0 501.85 112.8"><title>Vitsoe</title><path d="M83.7,2.25h29.85L74.1,110.55H38.25L0,2.25H33.15L57.6,80.7h.3Z"/><path d="M118.48,110.55V2.25h30v108.3Z"/><path d="M187.52,23.25H154.38v-21h97v21h-33.9v87.3h-30Z"/><path d="M313.29,34.05c.15-4.2-1.2-7.35-3.9-9.6S302.94,21,297.84,21c-6.9,0-12.9,4.5-12.9,9.9,0,8,9.6,10.5,17.55,12.6C320.64,48.15,347,50,347,79.2c0,22.8-22.5,33.6-47.55,33.6s-47.4-7.35-47.85-36.75h30c-.15,10.2,7.35,15.75,18.15,15.75,6.9,0,15.75-3.6,15.75-10.8,0-14.7-22.2-11.55-45.75-21.9-11-4.8-16.35-14.7-16.35-26.4C254.64,7.05,277.14,0,299.79,0c22.35,0,45.3,8,43.5,34.05Z"/><path d="M426.54,110.53a74.24,74.24,0,0,1-19,2.27c-35.85,0-56.1-20.7-56.1-56.4S371.72,0,407.57,0a76.63,76.63,0,0,1,18.68,2.2l75.6,0v21H458.42V45.6h39.23v21H458.42v23h43.43v21ZM407.57,21C387.17,21,383,39.9,383,56.85c0,16.05,4.2,34.95,24.6,34.95s24.59-18.9,24.59-34.95C432.16,39.9,428,21,407.57,21Z"/></svg>