<svg xmlns="http://www.w3.org/2000/svg" width="203.36" height="45.21" viewBox="0 0 203.36 45.21"><title>metalshelf-16-65.5</title><path d="M202.6,26.78V4.42a4.28,4.28,0,0,0,.47-2.7s-.22-2.37-1.5-1.09L187.33,8.89a6.06,6.06,0,0,0-1.41,3.8v13.4H17.38l-.45.39V3.59a9.61,9.61,0,0,0,.3-1.85S17.07-.53,15.9.63L1.67,8.89a6,6,0,0,0-1.42,3.8V41H4.07c.67,2,2.08,3.94,5,3.94H177.66c2.75,0,4.16-2,4.89-3.94h3.37l15.71-9.54c.38-.37.45,0,.45,0C203.25,30.28,203.33,27.13,202.6,26.78ZM16,1.56c.35-.35.64-.07.64.63A3.09,3.09,0,0,1,16,4.1c-.35.35-.64.07-.64-.63A3.09,3.09,0,0,1,16,1.56Zm0,26.11c.35-.35.64-.07.64.63A3.09,3.09,0,0,1,16,30.21c-.35.35-.64.07-.64-.63A3.09,3.09,0,0,1,16,27.67Zm185.67,2.54c-.36.35-.64.07-.64-.63a3,3,0,0,1,.64-1.91c.35-.35.64-.07.64.63A3.09,3.09,0,0,1,201.63,30.21Zm0-26.11c-.36.35-.64.07-.64-.63a3,3,0,0,1,.64-1.91c.35-.35.64-.07.64.63A3.09,3.09,0,0,1,201.63,4.1Z" style="fill:#999"/><line x1="186.23" y1="31.41" x2="16.41" y2="31.45" style="fill:#fff"/><path d="M15.49,4.47a.48.48,0,0,0,.18,0,.68.68,0,0,0,.47-.22,3.32,3.32,0,0,0,.71-2.09c0-.53-.15-.88-.43-1a.59.59,0,0,0-.64.19,3.3,3.3,0,0,0-.71,2.09C15.07,4,15.22,4.35,15.49,4.47Zm.65-2.73a.32.32,0,0,1,.09-.08s.12.17.12.53a2.81,2.81,0,0,1-.57,1.73h0l-.1.09a.86.86,0,0,1-.11-.54A2.81,2.81,0,0,1,16.14,1.74Z" style="fill:#4d4d4d"/><path d="M15.49,30.58a.48.48,0,0,0,.18,0,.68.68,0,0,0,.47-.22,3.32,3.32,0,0,0,.71-2.09c0-.53-.15-.88-.43-1a.57.57,0,0,0-.64.19,3.3,3.3,0,0,0-.71,2.09C15.07,30.11,15.22,30.46,15.49,30.58Zm.65-2.74a.39.39,0,0,1,.09-.07s.12.16.12.53A2.81,2.81,0,0,1,15.78,30h0c-.06.06-.09.08-.1.08s-.11-.17-.11-.53A2.87,2.87,0,0,1,16.14,27.84Z" style="fill:#4d4d4d"/><path d="M201.16,4.47a.48.48,0,0,0,.18,0,.68.68,0,0,0,.47-.22,3.37,3.37,0,0,0,.7-2.09c0-.53-.14-.88-.42-1a.58.58,0,0,0-.64.19,3.3,3.3,0,0,0-.71,2.09C200.74,4,200.89,4.35,201.16,4.47Zm.64-2.73a.44.44,0,0,1,.1-.08s.11.17.11.53a2.81,2.81,0,0,1-.56,1.73h0l-.1.09a.86.86,0,0,1-.11-.54A2.87,2.87,0,0,1,201.8,1.74Z" style="fill:#4d4d4d"/><path d="M202.09,27.3a.56.56,0,0,0-.64.19,3.3,3.3,0,0,0-.71,2.09c0,.53.15.88.42,1a.48.48,0,0,0,.18,0,.68.68,0,0,0,.47-.22,3.37,3.37,0,0,0,.7-2.09C202.51,27.77,202.36,27.42,202.09,27.3ZM201.45,30h0a.44.44,0,0,1-.1.08s-.11-.17-.11-.53a2.93,2.93,0,0,1,.56-1.74l.1-.07s.11.16.11.53A2.81,2.81,0,0,1,201.45,30Z" style="fill:#4d4d4d"/><path d="M202.85,26.65V4.5a4.61,4.61,0,0,0,.47-2.81c0-.23-.16-1.41-.83-1.65-.33-.12-.69,0-1.07.39L187.21,8.68a.1.1,0,0,0-.05,0,6.22,6.22,0,0,0-1.49,4V25.84H17.38a.27.27,0,0,0-.17.06l0,0V3.62a9.18,9.18,0,0,0,.3-1.89c0-.24-.13-1.4-.75-1.64a.94.94,0,0,0-1,.34L1.54,8.68a.1.1,0,0,0-.05,0,6.22,6.22,0,0,0-1.49,4V41a.43.43,0,0,0,0,0s0,0,0,0,0,0,0,0l.05.07,0,0h0l.12,0H3.86A6.7,6.7,0,0,0,5.3,43.68a5,5,0,0,0,3.79,1.53h169c2.81,0,4.28-2,5.06-3.94h2.78a.24.24,0,0,0,.12,0h0l15.71-9.54,0,0,.08-.06a.25.25,0,0,0,.13.09.24.24,0,0,0,.24-.07,5.31,5.31,0,0,0,1-4A1.55,1.55,0,0,0,202.85,26.65ZM.5,12.69a5.86,5.86,0,0,1,1.32-3.6L16,.85l0,0c.2-.2.36-.29.47-.25s.4.75.43,1.17a9.11,9.11,0,0,1-.29,1.79.15.15,0,0,0,0,.07V26.78a.2.2,0,0,0,0,.13c.21.34.54,3-.33,4.17h0a.6.6,0,0,0-.57.22L6.66,36.84H3.43a.25.25,0,0,0-.25.24,12.61,12.61,0,0,0,.11,1.8L.5,40.58Zm.64,28.08,2.23-1.35a12.47,12.47,0,0,0,.32,1.35Zm181.66,0h-.17c-.06.17-.12.34-.19.5h.16c-.74,1.78-2.07,3.44-4.52,3.44H9.09a4.59,4.59,0,0,1-3.43-1.37c-1.8-1.86-2-5.1-2-6H183.49A13.67,13.67,0,0,1,182.8,40.77Zm2.87,0h-2.36a14.21,14.21,0,0,0,.69-3.68.29.29,0,0,0-.07-.18.24.24,0,0,0-.18-.07H7.63l8.46-5.14s0,0,0,0l.08-.06h0l0,0a.18.18,0,0,0,.07.05h.07l169.26,0Zm0-9.61L16.9,31.2a6.36,6.36,0,0,0,.28-4.48v-.13l.29-.25h168.2Zm16.4-.08h0a.6.6,0,0,0-.57.22l-15.3,9.29V12.69a5.86,5.86,0,0,1,1.32-3.6L201.7.85l.05,0c.14-.14.4-.36.57-.3s.46.79.5,1.24a4,4,0,0,1-.42,2.51.3.3,0,0,0-.05.16V26.78a.25.25,0,0,0,.14.23c.08,0,.21.23.28.65A5.13,5.13,0,0,1,202.07,31.08Z" style="fill:#4d4d4d"/></svg>