<svg xmlns="http://www.w3.org/2000/svg" width="335.49" height="275.93" viewBox="0 0 335.49 275.93"><title>table-80-90</title><path d="M79.07.27h0s-2-.34-2.18,2.11c-.1,1.32-.79,17.93-2.18,19.32-.78.78-21.43,12.42-21.43,12.42v5.54l1-.59v.59L79.92,24S80,4.17,80,1.42C80,.65,79.58.24,79.07.27Zm-.26,3.31c-.35.35-.64.07-.64-.64A3.16,3.16,0,0,1,78.81,1c.35-.35.64-.07.64.64A3.18,3.18,0,0,1,78.81,3.58Z" style="fill:#fff"/><path d="M79.28.64a.58.58,0,0,0-.65.19,3.4,3.4,0,0,0-.71,2.11c0,.53.15.89.42,1a.48.48,0,0,0,.18,0A.68.68,0,0,0,79,3.76h0a3.4,3.4,0,0,0,.71-2.11C79.7,1.12,79.55.76,79.28.64ZM78.63,3.4l-.09.08s-.12-.17-.12-.54A2.9,2.9,0,0,1,79,1.19l.09-.08s.12.17.12.54A2.9,2.9,0,0,1,78.63,3.4Z" style="fill:#666675"/><path d="M79.18,0h-.07a2.2,2.2,0,0,0-1.6.41,2.56,2.56,0,0,0-.87,1.93c0,.17,0,.59-.07,1.2-.74,13.91-1.52,17.44-2,18S61.44,29.23,53.15,33.9a.27.27,0,0,0-.12.22v.75l.5-.29v-.31l.53-.3a.2.2,0,0,0-.06.15v.19L75.91,21.66c.91-2,1.46-9.72,1.87-17.18.06-1.07.1-1.85.13-2.09C78,1.15,78.61.51,79.13.51h0c.37,0,.63.39.63.91,0,2-.06,12.61-.1,18.55h.5c0-5.94.1-16.6.1-18.55A1.26,1.26,0,0,0,79.18,0ZM77.41,2.34c0,.25-.07,1-.13,2.11-.25,4.43-.9,16.2-2,17.26-.43.43-7.88,4.69-15,8.73,6.13-3.49,14.09-8.06,14.6-8.56.87-.87,1.56-6.68,2.18-18.29,0-.61.05-1,.06-1.19A2.14,2.14,0,0,1,77.81.83l.11-.06A3.41,3.41,0,0,0,77.41,2.34Z" style="fill:#666675"/><path d="M149.29,264.59c-6.73,0-12.19,2.33-12.19,5.19a1.64,1.64,0,0,1,0,.72c0,2.86,5.46,5.18,12.19,5.18s12.18-2.32,12.18-5.18a1.64,1.64,0,0,1,0-.72C161.47,266.92,156,264.59,149.29,264.59Z" style="fill:#e6e6eb"/><path d="M155.42,265v.52c3.47.87,5.8,2.44,5.8,4.23,0,2.72-5.35,4.94-11.93,4.94s-11.94-2.22-11.94-4.94c0-1.78,2.3-3.34,5.73-4.21v-.52c-3.75.93-6.23,2.68-6.23,4.73a1.64,1.64,0,0,1,0,.72c0,3.05,5.46,5.43,12.44,5.43s12.43-2.38,12.43-5.43c0-.11,0-.22,0-.33a2.58,2.58,0,0,0,0-.39C161.72,267.71,159.21,266,155.42,265Zm-6.13,10.4c-5.21,0-9.63-1.39-11.26-3.31,2,1.84,6.21,3.1,11.26,3.1s9.3-1.26,11.26-3.11C158.93,274,154.5,275.43,149.29,275.43Z" style="fill:#666675"/><path d="M156.39,269c0,1.56-3.25,2.87-7.1,2.87s-7.09-1.31-7.09-2.87a1.8,1.8,0,0,1,.88-1.37v-.59a2.46,2.46,0,0,0-1.38,2c0,1.89,3.33,3.37,7.59,3.37s7.6-1.48,7.6-3.37a2.53,2.53,0,0,0-1.47-2v.59A1.87,1.87,0,0,1,156.39,269Z" style="fill:#666675"/><path d="M149.29,270.51c2.31,0,4.18-.69,4.71-1.66a6.87,6.87,0,0,1-1.4.53,7.91,7.91,0,0,1-3.31.63,8.22,8.22,0,0,1-3.2-.57,7.86,7.86,0,0,1-1.46-.52C145.22,269.85,147,270.51,149.29,270.51Z" style="fill:#666675"/><path d="M155.42,70.88v196.8s-1.11,2.1-6.17,2.1-6.17-2.1-6.17-2.1V70.87Z" style="fill:#e6e6eb"/><path d="M142.83,71.12V267.68a.27.27,0,0,0,0,.12c0,.09,1.24,2.23,6.39,2.23s6.34-2.14,6.39-2.23a.27.27,0,0,0,0-.12V71.12Zm12.34,196.49c-.21.3-1.53,1.92-5.92,1.92s-5.72-1.63-5.92-1.92V71.12h11.84Z" style="fill:#666675"/><polygon points="151.01 70.87 254.41 70.87 333.07 25.51 333.07 19.97 78.84 19.97 0.25 65.33 0.25 70.87 138.67 70.87 151.01 70.87" style="fill:#999"/><path d="M53.53,34.58v-.21h.35l.58-.33a.23.23,0,0,0-.21-.17h-1a.25.25,0,0,0-.25.25v.75Z" style="fill:#666675"/><rect x="308.48" y="34.16" width="0.97" height="5.54" style="fill:#e6e6eb"/><path d="M334.27.31h0s-2-.33-2.18,2.12c-.1,1.32-2.32,18.85-3.71,20.24-.78.78-19.9,11.5-19.9,11.5V39.7l1-.59v.59l25.67-15.44s.12-20,.12-22.8C335.24.69,334.78.28,334.27.31ZM334,3.62c-.35.35-.64.06-.64-.64A3.16,3.16,0,0,1,334,1.05c.36-.35.65-.07.65.64A3.12,3.12,0,0,1,334,3.62Z" style="fill:#e6e6eb"/><path d="M151.26,71.12H254.41a.2.2,0,0,0,.13,0l54.19-31.26v-.3l-.25.18v-.3l-53.82,31v-5l53.82-31v-.28s19.12-10.72,19.9-11.5a1.46,1.46,0,0,0,.26-.43l-74.3,42.85H1.18L78.9,20.22H329.27l.12-.5H78.84a.28.28,0,0,0-.13,0L.12,65.11l0,0a.1.1,0,0,0,0,0,.18.18,0,0,0,0,.1.05.05,0,0,0,0,0v5.54a.25.25,0,0,0,.25.25h151Zm102.9-.5H.5v-5H254.16Z" style="fill:#4d4d4d"/><path d="M334.39.05h-.08a2.2,2.2,0,0,0-1.6.41,2.59,2.59,0,0,0-.87,1.93c-.14,1.93-2.39,18.83-3.63,20.08-.56.55-12.18,7.16-19.85,11.46l0,0,0,0a.21.21,0,0,0-.07.15V39.7h0a.26.26,0,0,0,.07.16l0,0,0,0a.27.27,0,0,0,.12,0h1a.2.2,0,0,0,.13,0l25.67-15.43a.25.25,0,0,0,.12-.22c0-.2.12-20.08.12-22.8A1.27,1.27,0,0,0,334.39.05ZM309.2,39.46h-.47V34.41h.47Zm23.14-37A2.06,2.06,0,0,1,333,.87a.39.39,0,0,1,.14-.08,3.3,3.3,0,0,0-.54,1.59c-.23,2.13-2.55,19-3.81,20.26l-.23.17C330.1,21.16,332.28,3.29,332.34,2.43Zm2.54,21.69L309.7,39.26V34.31c2.44-1.38,18.69-10.55,19.46-11.32,1.52-1.52,3.93-20.37,3.95-20.56.14-1.27.71-1.91,1.25-1.88.38,0,.63.39.63.91C335,4.05,334.88,22.32,334.88,24.12Z" style="fill:#666675"/><path d="M334.48.68a.56.56,0,0,0-.64.19A3.38,3.38,0,0,0,333.12,3c0,.53.15.89.43,1a.44.44,0,0,0,.18,0,.64.64,0,0,0,.46-.23h0a3.35,3.35,0,0,0,.72-2.1C334.91,1.15,334.75.8,334.48.68Zm-.64,2.76c-.06.06-.1.07-.1.08s-.12-.17-.12-.54a2.87,2.87,0,0,1,.57-1.75.44.44,0,0,1,.1-.08s.12.17.12.54A2.9,2.9,0,0,1,333.84,3.44Z" style="fill:#666675"/><path d="M317.6,31.18a2.25,2.25,0,0,0-.46,1.38c0,.51.21.71.46.46a2.19,2.19,0,0,0,.46-1.38C318.06,31.13,317.86,30.92,317.6,31.18Z" style="fill:#666675"/><path d="M312.47,34.27a2.19,2.19,0,0,0-.47,1.38c0,.51.21.72.47.46a2.25,2.25,0,0,0,.45-1.38C312.92,34.22,312.72,34,312.47,34.27Z" style="fill:#666675"/><path d="M327.88,25a2.25,2.25,0,0,0-.46,1.38c0,.51.21.71.46.46a2.24,2.24,0,0,0,.46-1.38C328.34,24.94,328.14,24.73,327.88,25Z" style="fill:#666675"/><path d="M322.74,28.08a2.25,2.25,0,0,0-.46,1.38c0,.51.21.72.46.46a2.19,2.19,0,0,0,.46-1.38C323.2,28,323,27.83,322.74,28.08Z" style="fill:#666675"/><path d="M333,21.89a2.3,2.3,0,0,0-.46,1.38c0,.51.21.72.46.46a2.19,2.19,0,0,0,.46-1.38C333.48,21.84,333.28,21.64,333,21.89Z" style="fill:#666675"/></svg>