<svg xmlns="http://www.w3.org/2000/svg" width="305.3" height="298.6" viewBox="0 0 305.3 298.6"><title>table-120-65.5</title><path d="M132.22,287.25c-6.73,0-12.18,2.33-12.18,5.19a1.64,1.64,0,0,1,0,.72c0,2.86,5.45,5.19,12.18,5.19s12.19-2.33,12.19-5.19a1.64,1.64,0,0,1,0-.72C144.41,289.58,139,287.25,132.22,287.25Z" style="fill:#e6e6eb"/><path d="M138.36,287.69v.52c3.47.87,5.8,2.44,5.8,4.23,0,2.72-5.35,4.94-11.94,4.94s-11.93-2.22-11.93-4.94c0-1.78,2.3-3.34,5.73-4.21v-.52c-3.75.93-6.23,2.68-6.23,4.73a1.64,1.64,0,0,1,0,.72c0,3,5.46,5.44,12.43,5.44s12.44-2.39,12.44-5.44a3.11,3.11,0,0,0,0-.32,2.71,2.71,0,0,0,0-.4C144.66,290.37,142.15,288.61,138.36,287.69Zm-6.14,10.41c-5.2,0-9.63-1.39-11.25-3.32,2,1.85,6.21,3.1,11.25,3.1s9.3-1.26,11.27-3.11C141.87,296.7,137.44,298.1,132.22,298.1Z" style="fill:#666675"/><path d="M139.33,291.7c0,1.56-3.25,2.88-7.1,2.88s-7.1-1.32-7.1-2.88a1.81,1.81,0,0,1,.89-1.37v-.59a2.48,2.48,0,0,0-1.39,2c0,1.89,3.34,3.38,7.6,3.38s7.6-1.49,7.6-3.38a2.55,2.55,0,0,0-1.47-2v.59A1.87,1.87,0,0,1,139.33,291.7Z" style="fill:#666675"/><path d="M132.23,293.18c2.31,0,4.18-.7,4.71-1.67a6.87,6.87,0,0,1-1.4.53,7.93,7.93,0,0,1-3.31.64,8.17,8.17,0,0,1-3.2-.58,8.41,8.41,0,0,1-1.46-.51C128.16,292.51,130,293.18,132.23,293.18Z" style="fill:#666675"/><path d="M138.36,93.78V290.34s-1.11,2.1-6.17,2.1-6.18-2.1-6.18-2.1V93.78Z" style="fill:#e6e6eb"/><path d="M125.77,93.78V290.34a.5.5,0,0,0,0,.12c0,.09,1.24,2.23,6.4,2.23s6.34-2.14,6.39-2.23a.27.27,0,0,0,0-.12V93.78Zm12.34,196.49c-.21.3-1.53,1.92-5.92,1.92s-5.72-1.63-5.92-1.92V93.78h11.84Z" style="fill:#666675"/><path d="M118.33.27h0s-2-.33-2.18,2.12c-.1,1.32-.79,17.93-2.17,19.32-.78.78-21.44,12.42-21.44,12.42v5.54l1-.59v.59L119.19,24s.11-19.8.11-22.55C119.3.65,118.85.24,118.33.27Zm-.25,3.31c-.36.35-.65.06-.65-.64A3.1,3.1,0,0,1,118.08,1c.35-.35.64-.07.64.64A3.18,3.18,0,0,1,118.08,3.58Z" style="fill:#e6e6eb"/><polygon points="129.79 93.53 184.91 93.53 302.83 25.51 302.83 19.97 118.1 19.97 0.25 87.99 0.25 93.53 117.45 93.53 129.79 93.53" style="fill:#999"/><path d="M118.54.64a.56.56,0,0,0-.64.19,3.38,3.38,0,0,0-.72,2.11c0,.53.16.89.43,1a.84.84,0,0,0,.18,0,.65.65,0,0,0,.46-.22h0A3.4,3.4,0,0,0,119,1.65C119,1.12,118.82.76,118.54.64ZM117.9,3.4a.44.44,0,0,1-.1.08s-.12-.17-.12-.54a2.87,2.87,0,0,1,.57-1.75.44.44,0,0,1,.1-.08s.12.17.12.54A2.9,2.9,0,0,1,117.9,3.4Z" style="fill:#666675"/><path d="M118.45,0h-.08a2.18,2.18,0,0,0-1.59.41,2.56,2.56,0,0,0-.88,1.93c0,.17,0,.6-.07,1.22-.74,13.89-1.51,17.42-2,17.94S100.71,29.23,92.42,33.9a.26.26,0,0,0-.13.22v.75l.5-.29v-.31l.53-.3a.25.25,0,0,0-.06.15v.16L115.2,21.62c.89-2.07,1.43-9.73,1.85-17.14.06-1.07.1-1.85.12-2.09.14-1.27.71-1.89,1.25-1.88.38,0,.63.39.63.91,0,1.94-.06,12.57-.09,18.52h.5c0-6,.09-16.57.09-18.52A1.26,1.26,0,0,0,118.45,0Zm-1.77,2.32c0,.25-.07,1-.13,2.12-.25,4.42-.91,16.19-2,17.25-.42.43-7.81,4.66-14.93,8.68,6.11-3.48,14-8,14.5-8.51.87-.87,1.56-6.68,2.18-18.27,0-.62.06-1,.07-1.21a2.1,2.1,0,0,1,.68-1.57l.11-.07A3.46,3.46,0,0,0,116.68,2.34Z" style="fill:#666675"/><rect x="278.29" y="34.12" width="0.97" height="5.54" style="fill:#1d1d1b"/><path d="M130,93.78h54.87a.2.2,0,0,0,.13,0l93.33-53.83-.08-.25v-.28L185.16,93.1v-5L298.9,22.53a5,5,0,0,0,.32-.76l-.77.44h0L184.84,87.74H1.18l117-67.52H299.66l.12-.5H118.1a.24.24,0,0,0-.12,0L.12,87.77l0,0,0,0A.18.18,0,0,0,0,88s0,0,0,0v5.54a.25.25,0,0,0,.25.25H130Zm54.62-5.54v5H.5v-5Z" style="fill:#4d4d4d"/><path d="M304.08.27h0s-2-.33-2.18,2.12c-.1,1.32-2.32,18.85-3.7,20.24-.78.78-19.91,11.5-19.91,11.5v5.54l1-.59v.59l25.68-15.44s.11-20,.11-22.8C305.05.65,304.6.24,304.08.27Zm-.25,3.31c-.36.35-.64.06-.64-.64A3.09,3.09,0,0,1,303.83,1c.35-.35.64-.07.64.64A3.18,3.18,0,0,1,303.83,3.58Z" style="fill:#e6e6eb"/><path d="M304.2,0h-.08a2.18,2.18,0,0,0-1.59.41,2.56,2.56,0,0,0-.88,1.93c-.14,1.94-2.39,18.84-3.63,20.08-.56.55-12.17,7.16-19.85,11.46l0,0,0,0a.21.21,0,0,0-.07.15v5.54a.26.26,0,0,0,.07.16l0,0,0,0a.27.27,0,0,0,.12,0h1a.2.2,0,0,0,.13,0l25.68-15.43a.27.27,0,0,0,.12-.22c0-.2.11-20.08.11-22.8A1.26,1.26,0,0,0,304.2,0ZM279,38.93l-.47.29V34.37H279ZM302.15,2.4a2.14,2.14,0,0,1,.68-1.57L303,.76a3.41,3.41,0,0,0-.52,1.58c-.23,2.13-2.55,19-3.81,20.26l-.23.17C299.9,21.13,302.09,3.25,302.15,2.4Zm2.54,21.68L279.51,39.22V34.27C282,32.89,298.2,23.72,299,23c1.52-1.52,3.94-20.37,4-20.56.13-1.27.71-1.89,1.24-1.88.38,0,.63.39.63.91C304.8,4,304.7,22.29,304.69,24.08Z" style="fill:#666675"/><path d="M304.29.64a.56.56,0,0,0-.64.19,3.38,3.38,0,0,0-.71,2.11c0,.53.15.89.42,1a.84.84,0,0,0,.18,0,.65.65,0,0,0,.46-.22h0a3.4,3.4,0,0,0,.72-2.11C304.72,1.12,304.57.76,304.29.64Zm-.64,2.76a.44.44,0,0,1-.1.08s-.11-.17-.11-.54A2.94,2.94,0,0,1,304,1.19a.44.44,0,0,1,.1-.08s.12.17.12.54A2.9,2.9,0,0,1,303.65,3.4Z" style="fill:#666675"/><path d="M287.42,31.14a2.19,2.19,0,0,0-.47,1.38c0,.51.21.71.47.46a2.25,2.25,0,0,0,.46-1.38C287.88,31.09,287.67,30.88,287.42,31.14Z" style="fill:#666675"/><path d="M282.28,34.23a2.19,2.19,0,0,0-.47,1.38c0,.51.21.72.47.47a2.31,2.31,0,0,0,.46-1.39C282.74,34.18,282.53,34,282.28,34.23Z" style="fill:#666675"/><path d="M297.69,25a2.25,2.25,0,0,0-.46,1.38c0,.51.21.71.46.46a2.24,2.24,0,0,0,.47-1.38C298.16,24.9,298,24.69,297.69,25Z" style="fill:#666675"/><path d="M292.55,28a2.26,2.26,0,0,0-.46,1.39c0,.5.21.71.46.45A2.19,2.19,0,0,0,293,28.5C293,28,292.81,27.79,292.55,28Z" style="fill:#666675"/><path d="M302.83,21.85a2.31,2.31,0,0,0-.46,1.39c0,.5.21.71.46.45a2.19,2.19,0,0,0,.46-1.38C303.29,21.81,303.09,21.6,302.83,21.85Z" style="fill:#666675"/></svg>