<svg xmlns="http://www.w3.org/2000/svg" width="224.32" height="132.87" viewBox="0 0 224.32 132.87"><title>cabinet_2d-36-65.5</title><path d="M222.7.28v0s-.47,0-1.59,0L37,.25h0l-1.5,0L.25,20.65v112h187l35.24-20.37c.81-.81.87-1.07.87-2.8V4.67C224.59,3.42,224.13-.16,222.7.28ZM222.58,4h0a.35.35,0,0,1-.12.11s-.17-.15-.21-.61a3.21,3.21,0,0,1,.42-2,.35.35,0,0,1,.12-.11s.17.15.22.61A3.25,3.25,0,0,1,222.58,4Z" style="fill:#fec34f;opacity:0.2"/><path d="M222.46,4.65l-.14,0c-.31-.09-.51-.46-.57-1a3.8,3.8,0,0,1,.52-2.38.62.62,0,0,1,.67-.27c.3.09.5.46.57,1A3.74,3.74,0,0,1,223,4.36.68.68,0,0,1,222.46,4.65Zm.33-3.23a.42.42,0,0,0-.13.11,3.27,3.27,0,0,0-.41,2c0,.46.18.6.21.61a.35.35,0,0,0,.12-.11h0A3.25,3.25,0,0,0,223,2C223,1.57,222.83,1.43,222.79,1.42Z" style="fill:#fec34f;opacity:0.2"/><line x1="185.87" y1="20.65" x2="187.24" y2="20.65" style="fill:#fff"/><path d="M223.65.31a1,1,0,0,0-.91-.29l0,0s-.47,0-1.6,0L37.23,0h-.14s-.48,0-1.61,0a.27.27,0,0,0-.12,0L.12,20.44l0,0,0,0a.28.28,0,0,0-.06.16v112a.25.25,0,0,0,.25.25h187a.28.28,0,0,0,.13,0l35.24-20.37,0,0c.88-.88.94-1.22.94-3V4.77A3.93,3.93,0,0,0,223.65.31ZM35.56.53H36L1.56,20.41H1.18ZM1.38,127v5.41H.5V20.91h.88V127Zm184.24,5.41H1.88v-5.16H185.62Zm0-5.66H1.88V26.57H185.62Zm0-100.64H1.88V20.91H185.62Zm.18-5.66H2.56L37.06.5l183.11,0Zm1.19,112h-.87V20.91H187Zm.19-112h-.38L193,16.82,221.18.53l.72,0h0Zm36-15.92a.24.24,0,0,0-.07.18V109.45c0,1.69,0,1.88-.77,2.6l-34.84,20.14V20.8L222.17.94l.05,0c.66-.66,1-.34,1.08-.24A3.42,3.42,0,0,1,223.17,4.49Z" style="fill:#fec34f;opacity:0.4"/><path d="M183.31,27.68H109.65c-1.36,0-1.36,1.47-1.36,1.47v4.5a1.34,1.34,0,0,1-1.45,1.47H80.48A1.31,1.31,0,0,1,79,33.65v-4.5s.43-1.47-1.44-1.47H3.93a1.43,1.43,0,0,0-1.44,1.47V74A1.43,1.43,0,0,0,3.93,75.5H183.31A1.41,1.41,0,0,0,184.76,74V29.15A1.3,1.3,0,0,0,183.31,27.68Z" style="fill:#fec34f;opacity:0.2"/><path d="M183.31,77.73H109.65c-1.36,0-1.36,1.48-1.36,1.48V83.7a1.34,1.34,0,0,1-1.45,1.47H80.48A1.31,1.31,0,0,1,79,83.7V79.21s.43-1.48-1.44-1.48H3.93a1.44,1.44,0,0,0-1.44,1.48v44.92a1.43,1.43,0,0,0,1.44,1.47H183.31a1.41,1.41,0,0,0,1.45-1.47V79.21A1.31,1.31,0,0,0,183.31,77.73Z" style="fill:#fec34f;opacity:0.2"/></svg>