<svg xmlns="http://www.w3.org/2000/svg" width="272.87" height="45.21" viewBox="0 0 272.87 45.21"><title>metalshelf-16-90</title><path d="M272.11,26.78V4.42a4.36,4.36,0,0,0,.47-2.7s-.22-2.37-1.5-1.09L256.84,8.89a6.06,6.06,0,0,0-1.41,3.8v13.4h-238l-.45.39V3.58a9.46,9.46,0,0,0,.3-1.84S17.07-.53,15.9.63L1.67,8.89a6,6,0,0,0-1.42,3.8V41H4.07c.67,2,2.08,3.94,5,3.94H247.17c2.75,0,4.16-2,4.89-3.94h3.37l15.7-9.54c.39-.38.46,0,.46,0C272.76,30.27,272.83,27.13,272.11,26.78ZM16,1.56c.35-.35.64-.07.64.63A3.09,3.09,0,0,1,16,4.1c-.35.35-.64.07-.64-.63A3.09,3.09,0,0,1,16,1.56Zm0,26.11c.35-.35.64-.07.64.63A3.09,3.09,0,0,1,16,30.21c-.35.35-.64.07-.64-.63A3.07,3.07,0,0,1,16,27.67Zm255.18,2.54c-.36.35-.64.07-.64-.63a3,3,0,0,1,.64-1.91c.35-.35.63-.07.63.63A3.09,3.09,0,0,1,271.14,30.21Zm0-26.11c-.36.35-.64.07-.64-.63a3,3,0,0,1,.64-1.91c.35-.35.63-.07.63.63A3.09,3.09,0,0,1,271.14,4.1Z" style="fill:#fec34f;opacity:0.2"/><path d="M15.49,4.47a.48.48,0,0,0,.18,0,.68.68,0,0,0,.47-.22,3.32,3.32,0,0,0,.71-2.09c0-.53-.15-.88-.43-1a.59.59,0,0,0-.64.19,3.3,3.3,0,0,0-.71,2.09C15.07,4,15.22,4.35,15.49,4.47Zm.65-2.73a.32.32,0,0,1,.09-.08s.12.17.12.53a2.81,2.81,0,0,1-.57,1.73h0l-.1.09a.86.86,0,0,1-.11-.54A2.81,2.81,0,0,1,16.14,1.74Z" style="fill:#fec34f;opacity:0.4"/><path d="M15.49,30.58a.48.48,0,0,0,.18,0,.68.68,0,0,0,.47-.22,3.32,3.32,0,0,0,.71-2.09c0-.53-.15-.88-.43-1a.57.57,0,0,0-.64.19,3.3,3.3,0,0,0-.71,2.09C15.07,30.11,15.22,30.46,15.49,30.58Zm.65-2.74a.39.39,0,0,1,.09-.07s.12.16.12.53A2.81,2.81,0,0,1,15.78,30h0c-.06.06-.09.08-.1.08s-.11-.17-.11-.53A2.87,2.87,0,0,1,16.14,27.84Z" style="fill:#fec34f;opacity:0.4"/><path d="M270.67,4.47a.42.42,0,0,0,.18,0,.66.66,0,0,0,.46-.22A3.32,3.32,0,0,0,272,2.19c0-.53-.15-.88-.42-1a.58.58,0,0,0-.64.19,3.3,3.3,0,0,0-.71,2.09C270.25,4,270.4,4.35,270.67,4.47Zm.64-2.73a.44.44,0,0,1,.1-.08s.11.17.11.53A2.81,2.81,0,0,1,271,3.92h0l-.1.09a.86.86,0,0,1-.11-.54A2.81,2.81,0,0,1,271.31,1.74Z" style="fill:#fec34f;opacity:0.4"/><path d="M271.6,27.3a.56.56,0,0,0-.64.19,3.3,3.3,0,0,0-.71,2.09c0,.53.15.88.42,1a.42.42,0,0,0,.18,0,.66.66,0,0,0,.46-.22A3.32,3.32,0,0,0,272,28.3C272,27.77,271.87,27.42,271.6,27.3ZM271,30h0a.44.44,0,0,1-.1.08s-.11-.17-.11-.53a2.86,2.86,0,0,1,.56-1.74l.1-.07s.11.16.11.53A2.81,2.81,0,0,1,271,30Z" style="fill:#fec34f;opacity:0.4"/><path d="M272.36,26.65V4.5a4.77,4.77,0,0,0,.47-2.81c0-.23-.17-1.41-.83-1.65-.33-.12-.69,0-1.07.39L256.72,8.68l-.06,0a6.19,6.19,0,0,0-1.48,4V25.84H17.38a.27.27,0,0,0-.17.06l0,0V3.62a9.18,9.18,0,0,0,.3-1.89c0-.24-.13-1.4-.75-1.64a.94.94,0,0,0-1,.34L1.54,8.68a.1.1,0,0,0-.05,0,6.22,6.22,0,0,0-1.49,4V41a.43.43,0,0,0,0,0s0,0,0,0,0,0,0,0l.05.07,0,0h0l.12,0H3.86A6.7,6.7,0,0,0,5.3,43.68a5,5,0,0,0,3.79,1.53h238.5c2.8,0,4.28-2,5-3.94h2.79l.12,0h0l15.7-9.54a.1.1,0,0,0,.05,0l.07-.06a.38.38,0,0,0,.13.09.25.25,0,0,0,.25-.07,5.36,5.36,0,0,0,1-4A1.61,1.61,0,0,0,272.36,26.65ZM.5,12.69a5.86,5.86,0,0,1,1.32-3.6L16,.85l0,0c.2-.2.36-.29.47-.25s.4.75.43,1.17a9.11,9.11,0,0,1-.29,1.79.15.15,0,0,0,0,.07V26.78a.2.2,0,0,0,0,.13c.21.34.54,3-.33,4.17h0a.6.6,0,0,0-.57.22L6.66,36.84H3.43a.25.25,0,0,0-.25.24,12.61,12.61,0,0,0,.11,1.8L.5,40.58Zm.64,28.08,2.23-1.35a12.47,12.47,0,0,0,.32,1.35Zm251.16,0h-.16c-.06.17-.12.34-.19.5h.16c-.74,1.78-2.08,3.44-4.52,3.44H9.09a4.59,4.59,0,0,1-3.43-1.37c-1.8-1.86-2-5.1-2-6H253A13.22,13.22,0,0,1,252.3,40.77Zm2.88,0h-2.36a14.72,14.72,0,0,0,.69-3.68.25.25,0,0,0-.08-.18.22.22,0,0,0-.17-.07H7.63l8.46-5.14s0,0,0,0l.08-.06h0l0,0a.18.18,0,0,0,.07.05h.07l238.77,0Zm0-9.61L16.9,31.2a6.36,6.36,0,0,0,.28-4.48v-.13l.29-.25H255.18Zm16.39-.08h0a.6.6,0,0,0-.57.22l-15.3,9.29V12.69A5.86,5.86,0,0,1,257,9.09L271.2.85l.06,0c.13-.14.4-.36.57-.3s.46.79.5,1.24a4.11,4.11,0,0,1-.42,2.51.3.3,0,0,0-.05.16V26.78A.25.25,0,0,0,272,27c.08,0,.2.23.27.65A5,5,0,0,1,271.57,31.08Z" style="fill:#fec34f;opacity:0.4"/></svg>