<svg xmlns="http://www.w3.org/2000/svg" width="292.42" height="52.19" viewBox="0 0 292.42 52.19"><title>slopingshelf-36-90</title><path d="M291.88,14.4V3.58a9.65,9.65,0,0,0,.29-1.81s0-1.52-.8-1.52h-4.64L35.61.36,2.05,45.76a2,2,0,0,1,1-.33H4.17c.58,0,.83.42.64,1a7.94,7.94,0,0,0-2.46,5.52l245.54,0v-.06h.62l4.12-3.64,1.16-2.13a2.58,2.58,0,0,1,2-1.23h1.12c.68,0,.91.55.51,1.23l-1.11,1.76h2.92L291,30.7c1.15-1.15,1.18-3.55,1.18-3.55a3.38,3.38,0,0,0-.29-1.22Zm-1.33,15.24c-.05.06-.09.08-.08.08s-.12-.15-.12-.52a2.83,2.83,0,0,1,.56-1.71l.08-.07a.79.79,0,0,1,.12.52A2.83,2.83,0,0,1,290.55,29.64Zm0-25.57a.54.54,0,0,1-.09.07.83.83,0,0,1-.11-.52,2.83,2.83,0,0,1,.56-1.71l.09-.08a.87.87,0,0,1,.11.53A2.88,2.88,0,0,1,290.55,4.07Z" style="fill:#fec34f;opacity:0.2"/><path d="M1.1,46.67.25,48.19l1.8-2.43A2.68,2.68,0,0,0,1.1,46.67Z" style="fill:#d82001;opacity:0.2"/><path d="M291.19,1.37a.56.56,0,0,0-.64.19,3.28,3.28,0,0,0-.7,2.06c0,.52.15.87.42,1a.48.48,0,0,0,.18,0,.65.65,0,0,0,.45-.22h0a3.33,3.33,0,0,0,.7-2.06C291.61,1.83,291.46,1.48,291.19,1.37Zm-.64,2.7a.54.54,0,0,1-.09.07.83.83,0,0,1-.11-.52,2.83,2.83,0,0,1,.56-1.71l.09-.08a.87.87,0,0,1,.11.53A2.88,2.88,0,0,1,290.55,4.07Z" style="fill:#fec34f;opacity:0.4"/><path d="M291.19,27a.56.56,0,0,0-.64.19,3.3,3.3,0,0,0-.7,2.06c0,.52.15.87.42,1a.84.84,0,0,0,.18,0,.68.68,0,0,0,.46-.22,3.3,3.3,0,0,0,.7-2.06C291.61,27.42,291.46,27.07,291.19,27Zm-.64,2.69c-.05.06-.09.08-.08.08s-.12-.15-.12-.52a2.83,2.83,0,0,1,.56-1.71s.08-.07.09-.07a.91.91,0,0,1,.11.52A2.83,2.83,0,0,1,290.55,29.64Z" style="fill:#fec34f;opacity:0.4"/><path d="M289.18,2.47,259.72,44.74a.25.25,0,0,0,.06.35.3.3,0,0,0,.15,0,.26.26,0,0,0,.2-.11L289.59,2.76a.25.25,0,0,0-.41-.29Z" style="fill:#fec34f;opacity:0.4"/><path d="M292.13,3.61a9.19,9.19,0,0,0,.29-1.85c0-.65-.24-1.76-1.05-1.76h-4.64L35.61.11a.28.28,0,0,0-.2.1L1.89,45.55a2.9,2.9,0,0,0-1,1L0,48.07a.25.25,0,0,0,.08.33.25.25,0,0,0,.34-.06l1.78-2.41a1.84,1.84,0,0,1,.82-.25H4.17a.44.44,0,0,1,.41.18.54.54,0,0,1,0,.43A8.37,8.37,0,0,0,2.1,51.92a.25.25,0,0,0,.25.25l245.54,0a.22.22,0,0,0,.13-.06h.49a.23.23,0,0,0,.16-.06l4.12-3.64a.13.13,0,0,0,.06-.07L254,46.24a2.33,2.33,0,0,1,1.73-1.11h1.12a.46.46,0,0,1,.41.17.72.72,0,0,1-.11.68l-1.11,1.76a.23.23,0,0,0,0,.25.23.23,0,0,0,.21.13h2.92a.27.27,0,0,0,.12,0l31.81-17.17.06,0c1.2-1.21,1.25-3.63,1.25-3.75a3.65,3.65,0,0,0-.29-1.27ZM2.61,51.67c.07-1.19.69-6.14,6.15-6.53l232.71,0c5.47.39,6.09,5.33,6.16,6.53ZM291.66,26.06a2.8,2.8,0,0,1,.26,1.08,5.87,5.87,0,0,1-1.08,3.36L259.11,47.62h-2.39l.87-1.38a1.21,1.21,0,0,0,.11-1.19.93.93,0,0,0-.84-.42h-1.12A2.81,2.81,0,0,0,253.57,46l-1.14,2.1-4,3.54h-.28c-.1-1.32-.86-6.56-6.63-7h0l-232.73,0A7.08,7.08,0,0,0,5.1,45.86.58.58,0,0,0,5,45.61a.91.91,0,0,0-.84-.43H3.05l-.29,0,33-44.6,251-.1h4.64c.44,0,.55,1,.55,1.26a9.37,9.37,0,0,1-.28,1.75.17.17,0,0,0,0,.07V25.93A.31.31,0,0,0,291.66,26.06Z" style="fill:#fec34f;opacity:0.4"/></svg>