<svg xmlns="http://www.w3.org/2000/svg" width="265.99" height="275.93" viewBox="0 0 265.99 275.93"><title>table-80-65.5</title><path d="M107.53,269.78a1.32,1.32,0,0,1,0,.72c0,2.86,5.46,5.18,12.19,5.18s12.19-2.32,12.19-5.18a1.64,1.64,0,0,1,0-.72c0-1.91-2.44-3.58-6.06-4.48V70.88H113.51V265.32C109.94,266.23,107.53,267.88,107.53,269.78Z" style="fill:#fec34f;opacity:0.2"/><path d="M264.77.31h0s-2-.33-2.18,2.12c-.08,1-1.49,12.24-2.76,17.55H79.94C80,14,80,3.38,80,1.42c0-.77-.46-1.18-1-1.15h0s-2-.33-2.18,2.12c-.1,1.32-.79,17.93-2.18,19.32-.78.78-21.43,12.42-21.43,12.42v.6L.25,65.33v5.54H184.91L239,39.69h0l.39-.24.58-.33v.57l23.16-13.93.46-.26h0l2.05-1.24s.12-20,.12-22.8C265.74.69,265.28.28,264.77.31Zm-186,3.27c-.35.35-.64.07-.64-.64A3.16,3.16,0,0,1,78.81,1c.35-.35.64-.07.64.64A3.18,3.18,0,0,1,78.81,3.58Zm185.7,0c-.35.35-.64.06-.64-.64a3.16,3.16,0,0,1,.64-1.93c.36-.35.65-.07.65.64A3.12,3.12,0,0,1,264.51,3.62Z" style="fill:#fec34f;opacity:0.2"/><path d="M79.28.64a.58.58,0,0,0-.65.19,3.4,3.4,0,0,0-.71,2.11c0,.53.15.89.42,1a.48.48,0,0,0,.18,0A.68.68,0,0,0,79,3.76h0a3.4,3.4,0,0,0,.71-2.11C79.7,1.12,79.55.76,79.28.64ZM78.63,3.4l-.09.08s-.12-.17-.12-.54A2.9,2.9,0,0,1,79,1.19l.09-.08s.12.17.12.54A2.9,2.9,0,0,1,78.63,3.4Z" style="fill:#fec34f;opacity:0.4"/><path d="M53.53,34.58v-.21h.35l.58-.33a.25.25,0,0,0-.21-.17h-1a.25.25,0,0,0-.25.25v.75Z" style="fill:#d82001;opacity:0.4"/><path d="M264.89.05h-.08a2.2,2.2,0,0,0-1.6.41,2.59,2.59,0,0,0-.87,1.93c-.11,1.51-1.5,12.14-2.7,17.32H80.19c0-6,.1-16.38.1-18.3A1.26,1.26,0,0,0,79.18,0h-.07a2.2,2.2,0,0,0-1.6.41,2.56,2.56,0,0,0-.87,1.93c0,.17,0,.59-.07,1.2-.74,13.91-1.52,17.44-2,18S61.44,29.23,53.15,33.9a.27.27,0,0,0-.12.22v.46L.12,65.11l0,0a.1.1,0,0,0,0,0,.18.18,0,0,0,0,.1.05.05,0,0,0,0,0v5.54a.25.25,0,0,0,.25.25h113v194c-3.6.94-6,2.65-6,4.66,0,.12,0,.24,0,.36s0,.24,0,.36c0,3.05,5.47,5.43,12.44,5.43s12.44-2.38,12.44-5.43a1.88,1.88,0,0,0,0-.33,1.74,1.74,0,0,0,0-.39c0-2-2.41-3.75-6.06-4.68v-194h58.81a.2.2,0,0,0,.13,0L239,40H240a.2.2,0,0,0,.13,0l25.67-15.43a.25.25,0,0,0,.12-.22c0-.2.12-20.08.12-22.8A1.27,1.27,0,0,0,264.89.05Zm-2.05,2.38a2.06,2.06,0,0,1,.68-1.56.39.39,0,0,1,.14-.08,3.3,3.3,0,0,0-.54,1.59c-.23,2.13-2.55,19-3.81,20.26l-.23.17C260.6,21.16,262.78,3.29,262.84,2.43ZM79.13.51h0c.37,0,.63.39.63.91,0,1.92-.06,12.32-.1,18.3h-.85a.28.28,0,0,0-.13,0l-2.66,1.54c.83-2.45,1.34-9.74,1.73-16.81.06-1.07.1-1.85.13-2.09C78,1.15,78.61.51,79.13.51ZM74.89,21.88c.87-.87,1.56-6.68,2.18-18.29,0-.61.05-1,.06-1.19A2.14,2.14,0,0,1,77.81.83l.11-.06a3.41,3.41,0,0,0-.51,1.57c0,.25-.07,1-.13,2.11-.25,4.43-.9,16.2-2,17.26h0l-1.19.69A6.38,6.38,0,0,0,74.89,21.88ZM53.53,34.27l.53-.3v0l-.52.3Zm66.15,235.26c-4.4,0-5.72-1.63-5.92-1.92V71.12H125.6V267.61C125.4,267.91,124.08,269.53,119.68,269.53Zm-4.19-.15a7,7,0,0,0,4.24,1.13,6.77,6.77,0,0,0,4.32-1.2,4,4,0,0,0,2-1.51h0a1.7,1.7,0,0,1,.74,1.25c0,1.56-3.24,2.87-7.09,2.87s-7.1-1.31-7.1-2.87a1.65,1.65,0,0,1,.69-1.2A4.21,4.21,0,0,0,115.49,269.38Zm4.23,6.05c-5.21,0-9.63-1.39-11.25-3.31,2,1.84,6.21,3.1,11.25,3.1S129,274,131,272.11C129.37,274,124.94,275.43,119.72,275.43Zm11.94-5.65c0,2.72-5.36,4.94-11.94,4.94s-11.94-2.22-11.94-4.94c0-1.74,2.2-3.26,5.48-4.14v1.62a2.33,2.33,0,0,0-1.13,1.78c0,1.89,3.34,3.37,7.6,3.37s7.59-1.48,7.59-3.37a2.37,2.37,0,0,0-1.22-1.84v-1.58C129.43,266.5,131.66,268,131.66,269.78Zm53-199.16H.5v-5H184.66Zm54.07-31.08L185.16,70.43v-5l53.57-30.89Zm1-.08h-.47V34.41h.47ZM184.84,65.08H1.18L78.9,20.22H259.52a6.52,6.52,0,0,1-.81,2.26l0,0Zm80.54-41L240.2,39.26V34.31c2.44-1.38,18.69-10.55,19.46-11.32,1.52-1.52,3.93-20.37,3.95-20.56.14-1.27.71-1.91,1.25-1.88.38,0,.63.39.63.91C265.49,4.05,265.38,22.32,265.38,24.12Z" style="fill:#fec34f;opacity:0.4"/><path d="M265,.68a.56.56,0,0,0-.64.19A3.38,3.38,0,0,0,263.62,3c0,.53.15.89.43,1a.44.44,0,0,0,.18,0,.64.64,0,0,0,.46-.23h0a3.35,3.35,0,0,0,.72-2.1C265.41,1.15,265.25.8,265,.68Zm-.64,2.76c-.06.06-.1.07-.1.08s-.12-.17-.12-.54a2.87,2.87,0,0,1,.57-1.75.44.44,0,0,1,.1-.08s.12.17.12.54A2.9,2.9,0,0,1,264.34,3.44Z" style="fill:#fec34f;opacity:0.4"/><path d="M248.1,31.18a2.25,2.25,0,0,0-.46,1.38c0,.51.21.71.46.46a2.19,2.19,0,0,0,.46-1.38C248.56,31.13,248.36,30.92,248.1,31.18Z" style="fill:#fec34f;opacity:0.4"/><path d="M243,34.27a2.19,2.19,0,0,0-.47,1.38c0,.51.21.71.47.46a2.25,2.25,0,0,0,.45-1.38C243.42,34.22,243.22,34,243,34.27Z" style="fill:#fec34f;opacity:0.4"/><path d="M258.38,25a2.25,2.25,0,0,0-.46,1.38c0,.51.21.71.46.46a2.24,2.24,0,0,0,.46-1.38C258.84,24.94,258.64,24.73,258.38,25Z" style="fill:#fec34f;opacity:0.4"/><path d="M253.24,28.08a2.25,2.25,0,0,0-.46,1.38c0,.51.21.72.46.46a2.25,2.25,0,0,0,.46-1.38C253.7,28,253.49,27.83,253.24,28.08Z" style="fill:#fec34f;opacity:0.4"/><path d="M263.52,21.89a2.3,2.3,0,0,0-.46,1.38c0,.51.21.72.46.46a2.19,2.19,0,0,0,.46-1.38C264,21.84,263.78,21.64,263.52,21.89Z" style="fill:#fec34f;opacity:0.4"/></svg>