<svg xmlns="http://www.w3.org/2000/svg" width="373.21" height="297.65" viewBox="0 0 373.21 297.65"><title>table-120-90</title><path d="M157.25,287V92.83H144.91V287c-3.58.9-6,2.56-6,4.45a2.09,2.09,0,0,0,0,.36,2.2,2.2,0,0,0,0,.36c0,2.87,5.46,5.19,12.19,5.19s12.19-2.32,12.19-5.19a2.23,2.23,0,0,0-.05-.36,2.08,2.08,0,0,0,.05-.36C163.31,289.58,160.87,287.92,157.25,287Z" style="fill:#fec34f;opacity:0.2"/><path d="M372.24.27h0s-2-.33-2.18,2.12c-.08,1-1.33,11-2.54,16.59H118.19l-.36.21c0-6,.09-15.88.09-17.76,0-.77-.45-1.18-1-1.15h0s-2-.33-2.18,2.12c-.1,1.32-.79,17.93-2.17,19.32-.78.78-21.44,12.42-21.44,12.42v.45L.34,87v5.54h254l92.16-53.16v.29l1-.59v.59l25.67-15.44s.12-20,.12-22.8C373.21.65,372.75.24,372.24.27ZM116.7,1c.35-.35.64-.07.64.64a3.18,3.18,0,0,1-.64,1.93c-.36.35-.64.06-.64-.64A3.09,3.09,0,0,1,116.7,1ZM372,3.58c-.35.35-.64.06-.64-.64A3.16,3.16,0,0,1,372,1c.36-.35.64-.07.64.64A3.12,3.12,0,0,1,372,3.58Z" style="fill:#fec34f;opacity:0.2"/><path d="M163.56,291.49c0-2-2.41-3.74-6.06-4.68v-194H157V289.32c-.2.3-1.53,1.92-5.92,1.92s-5.72-1.62-5.92-1.92V92.83h-.5v194c-3.6.94-6,2.66-6,4.66a2.09,2.09,0,0,0,0,.36,2.2,2.2,0,0,0,0,.36c0,3.05,5.46,5.44,12.44,5.44s12.44-2.39,12.44-5.44a1.77,1.77,0,0,0-.05-.32A2.57,2.57,0,0,0,163.56,291.49Zm-16.67-.4a7,7,0,0,0,4.24,1.14,6.79,6.79,0,0,0,4.32-1.21,3.92,3.92,0,0,0,2-1.51h0a1.68,1.68,0,0,1,.75,1.24c0,1.56-3.25,2.88-7.09,2.88s-7.1-1.32-7.1-2.88a1.65,1.65,0,0,1,.68-1.2A4.25,4.25,0,0,0,146.89,291.09Zm4.23,6.06c-5.21,0-9.63-1.39-11.26-3.32,2,1.85,6.21,3.1,11.26,3.1s9.3-1.26,11.26-3.1C160.76,295.76,156.33,297.15,151.12,297.15Zm0-.72c-6.58,0-11.94-2.21-11.94-4.94,0-1.73,2.2-3.25,5.48-4.13V289a2.28,2.28,0,0,0-1.13,1.77c0,1.89,3.34,3.38,7.6,3.38s7.59-1.49,7.59-3.38a2.35,2.35,0,0,0-1.22-1.83v-1.58c3.33.87,5.56,2.4,5.56,4.15C163.06,294.22,157.7,296.43,151.12,296.43Z" style="fill:#fec34f;opacity:0.4"/><path d="M116.23,4a.84.84,0,0,0,.18,0,.65.65,0,0,0,.46-.22h0a3.4,3.4,0,0,0,.72-2.11c0-.53-.15-.89-.43-1a.56.56,0,0,0-.64.19,3.38,3.38,0,0,0-.71,2.11C115.81,3.47,116,3.83,116.23,4Zm.64-2.76a.44.44,0,0,1,.1-.08s.12.17.12.54a2.9,2.9,0,0,1-.57,1.75.44.44,0,0,1-.1.08s-.11-.17-.11-.54A2.94,2.94,0,0,1,116.87,1.19Z" style="fill:#fec34f;opacity:0.4"/><path d="M372.11,0H372a2.2,2.2,0,0,0-1.6.41,2.59,2.59,0,0,0-.87,1.93c-.11,1.43-1.36,11-2.51,16.41h-249c0-6,.09-15.47.09-17.36a1.26,1.26,0,0,0-1.1-1.4H117a2.18,2.18,0,0,0-1.59.41,2.56,2.56,0,0,0-.88,1.93c0,.17,0,.6-.06,1.22-.75,13.89-1.52,17.42-2,17.94S99.33,29.23,91,33.9a.25.25,0,0,0-.12.22v.31L.12,86.82s0,0,0,0l0,.05A.21.21,0,0,0,0,87s0,0,0,0v5.54a.25.25,0,0,0,.25.25h254a.27.27,0,0,0,.12,0l91.75-52.93h0l.12,0h1a.22.22,0,0,0,.13,0L373,24.44a.25.25,0,0,0,.12-.22c0-.2.12-20.08.12-22.8A1.26,1.26,0,0,0,372.11,0ZM370.06,2.4a2.07,2.07,0,0,1,.68-1.57l.12-.07a3.41,3.41,0,0,0-.53,1.58c-.16,1.56-1.45,11-2.62,16.43h-.15C368.8,13,370,3,370.06,2.4Zm-2.61,16.87h.15a10.19,10.19,0,0,1-1.08,3.33l-.22.17A10.58,10.58,0,0,0,367.45,19.27ZM117,.51c.38,0,.63.39.63.91,0,1.92-.06,11.65-.09,17.62L114,21.1c.79-2.62,1.28-9.72,1.67-16.62.06-1.07.1-1.85.13-2.09C115.93,1.12,116.5.5,117,.51ZM115,3.61c0-.62.06-1,.07-1.21A2.14,2.14,0,0,1,115.7.83l.12-.07a3.34,3.34,0,0,0-.52,1.58c0,.25-.07,1-.13,2.12-.24,4.21-.84,15.05-1.81,17l-.5.29C113.69,20.6,114.36,14.82,115,3.61ZM254,92.33H.5v-5H254Zm.18-5.54H1.18l117-67.52H367a13.26,13.26,0,0,1-.88,2.95Zm.32.4L346,34.41v5l-91.5,52.78Zm92.47-48.26-.47.29V34.37h.47Zm25.67-14.85L347.42,39.22V34.27c2.44-1.38,18.69-10.55,19.46-11.32,1.52-1.52,3.93-20.37,3.95-20.56.14-1.27.71-1.89,1.25-1.88.38,0,.63.39.63.91C372.71,4,372.6,22.29,372.59,24.08Z" style="fill:#fec34f;opacity:0.4"/><path d="M372.2.64a.56.56,0,0,0-.64.19,3.32,3.32,0,0,0-.72,2.11c0,.53.15.89.43,1a.66.66,0,0,0,.18,0,.68.68,0,0,0,.46-.22h0a3.4,3.4,0,0,0,.71-2.11C372.62,1.12,372.47.76,372.2.64Zm-.64,2.76a.44.44,0,0,1-.1.08s-.12-.17-.12-.54a2.87,2.87,0,0,1,.57-1.75.44.44,0,0,1,.1-.08s.11.17.11.54A3,3,0,0,1,371.56,3.4Z" style="fill:#fec34f;opacity:0.4"/><path d="M355.32,31.14a2.25,2.25,0,0,0-.46,1.38c0,.51.21.71.46.46a2.19,2.19,0,0,0,.46-1.38C355.78,31.09,355.58,30.88,355.32,31.14Z" style="fill:#fec34f;opacity:0.4"/><path d="M350.18,34.23a2.25,2.25,0,0,0-.46,1.38c0,.51.21.72.46.47a2.24,2.24,0,0,0,.46-1.39C350.64,34.18,350.44,34,350.18,34.23Z" style="fill:#fec34f;opacity:0.4"/><path d="M365.6,25a2.25,2.25,0,0,0-.46,1.38c0,.51.21.71.46.46a2.3,2.3,0,0,0,.46-1.38C366.06,24.9,365.85,24.69,365.6,25Z" style="fill:#fec34f;opacity:0.4"/><path d="M360.46,28a2.26,2.26,0,0,0-.46,1.39c0,.5.21.71.46.45a2.25,2.25,0,0,0,.46-1.38C360.92,28,360.71,27.79,360.46,28Z" style="fill:#fec34f;opacity:0.4"/><path d="M370.74,21.85a2.24,2.24,0,0,0-.46,1.39c0,.5.2.71.46.45a2.25,2.25,0,0,0,.46-1.38C371.2,21.81,371,21.6,370.74,21.85Z" style="fill:#fec34f;opacity:0.4"/></svg>