<?xml version="1.0" encoding="utf-8"?>
<!-- Generator: Adobe Illustrator 23.0.1, SVG Export Plug-In . SVG Version: 6.00 Build 0)  -->
<svg version="1.1" id="Layer_1" xmlns="http://www.w3.org/2000/svg" xmlns:xlink="http://www.w3.org/1999/xlink" x="0px" y="0px"
	 viewBox="0 0 76 64.4" style="enable-background:new 0 0 76 64.4;" xml:space="preserve">
<style type="text/css">
	.st0{fill:#D72000;}
</style>
<title>Pictograms v2</title>
<path class="st0" d="M39.6,61.5c-0.8,1.9-2.4,2.7-6.6,2.9l-10.6-1.4C7.3,59.7-0.2,51.2,0,39.2c0.1-8.6,4.2-13.9,12-19.8
	S31.3,4.7,32.6,3.5c1.5-1.3,5.7-4.8,8-3c0.7,0.6,2,1.5,0,5.3S32,17,31.1,18.9s-0.2,4.9,4.5,5c2.3,0.2,13.7,0.5,22.6,1
	c10.1,0.5,15.4,0.6,17.1,2.1c0.5,0.4,0.7,1,0.7,1.7c0,2.8-4.2,3.2-7.7,3.5c-12,1.2-20.2,2-23.2,2.3c-1.8,0.2-1.3,1.5-0.6,2.3
	s2.9,2.8,2.7,5.1s-1.9,3.3-3.7,4.2c-1.4,0.6-1.1,1.6-0.3,2.3c1.1,1.1,1.5,2.7,0.9,4.1c-0.6,1.9-2.7,2.9-4.8,3.4
	c-1.4,0.4-0.8,1.2-0.2,2.1C39.9,59,40,60.3,39.6,61.5"/>
</svg>
