<?xml version="1.0" encoding="utf-8"?>
<!-- Generator: Adobe Illustrator 23.0.1, SVG Export Plug-In . SVG Version: 6.00 Build 0)  -->
<svg version="1.1" id="tell_us" xmlns="http://www.w3.org/2000/svg" xmlns:xlink="http://www.w3.org/1999/xlink" x="0px" y="0px"
	 viewBox="0 0 22.6 22.6" style="enable-background:new 0 0 22.6 22.6;" xml:space="preserve">
<style type="text/css">
	.st0{fill:none;}
	.st1{fill:#FEC34F;}
</style>
<g id="Ellipse_121">
	<circle class="st0" cx="11.3" cy="11.3" r="11"/>
	<path class="st1" d="M11.3,22.3c-6.1,0-11-4.9-11-11s4.9-11,11-11s11,4.9,11,11S17.4,22.3,11.3,22.3z M11.3,2.3c-5,0-9,4-9,9
		c0,5,4,9,9,9c5,0,9-4,9-9C20.3,6.3,16.2,2.3,11.3,2.3z"/>
</g>
<path class="st1" d="M12.3,16.3h-2v-7h2V16.3z M12.3,7.4h-2v-2h2V7.4z"/>
</svg>
