<svg xmlns="http://www.w3.org/2000/svg" width="224.32" height="132.87" viewBox="0 0 224.32 132.87"><title>cabinet_1d-36-65.5</title><path d="M222.7.28v0s-.47,0-1.59,0L185.87,20.65v112h1.37l35.24-20.37c.81-.81.87-1.07.87-2.8V4.67C224.59,3.42,224.13-.16,222.7.28ZM222.58,4h0a.35.35,0,0,1-.12.11s-.17-.15-.21-.61a3.21,3.21,0,0,1,.42-2,.35.35,0,0,1,.12-.11s.17.15.22.61A3.25,3.25,0,0,1,222.58,4Z" style="fill:#e6e6eb"/><path d="M36.86,112.25c.89-.88.87-1.07.87-2.8V4.67c1.42-1.42.62-5.87-1.3-3.95L1.63,20.65v112Z" style="fill:#fff"/><path d="M36.84,4.65l-.14,0c-.3-.09-.51-.46-.57-1a3.74,3.74,0,0,1,.53-2.38.6.6,0,0,1,.66-.27c.3.09.51.46.57,1a3.74,3.74,0,0,1-.54,2.39A.65.65,0,0,1,36.84,4.65Zm.34-3.23s-.06,0-.13.11a3.27,3.27,0,0,0-.42,2c0,.46.18.6.21.61s.06,0,.12-.11h0a3.19,3.19,0,0,0,.43-2C37.34,1.57,37.21,1.43,37.18,1.42Z"/><line x1="0.25" y1="20.65" x2="1.63" y2="20.65" style="fill:#fff"/><path d="M1.62,20.91H.25A.25.25,0,0,1,0,20.66a.25.25,0,0,1,.25-.25H1.62a.26.26,0,0,1,.26.25A.26.26,0,0,1,1.62,20.91Z"/><path d="M36.9,2.85a10.3,10.3,0,0,0,.18-2.6s-.47,0-1.59,0L.25,20.65v112H1.62l33.87-20.37c1.58-1.58,1.41-1.76,1.41-3.49V2.85Z" style="fill:#e6e6eb"/><path d="M222.46,4.65l-.14,0c-.31-.09-.51-.46-.57-1a3.8,3.8,0,0,1,.52-2.38.62.62,0,0,1,.67-.27c.3.09.5.46.57,1A3.74,3.74,0,0,1,223,4.36.68.68,0,0,1,222.46,4.65Zm.33-3.23a.35.35,0,0,0-.12.11,3.21,3.21,0,0,0-.42,2c0,.46.18.6.21.61a.35.35,0,0,0,.12-.11h0A3.25,3.25,0,0,0,223,2C223,1.57,222.83,1.43,222.79,1.42Z" style="fill:#666675"/><line x1="185.87" y1="20.65" x2="187.24" y2="20.65" style="fill:#fff"/><rect x="1.63" y="26.32" width="184.24" height="100.64" style="fill:#787878"/><polygon points="36.99 0.25 1.63 20.66 1.63 26.32 185.87 26.32 185.87 20.66 221.11 0.29 36.99 0.25" style="fill:#504f4e"/><rect x="1.63" y="126.96" width="184.24" height="5.67" style="fill:#504f4e"/><path d="M3.84,126.48H183.65a1.41,1.41,0,0,0,1.46-1.48V28.79a1.31,1.31,0,0,0-1.46-1.47H110.28c-1.37,0-1.38,1.47-1.38,1.47v4.49a1.35,1.35,0,0,1-1.46,1.48H80.83a1.32,1.32,0,0,1-1.46-1.48V28.79s.43-1.47-1.46-1.47H3.84a1.45,1.45,0,0,0-1.46,1.47V125A1.45,1.45,0,0,0,3.84,126.48Z" style="fill:#504f4e"/><path d="M223.65.31a1,1,0,0,0-.91-.29l0,0s-.47,0-1.6,0L37.23,0h-.14s-.48,0-1.61,0a.27.27,0,0,0-.12,0L.12,20.44a.26.26,0,0,0-.12.22v112a.25.25,0,0,0,.25.25h187a.28.28,0,0,0,.13,0l35.24-20.37,0,0c.88-.88.94-1.22.94-3V4.77A3.93,3.93,0,0,0,223.65.31ZM1.88,20.91H185.62v5.16H1.88Zm183.92-.5H2.56L37.06.5l183.11,0ZM1.38,127v5.41H.5V20.8L35.56.53H36L1.5,20.44h0a.24.24,0,0,0-.11.21V127Zm.5-100.39H185.62V126.71H1.88Zm0,100.64H185.62v5.16H1.88ZM187,132.37h-.87V20.91H187Zm.19-112h-.38L193,16.82,221.18.53l.72,0h0Zm36-15.92a.24.24,0,0,0-.07.18V109.45c0,1.69,0,1.88-.77,2.6l-34.84,20.14V20.8L222.17.94l.05,0c.66-.66,1-.34,1.08-.24A3.42,3.42,0,0,1,223.17,4.49Z" style="fill:#878787"/></svg>