<svg xmlns="http://www.w3.org/2000/svg" width="293.8" height="132.87" viewBox="0 0 293.8 132.87"><title>cabinet_3d-36-90</title><path d="M292.18.28v0s-.47,0-1.6,0L255.34,20.65v112h1.38L292,112.25c.81-.81.87-1.07.87-2.8V4.67C294.07,3.42,293.61-.16,292.18.28ZM292.06,4h0a.35.35,0,0,1-.12.11s-.17-.15-.22-.61a3.34,3.34,0,0,1,.42-2c.07-.09.12-.11.13-.11s.17.15.22.61A3.25,3.25,0,0,1,292.06,4Z" style="fill:#e6e6eb"/><path d="M36.86,112.25c.89-.88.87-1.07.87-2.8V4.67c1.42-1.42.62-5.87-1.3-3.95L1.63,20.65v112Z" style="fill:#fff"/><path d="M36.84,4.65l-.14,0c-.3-.09-.51-.46-.57-1a3.74,3.74,0,0,1,.53-2.38.6.6,0,0,1,.66-.27c.3.09.51.46.57,1a3.74,3.74,0,0,1-.54,2.39A.65.65,0,0,1,36.84,4.65Zm.34-3.23s-.06,0-.13.11a3.27,3.27,0,0,0-.42,2c0,.46.18.6.21.61s.06,0,.12-.11h0a3.19,3.19,0,0,0,.43-2C37.34,1.57,37.21,1.43,37.18,1.42Z"/><line x1="0.25" y1="20.65" x2="1.63" y2="20.65" style="fill:#fff"/><path d="M1.62,20.91H.25A.25.25,0,0,1,0,20.66a.25.25,0,0,1,.25-.25H1.62a.26.26,0,0,1,.26.25A.26.26,0,0,1,1.62,20.91Z"/><path d="M36.9,2.85a10.3,10.3,0,0,0,.18-2.6s-.47,0-1.59,0L.25,20.65v112H1.62l33.87-20.37c1.58-1.58,1.41-1.76,1.41-3.49V2.85Z" style="fill:#fff"/><path d="M291.93,4.65l-.13,0c-.31-.09-.51-.46-.58-1a3.8,3.8,0,0,1,.53-2.38.6.6,0,0,1,.66-.27c.31.09.51.46.57,1a3.74,3.74,0,0,1-.53,2.39A.68.68,0,0,1,291.93,4.65Zm.34-3.23s-.06,0-.13.11a3.34,3.34,0,0,0-.42,2c0,.46.19.6.22.61a.35.35,0,0,0,.12-.11h0a3.25,3.25,0,0,0,.43-2C292.44,1.57,292.3,1.43,292.27,1.42Z" style="fill:#666675"/><line x1="255.34" y1="20.65" x2="256.72" y2="20.65" style="fill:#fff"/><rect x="1.63" y="26.32" width="253.72" height="100.64" style="fill:#787878"/><polygon points="36.99 0.25 1.63 20.66 1.63 26.32 255.34 26.32 255.34 20.66 290.58 0.29 36.99 0.25" style="fill:#504f4e"/><rect x="1.63" y="126.96" width="253.72" height="5.67" style="fill:#504f4e"/><path d="M293.13.31a1,1,0,0,0-.91-.29s0,0,0,0-.47,0-1.61,0L37.23,0h-.14s-.48,0-1.61,0a.27.27,0,0,0-.12,0L.12,20.44a.26.26,0,0,0-.12.22v112a.25.25,0,0,0,.25.25H256.72a.24.24,0,0,0,.12,0l35.24-20.37a.1.1,0,0,0,.05,0c.88-.88.95-1.22.95-3V4.77A3.93,3.93,0,0,0,293.13.31ZM1.88,20.91H255.09v5.16H1.88Zm253.4-.5H2.56L37.06.5l252.59,0ZM1.38,127v5.41H.5V20.8L35.56.53H36L1.5,20.44h0a.24.24,0,0,0-.11.21V127Zm.5-100.39H255.09V126.71H1.88Zm0,100.64H255.09v5.16H1.88Zm254.59,5.16h-.88V20.91h.88Zm.18-112h-.37l6.21-3.59L290.65.53l.73,0h0Zm36-15.92a.24.24,0,0,0-.07.18V109.45c0,1.69-.05,1.88-.78,2.6L257,132.19V20.8L291.65.94l.05,0c.65-.66,1-.34,1.08-.24A3.42,3.42,0,0,1,292.65,4.49Z" style="fill:#878787"/><path d="M141.73,35.47H115.32a1.36,1.36,0,0,1-1.45-1.54V29.22s.43-1.55-1.45-1.55H4c-1.44,0-1.45,1.55-1.45,1.55V57.89s0,1.55,1.45,1.55H252.94a1.45,1.45,0,0,0,1.44-1.55V29.22c0-1.73-1.44-1.55-1.44-1.55H144.54c-1.36,0-1.37,1.55-1.37,1.55v4.71A1.38,1.38,0,0,1,141.73,35.47Z" style="fill:#504f4e"/><path d="M141.73,69H115.32a1.36,1.36,0,0,1-1.45-1.54V62.76s.43-1.55-1.45-1.55H4c-1.44,0-1.45,1.55-1.45,1.55V91.43S2.59,93,4,93H252.94a1.45,1.45,0,0,0,1.44-1.55V62.76c0-1.73-1.44-1.55-1.44-1.55H144.54c-1.36,0-1.37,1.55-1.37,1.55v4.71A1.38,1.38,0,0,1,141.73,69Z" style="fill:#504f4e"/><path d="M141.73,102.38H115.32a1.34,1.34,0,0,1-1.45-1.52V96.21s.43-1.52-1.45-1.52H4a1.48,1.48,0,0,0-1.45,1.52v28.28A1.48,1.48,0,0,0,4,126H252.94a1.43,1.43,0,0,0,1.44-1.52V96.21c0-1.7-1.44-1.52-1.44-1.52H144.54c-1.36,0-1.37,1.52-1.37,1.52v4.65A1.37,1.37,0,0,1,141.73,102.38Z" style="fill:#504f4e"/></svg>