<svg xmlns="http://www.w3.org/2000/svg" width="292.33" height="57.19" viewBox="0 0 292.33 57.19"><title>metalshelf-36-90</title><path d="M291.78,15V3.53a9.46,9.46,0,0,0,.3-1.84s-.15-2.27-1.32-1.11l-32.95,19c-2.58,2.57-2.27,4.52-2.27,4.52V26H36.94l-.27.2V3.53A9.46,9.46,0,0,0,37,1.69S36.81-.58,35.64.58L2.7,19.59C.12,22.17.43,24.11.43,24.11V52.87L.25,53H3.86c.67,2,2.09,3.94,5.06,3.94H247.37c2.76,0,4.17-2,4.9-3.94h3.28l35.26-21.56c.38-.38.45,0,.45,0,1.17-1.17.78-4.23.52-4.66ZM35.7,1.51c.35-.35.64-.07.64.63a3.09,3.09,0,0,1-.64,1.91c-.35.35-.64.07-.64-.63A3.09,3.09,0,0,1,35.7,1.51Zm0,26.1c.35-.34.64-.06.64.64a3.09,3.09,0,0,1-.64,1.91c-.35.35-.64.07-.64-.64A3.12,3.12,0,0,1,35.7,27.61Zm255.12,2.55c-.36.35-.65.07-.65-.64a3.06,3.06,0,0,1,.65-1.91c.35-.34.63-.06.63.64A3.09,3.09,0,0,1,290.82,30.16Zm0-26.11c-.36.35-.65.07-.65-.63a3,3,0,0,1,.65-1.91c.35-.35.63-.07.63.63A3.09,3.09,0,0,1,290.82,4.05Z" style="fill:#504f4e"/><line x1="255.53" y1="31.36" x2="36.15" y2="31.39" style="fill:#fff"/><path d="M35.41,4.45a.48.48,0,0,1-.18,0c-.27-.12-.42-.47-.42-1a3.3,3.3,0,0,1,.71-2.09.57.57,0,0,1,.64-.19c.28.12.43.47.43,1a3.38,3.38,0,0,1-.71,2.09A.68.68,0,0,1,35.41,4.45Zm0-.49ZM36,1.61a.39.39,0,0,0-.09.07,2.87,2.87,0,0,0-.57,1.74c0,.36.08.51.11.53s0,0,.1-.08h0a2.81,2.81,0,0,0,.57-1.73C36.09,1.77,36,1.63,36,1.61Z" style="fill:#878787"/><path d="M35.41,30.56a.84.84,0,0,1-.18,0c-.27-.12-.42-.47-.42-1a3.29,3.29,0,0,1,.71-2.08.57.57,0,0,1,.64-.19c.28.12.43.47.43,1a3.34,3.34,0,0,1-.71,2.09h0A.68.68,0,0,1,35.41,30.56Zm0-.5ZM36,27.71s0,0-.09.08a2.83,2.83,0,0,0-.57,1.73c0,.37.08.52.11.54s0,0,.1-.08h0a2.81,2.81,0,0,0,.57-1.73A.83.83,0,0,0,36,27.71Z" style="fill:#878787"/><path d="M291.28,1.14a.56.56,0,0,0-.64.19,3.3,3.3,0,0,0-.72,2.09c0,.53.15.88.43,1a.42.42,0,0,0,.18,0,.68.68,0,0,0,.46-.22,3.32,3.32,0,0,0,.71-2.09C291.7,1.61,291.55,1.26,291.28,1.14Zm-.64,2.73h0a.44.44,0,0,1-.1.08s-.12-.17-.12-.53A2.87,2.87,0,0,1,291,1.68l.1-.07s.11.16.11.53A2.87,2.87,0,0,1,290.64,3.87Z" style="fill:#878787"/><path d="M291.28,27.25a.56.56,0,0,0-.64.19,3.29,3.29,0,0,0-.72,2.08c0,.54.15.89.43,1a.66.66,0,0,0,.18,0,.68.68,0,0,0,.46-.22,3.34,3.34,0,0,0,.71-2.09C291.7,27.72,291.55,27.37,291.28,27.25ZM290.64,30h0a.44.44,0,0,1-.1.08s-.12-.17-.12-.54a2.83,2.83,0,0,1,.57-1.73c.06-.06.1-.07.1-.08a.86.86,0,0,1,.11.54A2.87,2.87,0,0,1,290.64,30Z" style="fill:#878787"/><path d="M292,3.57a9.54,9.54,0,0,0,.29-1.9c0-.23-.12-1.39-.75-1.63a.93.93,0,0,0-1,.34l-32.92,19a.1.1,0,0,0-.05,0c-2.64,2.64-2.36,4.65-2.35,4.7v1.68H36.92V3.57a9.14,9.14,0,0,0,.3-1.9c0-.23-.13-1.39-.75-1.63a.94.94,0,0,0-1,.34l-32.92,19,0,0C-.12,22.05.17,24.06.18,24.11V52.74L.1,52.8a.25.25,0,0,0-.09.28.26.26,0,0,0,.24.17H3.68a6.7,6.7,0,0,0,1.44,2.41,5.08,5.08,0,0,0,3.8,1.53H247.37c2.8,0,4.27-1.95,5-3.94h3.12a.2.2,0,0,0,.13,0l35.27-21.56.05,0,.07-.07a.2.2,0,0,0,.13.09.23.23,0,0,0,.25-.06c1.21-1.21.92-4.19.6-4.9ZM.67,24.07s-.23-1.85,2.18-4.28L35.77.8l0,0c.2-.2.36-.29.47-.25s.4.75.43,1.17a9.22,9.22,0,0,1-.29,1.79.13.13,0,0,0,0,.06v23.2a.2.2,0,0,0,0,.13c.21.34.54,3-.33,4.17h0a.62.62,0,0,0-.57.21L6.79,48.81H3.25a.26.26,0,0,0-.25.24,13.68,13.68,0,0,0,.13,2L.68,52.55Zm.64,28.68,1.91-1.17a11.08,11.08,0,0,0,.29,1.17Zm246.06,3.94H8.92a4.63,4.63,0,0,1-3.44-1.37c-1.8-1.87-2-5.1-2-6H252.77C252.68,50.64,252,56.69,247.37,56.69Zm7.92-3.94H252.6a14,14,0,0,0,.68-3.68.24.24,0,0,0-.07-.18.25.25,0,0,0-.18-.08H7.75L35.83,31.65s0,0,0,0l.08-.07s0,0,0,0l0,0s0,0,.07,0h.07l219.14,0Zm0-21.64-218.65,0a6.36,6.36,0,0,0,.28-4.48v-.31l.1-.07H255.29Zm36.28-4.25c.21.34.55,3-.32,4.17h0a.6.6,0,0,0-.57.21L255.79,52.55V24.07s-.24-1.85,2.18-4.28L290.88.8l.05,0c.2-.2.37-.29.47-.25s.41.75.44,1.17a9.73,9.73,0,0,1-.3,1.79V26.73A.28.28,0,0,0,291.57,26.86Z" style="fill:#878787"/></svg>