<svg xmlns="http://www.w3.org/2000/svg" width="259.66" height="114.39" viewBox="0 0 259.66 114.39"><title>panel-3-90</title><path d="M258.55,107.32V4.53a7.34,7.34,0,0,0,.71-2.84c0-1.1-.78-1.74-1.22-1.3-.18.18-3.2,1.59-3.2,1.59l.24,112.16s2.86-1.68,3-1.78a4.13,4.13,0,0,0,1.37-3.13A2.21,2.21,0,0,0,258.55,107.32ZM257.89,3.87c-.37.37-.66.16-.66-.47a2.92,2.92,0,0,1,.66-1.82c.37-.36.66-.15.66.48A2.87,2.87,0,0,1,257.89,3.87Z" style="fill:#504f4e"/><path d="M4.32,1C4.09.36,3.55.05,3.21.39,3,.57.25,2.16.25,2.16V114.32H255.08L254.84,2.16H4.41L254.84,2,257.23.83Z" style="fill:#504f4e"/><path d="M259.66,109.23a2.58,2.58,0,0,0-.85-2V4.59a7.6,7.6,0,0,0,.7-2.9,1.74,1.74,0,0,0-.85-1.63.71.71,0,0,0-.79.14,6.38,6.38,0,0,1-.7.38L4.49.77A1.32,1.32,0,0,0,3.83.06.7.7,0,0,0,3,.21C2.91.32,1.7,1,.5,1.73H.25A.25.25,0,0,0,0,2v.18H0v112a.25.25,0,0,0,.06.15s0,0,0,0,0,0,0,0a.17.17,0,0,0,.12,0H255.08a.19.19,0,0,0,.12,0c1.92-1.12,2.94-1.73,3-1.81l-.18-.18.2.15A4.35,4.35,0,0,0,259.66,109.23ZM3.64.52a.73.73,0,0,1,.25.2l0,.05H3.1a2,2,0,0,0,.29-.2A.2.2,0,0,1,3.64.52ZM.5,113.89V2.41l254.09-.18.11,51.5.13,60.16ZM254.78,1.73H1.59l.87-.46,253.67-.19Zm3.13,110.42,0,0c-.15.11-1.51.92-2.55,1.53l0-5.69L255.09,2.14c.67-.31,1.55-.73,2.21-1.07h0a6.13,6.13,0,0,0,.88-.49.2.2,0,0,1,.25,0A1.28,1.28,0,0,1,259,1.69a7.11,7.11,0,0,1-.68,2.73.2.2,0,0,0,0,.11V107.32a.26.26,0,0,0,.11.21,2,2,0,0,1,.74,1.7A3.91,3.91,0,0,1,257.91,112.15Z" style="fill:#878787"/><path d="M258.41,1.19a.64.64,0,0,0-.7.21,3.2,3.2,0,0,0-.73,2c0,.61.24.81.39.87a.48.48,0,0,0,.18,0,.73.73,0,0,0,.52-.25,3.14,3.14,0,0,0,.74-2C258.81,1.45,258.56,1.25,258.41,1.19Zm-.69,2.5h0a.54.54,0,0,1-.15.11.69.69,0,0,1-.08-.41,2.69,2.69,0,0,1,.59-1.64.42.42,0,0,1,.15-.11.66.66,0,0,1,.09.41A2.64,2.64,0,0,1,257.72,3.69Z"/></svg>