<svg xmlns="http://www.w3.org/2000/svg" width="292.35" height="52.12" viewBox="0 0 292.35 52.12"><title>singleshelf-36-90</title><path d="M291.8,15.31V3.75a9.61,9.61,0,0,0,.3-1.85S292-.52,290.86.65l-34,20.09V51.87l34-19.83c1.18-1.18,1.24-3.67,1.24-3.67a3.33,3.33,0,0,0-.3-1.24Zm-1,15.47c-.35.36-.64.07-.64-.64a3.12,3.12,0,0,1,.64-1.92c.36-.36.64-.07.64.64A3.06,3.06,0,0,1,290.79,30.78Zm0-26.61c-.35.36-.64.07-.64-.64a3.18,3.18,0,0,1,.64-1.93c.36-.35.64-.07.64.65A3.06,3.06,0,0,1,290.79,4.17Z" style="fill:#e6e6eb"/><path d="M36.78.91c-.16-.5-.47-.88-1.09-.26l-34,20.09h0V51.87L35.69,32c1.18-1.18,1.24-3.67,1.24-3.67a3.33,3.33,0,0,0-.3-1.24v-.85H255.42V20.74l34-19.83ZM35.62,30.78c-.35.36-.64.07-.64-.64a3.12,3.12,0,0,1,.64-1.92c.36-.36.64-.07.64.64A3.06,3.06,0,0,1,35.62,30.78Z" style="fill:#504f4e"/><path d="M1.68,26.19V51.78L35.69,32c1.18-1.18,1.24-3.67,1.24-3.67a3.4,3.4,0,0,0-.3-1.25v-.84H1.68Zm33.94,4.5c-.35.36-.64.07-.64-.64a3.18,3.18,0,0,1,.64-1.93c.36-.35.64-.07.64.65A3.06,3.06,0,0,1,35.62,30.69Z" style="fill:#e6e6eb"/><polygon points="1.68 51.87 1.68 37.34 1.68 35.77 1.68 26.25 1.68 20.74 0.25 20.74 0.25 51.87 1.68 51.87" style="fill:#e6e6eb"/><path d="M34.92.51.25,20.74H1.69L35.62.91h.49l.22-.58S35.36.07,34.92.51Z" style="fill:#e6e6eb"/><rect x="255.42" y="20.74" width="1.43" height="31.13" style="fill:#e6e6eb"/><path d="M290.09.51,255.42,20.74h1.74L290.86.83a.88.88,0,0,1,.57-.32l.07-.18S290.53.07,290.09.51Z" style="fill:#e6e6eb"/><path d="M36.09,27.85a.56.56,0,0,0-.64.19,3.35,3.35,0,0,0-.72,2.1c0,.54.15.9.43,1a.4.4,0,0,0,.18,0A.66.66,0,0,0,35.8,31h0a3.37,3.37,0,0,0,.71-2.1C36.51,28.32,36.36,28,36.09,27.85Zm-.64,2.76c-.06.06-.1.07-.1.08a.84.84,0,0,1-.12-.55,2.9,2.9,0,0,1,.57-1.75c.06-.06.1-.07.1-.08s.11.17.11.55A3,3,0,0,1,35.45,30.61Z" style="fill:#666675"/><path d="M268.9,15.69a2.83,2.83,0,0,0-.58,1.74c0,.63.26.89.58.57a2.8,2.8,0,0,0,.58-1.73C269.48,15.63,269.22,15.37,268.9,15.69Z" style="fill:#666675"/><path d="M291.26,1.24a.56.56,0,0,0-.64.19,3.29,3.29,0,0,0-.72,2.1c0,.54.15.89.43,1a.42.42,0,0,0,.18,0,.68.68,0,0,0,.46-.22h0a3.39,3.39,0,0,0,.71-2.1C291.68,1.71,291.53,1.35,291.26,1.24ZM290.61,4c-.05.06-.09.07-.09.08a.84.84,0,0,1-.12-.55A2.9,2.9,0,0,1,291,1.78a.58.58,0,0,1,.1-.08s.11.17.11.55A2.94,2.94,0,0,1,290.61,4Z" style="fill:#666675"/><path d="M291.26,27.85a.56.56,0,0,0-.64.19,3.29,3.29,0,0,0-.72,2.1c0,.54.15.9.43,1a.4.4,0,0,0,.18,0A.66.66,0,0,0,291,31h0a3.37,3.37,0,0,0,.71-2.1C291.68,28.32,291.53,28,291.26,27.85Zm-.64,2.76c-.06.06-.1.07-.1.08a.84.84,0,0,1-.12-.55,2.9,2.9,0,0,1,.57-1.75c.06-.06.1-.07.1-.08s.11.17.11.55A3,3,0,0,1,290.62,30.61Z" style="fill:#666675"/><path d="M259.54,21.48a2.82,2.82,0,0,0-.58,1.73c0,.64.26.9.58.58a2.8,2.8,0,0,0,.58-1.73C260.12,21.42,259.86,21.16,259.54,21.48Z" style="fill:#666675"/><path d="M278.26,9.9a2.83,2.83,0,0,0-.58,1.74c0,.64.26.89.58.57a2.8,2.8,0,0,0,.58-1.73C278.84,9.84,278.58,9.58,278.26,9.9Z" style="fill:#666675"/><path d="M287.62,4.12A2.8,2.8,0,0,0,287,5.85c0,.64.26.9.58.58a2.83,2.83,0,0,0,.57-1.74C288.19,4.05,287.94,3.8,287.62,4.12Z" style="fill:#666675"/><path d="M292.05,3.78a10,10,0,0,0,.3-1.89c0-.25-.07-1.52-.69-1.77h-.07s0,0,0,0a2,2,0,0,0-1.63.21l-.61.36H37a1,1,0,0,0-.46-.54h-.06s0,0,0,0A2,2,0,0,0,34.77.3L.12,20.52l0,0,0,.05a.13.13,0,0,0,0,.1l0,0V51.87a.25.25,0,0,0,.25.25H1.68l.12,0,34-19.83,0,0c1.23-1.24,1.31-3.74,1.31-3.86a3.88,3.88,0,0,0-.3-1.3v-.53H255.17V51.87a.25.25,0,0,0,.25.25h1.43l.12,0,34-19.83.05,0c1.23-1.24,1.31-3.74,1.31-3.86a3.88,3.88,0,0,0-.3-1.3ZM1.43,26.28V51.62H.5V21h.93Zm.18-5.79H1.18L35.05.72l.05,0a.6.6,0,0,1,.3-.14ZM35.54,31.84,1.93,51.44V26.53H36.38v.6a.24.24,0,0,0,0,.12,3,3,0,0,1,.27,1.11S36.61,30.74,35.54,31.84ZM255.17,26H1.93V21H255.17Zm.18-5.54H2.6L35.69,1.16H288.47Zm1.25,31.13h-.93V21h.93Zm.18-31.13h-.43L289.56,1.13s0,0,0,0l.62-.36,0,0a.56.56,0,0,1,.3-.14Zm34.8,6.76a3,3,0,0,1,.27,1.11s-.07,2.38-1.14,3.48L257.1,51.44V20.88L291,.87l.05,0c.18-.19.35-.28.43-.24s.36.76.38,1.3a9.73,9.73,0,0,1-.3,1.79V27.13A.24.24,0,0,0,291.58,27.25Z" style="fill:#878787"/></svg>