<svg xmlns="http://www.w3.org/2000/svg" width="223.82" height="132.38" viewBox="0 0 223.82 132.38"><title>cabinet_3d-36-65.5</title><path d="M36.65,2.61A10.3,10.3,0,0,0,36.83,0s-.47,0-1.59,0L0,20.41v112H1.38L35.24,112c1.58-1.58,1.41-1.76,1.41-3.49V2.61Z" style="fill:#e6e6eb"/><path d="M222.45,0V0s-.47,0-1.59,0L185.62,20.41v112H187L222.23,112c.81-.81.87-1.08.87-2.81V4.42C224.34,3.18,223.88-.4,222.45,0Zm-.12,3.76h0a.58.58,0,0,1-.12.11s-.17-.16-.21-.62a3.22,3.22,0,0,1,.42-2,.35.35,0,0,1,.12-.11s.17.15.22.61A3.29,3.29,0,0,1,222.33,3.8Z" style="fill:#e6e6eb"/><path d="M36.61,112c.89-.89.87-1.08.87-2.81V4.42C38.9,3,38.1-1.45,36.18.48L1.38,20.41v112Z" style="fill:#fff"/><path d="M36.59,4.41l-.14,0c-.3-.09-.51-.46-.57-1A3.72,3.72,0,0,1,36.41,1a.61.61,0,0,1,.66-.28c.3.09.51.46.57,1a3.71,3.71,0,0,1-.54,2.38A.64.64,0,0,1,36.59,4.41Zm.34-3.24s-.06,0-.13.11a3.29,3.29,0,0,0-.42,2c0,.46.18.61.21.62a.43.43,0,0,0,.12-.11h0a3.24,3.24,0,0,0,.43-2C37.09,1.32,37,1.18,36.93,1.17Z"/><line y1="20.41" x2="1.38" y2="20.41" style="fill:#fff"/><path d="M222.21,4.41l-.14,0c-.31-.09-.51-.46-.57-1A3.79,3.79,0,0,1,222,1a.63.63,0,0,1,.67-.28c.3.09.5.46.57,1a3.71,3.71,0,0,1-.54,2.38A.67.67,0,0,1,222.21,4.41Zm.33-3.24a.35.35,0,0,0-.12.11,3.22,3.22,0,0,0-.42,2c0,.46.18.61.21.62s0,0,.12-.11h0a3.3,3.3,0,0,0,.43-2C222.71,1.32,222.58,1.18,222.54,1.17Z" style="fill:#666675"/><line x1="185.62" y1="20.41" x2="186.99" y2="20.41" style="fill:#fff"/><rect x="1.38" y="26.08" width="184.24" height="100.64" style="fill:#787878"/><polygon points="36.74 0.01 1.38 20.41 1.38 26.08 185.62 26.08 185.62 20.41 220.86 0.04 36.74 0.01" style="fill:#d9c38f"/><rect x="1.38" y="126.71" width="184.24" height="5.67" style="fill:#d9c38f"/><path d="M107.09,35.07H80.68a1.36,1.36,0,0,1-1.45-1.54V28.82s.43-1.54-1.44-1.54H3.65c-1.44,0-1.45,1.54-1.45,1.54V57.5S2.21,59,3.65,59H183.3a1.45,1.45,0,0,0,1.45-1.54V28.82c0-1.73-1.45-1.54-1.45-1.54H109.91c-1.37,0-1.38,1.54-1.38,1.54v4.71A1.38,1.38,0,0,1,107.09,35.07Z" style="fill:#504f4e"/><path d="M107.09,68.51H80.68A1.36,1.36,0,0,1,79.23,67V62.26s.43-1.55-1.44-1.55H3.65c-1.44,0-1.45,1.55-1.45,1.55V90.94s0,1.54,1.45,1.54H183.3a1.45,1.45,0,0,0,1.45-1.54V62.26c0-1.73-1.45-1.55-1.45-1.55H109.91c-1.37,0-1.38,1.55-1.38,1.55V67A1.38,1.38,0,0,1,107.09,68.51Z" style="fill:#504f4e"/><path d="M107.09,102.16H80.68a1.34,1.34,0,0,1-1.45-1.51V96.06s.43-1.5-1.44-1.5H3.65a1.46,1.46,0,0,0-1.45,1.5v28a1.47,1.47,0,0,0,1.45,1.51H183.3a1.43,1.43,0,0,0,1.45-1.51V96.06c0-1.68-1.45-1.5-1.45-1.5H109.91c-1.37,0-1.38,1.5-1.38,1.5v4.59A1.36,1.36,0,0,1,107.09,102.16Z" style="fill:#504f4e"/></svg>