<svg xmlns="http://www.w3.org/2000/svg" width="223.82" height="132.38" viewBox="0 0 223.82 132.38"><title>cabinet_fdd-36-65.5</title><path d="M36.65,2.61A10.3,10.3,0,0,0,36.83,0s-.47,0-1.59,0L0,20.41v112H1.38L35.24,112c1.58-1.58,1.41-1.76,1.41-3.49V2.61Z" style="fill:#e6e6eb"/><path d="M222.45,0V0s-.47,0-1.59,0L185.62,20.41v112H187L222.23,112c.81-.81.87-1.08.87-2.81V4.42C224.34,3.18,223.88-.4,222.45,0Zm-.12,3.76h0a.58.58,0,0,1-.12.11s-.17-.16-.21-.62a3.22,3.22,0,0,1,.42-2,.35.35,0,0,1,.12-.11s.17.15.22.61A3.29,3.29,0,0,1,222.33,3.8Z" style="fill:#e6e6eb"/><path d="M36.61,112c.89-.89.87-1.08.87-2.81V4.42C38.9,3,38.1-1.45,36.18.48L1.38,20.41v112Z" style="fill:#fff"/><path d="M36.59,4.41l-.14,0c-.3-.09-.51-.46-.57-1A3.72,3.72,0,0,1,36.41,1a.61.61,0,0,1,.66-.28c.3.09.51.46.57,1a3.71,3.71,0,0,1-.54,2.38A.64.64,0,0,1,36.59,4.41Zm.34-3.24s-.06,0-.13.11a3.29,3.29,0,0,0-.42,2c0,.46.18.61.21.62a.43.43,0,0,0,.12-.11h0a3.24,3.24,0,0,0,.43-2C37.09,1.32,37,1.18,36.93,1.17Z"/><line y1="20.41" x2="1.38" y2="20.41" style="fill:#fff"/><path d="M222.21,4.41l-.14,0c-.31-.09-.51-.46-.57-1A3.79,3.79,0,0,1,222,1a.63.63,0,0,1,.67-.28c.3.09.5.46.57,1a3.71,3.71,0,0,1-.54,2.38A.67.67,0,0,1,222.21,4.41Zm.33-3.24a.35.35,0,0,0-.12.11,3.22,3.22,0,0,0-.42,2c0,.46.18.61.21.62s0,0,.12-.11h0a3.3,3.3,0,0,0,.43-2C222.71,1.32,222.58,1.18,222.54,1.17Z" style="fill:#666675"/><line x1="185.62" y1="20.41" x2="186.99" y2="20.41" style="fill:#fff"/><rect x="1.38" y="26.08" width="184.24" height="100.64" style="fill:#787878"/><polygon points="36.74 0.01 1.38 20.41 1.38 26.08 185.62 26.08 185.62 20.41 220.86 0.04 36.74 0.01" style="fill:#d9c38f"/><rect x="1.38" y="126.71" width="184.24" height="5.67" style="fill:#d9c38f"/><path d="M3.59,126.23H183.4a1.4,1.4,0,0,0,1.46-1.47V28.55a1.3,1.3,0,0,0-1.46-1.47H3.59a1.45,1.45,0,0,0-1.46,1.47v96.21A1.45,1.45,0,0,0,3.59,126.23Z" style="fill:#504f4e"/><path d="M93.5,42.24a4.4,4.4,0,1,1,4.39-4.4A4.4,4.4,0,0,1,93.5,42.24Z" style="fill:#666675"/><path d="M93.5,40.9a3.06,3.06,0,1,1,3.06-3.06A3.06,3.06,0,0,1,93.5,40.9Z" style="fill:#e6e6eb"/><path d="M178.06,33.51s-6.78-1.07-12.23,5.78c-3.76,4.73-3.63,8.18-3.63,8.18h-3.93l6.45,7.07,6.34-7.07h-3.88a13.62,13.62,0,0,1,2.52-8.36A15.68,15.68,0,0,1,178.06,33.51Z" style="fill:#878787"/></svg>