<svg xmlns="http://www.w3.org/2000/svg" width="222.84" height="52.29" viewBox="0 0 222.84 52.29"><title>doubleshelf-36-65.5</title><path d="M222.29,15.31V3.75a9.61,9.61,0,0,0,.3-1.85s-.06-2.42-1.24-1.25l-34,20.26V26.5l-1.43-.05V20.91l34-20H36.75C36.6.41,36.29,0,35.67.65l-34,20.26h0V52H185.93V46.5l1.43-.84V52l34-20c1.18-1.18,1.24-3.67,1.24-3.67a3.33,3.33,0,0,0-.3-1.24Zm-1,15.47c-.35.36-.64.07-.64-.64a3.12,3.12,0,0,1,.64-1.92c.36-.36.64-.07.64.64A3.06,3.06,0,0,1,221.28,30.78Zm0-26.61c-.35.36-.64.07-.64-.64a3.18,3.18,0,0,1,.64-1.93c.36-.35.64-.07.64.65A3.06,3.06,0,0,1,221.28,4.17Z" style="fill:#d9c38f"/><path d="M34.9.51.25,20.91h0V52H1.68V46.58l34-20.09-34-.07V20.91L35.6.86h.51l.2-.53S35.34.07,34.9.51Z" style="fill:#e6e6eb"/><path d="M222.29,15.33V3.76a9.5,9.5,0,0,0,.3-1.85s0-1.49-.63-1.56h0s-1-.27-1.42.17L185.94,20.91h0l0,0h0V52h1.43v0l34-20c1.18-1.18,1.24-3.68,1.24-3.68a3.37,3.37,0,0,0-.3-1.24Zm-34.94,5.58,8.39-5-8.38,5v0Zm33.93,9.89c-.35.35-.64.07-.64-.64a3.16,3.16,0,0,1,.64-1.93c.36-.35.64-.07.64.64A3.12,3.12,0,0,1,221.28,30.8Zm0-26.61c-.35.35-.64.06-.64-.64a3.13,3.13,0,0,1,.64-1.93c.36-.36.64-.07.64.64A3.12,3.12,0,0,1,221.28,4.19Z" style="fill:#e6e6eb"/><path d="M190.17,46.33a2.8,2.8,0,0,0-.58,1.73c0,.64.26.9.58.58a2.89,2.89,0,0,0,.57-1.74C190.74,46.26,190.48,46,190.17,46.33Z" style="fill:#666675"/><path d="M208.79,35.67a2.8,2.8,0,0,0-.58,1.73c0,.64.26.9.58.58a2.8,2.8,0,0,0,.58-1.73C209.37,35.61,209.11,35.35,208.79,35.67Z" style="fill:#666675"/><path d="M199.48,41a2.8,2.8,0,0,0-.58,1.73c0,.64.26.9.58.58a2.82,2.82,0,0,0,.58-1.73C200.06,40.94,199.8,40.68,199.48,41Z" style="fill:#666675"/><path d="M218.11,30.34a2.82,2.82,0,0,0-.58,1.73c0,.64.26.9.58.58a2.79,2.79,0,0,0,.57-1.73C218.68,30.28,218.43,30,218.11,30.34Z" style="fill:#666675"/><path d="M190.17,20.88a2.83,2.83,0,0,0-.58,1.74c0,.63.26.89.58.58a2.89,2.89,0,0,0,.57-1.74C190.74,20.82,190.48,20.56,190.17,20.88Z" style="fill:#666675"/><path d="M208.79,9.56a2.8,2.8,0,0,0-.58,1.73c0,.64.26.9.58.58a2.8,2.8,0,0,0,.58-1.73C209.37,9.5,209.11,9.24,208.79,9.56Z" style="fill:#666675"/><path d="M199.48,15.22A2.82,2.82,0,0,0,198.9,17c0,.64.26.9.58.58a2.8,2.8,0,0,0,.58-1.73C200.06,15.16,199.8,14.9,199.48,15.22Z" style="fill:#666675"/><path d="M218.11,3.9a2.8,2.8,0,0,0-.58,1.73c0,.64.26.9.58.58a2.82,2.82,0,0,0,.57-1.73C218.68,3.84,218.43,3.58,218.11,3.9Z" style="fill:#666675"/><path d="M221.75,1.24a.56.56,0,0,0-.64.19,3.29,3.29,0,0,0-.72,2.1c0,.54.15.89.43,1a.42.42,0,0,0,.18,0,.68.68,0,0,0,.46-.22h0a3.4,3.4,0,0,0,.71-2.11C222.17,1.71,222,1.35,221.75,1.24ZM221.11,4l-.1.07s-.12-.16-.12-.54a2.9,2.9,0,0,1,.57-1.75c.06-.06.1-.07.1-.08a.86.86,0,0,1,.11.54A3,3,0,0,1,221.11,4Z" style="fill:#666675"/><path d="M221.75,27.85a.56.56,0,0,0-.64.19,3.29,3.29,0,0,0-.72,2.1c0,.54.15.9.43,1a.4.4,0,0,0,.18,0,.66.66,0,0,0,.46-.23h0a3.37,3.37,0,0,0,.71-2.1C222.17,28.32,222,28,221.75,27.85Zm-.64,2.76c-.06.06-.1.07-.1.08a.84.84,0,0,1-.12-.55,2.9,2.9,0,0,1,.57-1.75.58.58,0,0,1,.1-.08s.11.17.11.55A3,3,0,0,1,221.11,30.61Z" style="fill:#666675"/><path d="M222.54,3.78a10,10,0,0,0,.3-1.89c0-.25-.07-1.52-.69-1.77h-.07s0,0,0,0a2,2,0,0,0-1.63.21l-.6.36H36.92a.92.92,0,0,0-.46-.54H36.4s0,0,0,0A2,2,0,0,0,34.75.3L.12,20.7s0,0,0,0l0,.05a.19.19,0,0,0,0,.1s0,0,0,0V52a.25.25,0,0,0,.25.25H187.36a.31.31,0,0,0,.13,0l34-20,.05,0c1.23-1.24,1.31-3.74,1.31-3.86a3.88,3.88,0,0,0-.3-1.3ZM1.43,26.45V51.79H.5V21.16h.93Zm.18-5.79H1.17L35,.72l0,0a.56.56,0,0,1,.3-.14Zm.32,6H34.77L1.93,46.07ZM185.68,51.79H1.93v-5H185.68Zm0-5.54H2.59l33.08-19.5h150Zm0-20H1.93v-5H185.68Zm.18-5.54H2.61l.09,0h0l33-19.44H219Zm1.25,31.13h-.93V21.16h.93Zm.19-31.13h-.44L220.05,1.13s0,0,0,0l.62-.37,0,0a.6.6,0,0,1,.3-.14Zm34.77,6.59a3,3,0,0,1,.27,1.11s-.07,2.38-1.14,3.48L187.61,51.6V21.05L221.53.83c.19-.19.35-.28.43-.24s.37.76.38,1.3a8.93,8.93,0,0,1-.3,1.79V27.13A.24.24,0,0,0,222.07,27.25Z" style="fill:#878787"/></svg>