<svg xmlns="http://www.w3.org/2000/svg" width="286.41" height="53.74" viewBox="0 0 286.41 53.74"><title>metalshelf-30-90</title><path d="M285.86,15V3.51a9.46,9.46,0,0,0,.3-1.84S286-.6,284.83.56L257.7,16.13c-2.58,2.57-2.27,4.52-2.27,4.52V26H31.14l-.45.35V3.51A8.64,8.64,0,0,0,31,1.67S30.84-.6,29.67.56L2.54,16.13C0,18.7.26,20.65.26,20.65V49.2l3.61-.06c.68,2,2.11,4,5.08,4H247.44c2.75,0,4.17-2,4.9-3.93h3.09l29.46-17.79c.38-.38.45,0,.45,0,1.17-1.17.78-4.23.52-4.66ZM29.72,30.14c-.35.35-.64.07-.64-.64a3.12,3.12,0,0,1,.64-1.91c.35-.34.64-.06.64.64A3.09,3.09,0,0,1,29.72,30.14ZM29.72,4c-.35.35-.64.07-.64-.64a3.12,3.12,0,0,1,.64-1.91c.35-.34.64-.06.64.64A3.09,3.09,0,0,1,29.72,4ZM284.89,30.14c-.36.35-.64.07-.64-.64a3.06,3.06,0,0,1,.64-1.91c.35-.34.64-.06.64.64A3.09,3.09,0,0,1,284.89,30.14Zm0-26.11c-.36.35-.64.07-.64-.64a3.06,3.06,0,0,1,.64-1.91c.35-.34.64-.06.64.64A3.09,3.09,0,0,1,284.89,4Z" style="fill:#504f4e"/><line x1="255.42" y1="31.35" x2="30.17" y2="31.39" style="fill:#fff"/><path d="M286.11,3.57a9.14,9.14,0,0,0,.3-1.9c0-.23-.13-1.39-.75-1.63a.94.94,0,0,0-1,.34l-27.1,15.55a.1.1,0,0,0-.05,0c-2.64,2.64-2.36,4.65-2.35,4.7v5.11h-224a.22.22,0,0,0-.15.06l0,0V3.57a9.14,9.14,0,0,0,.3-1.9c0-.23-.12-1.39-.75-1.63-.3-.11-.62,0-1,.34L2.41,15.93a.1.1,0,0,0-.05,0C-.28,18.61,0,20.62,0,20.67V49.56l0,0s0,0,0,0v0a.13.13,0,0,0,.06.07l0,0h0l.12,0H3.72a6.56,6.56,0,0,0,1.44,2.41A5,5,0,0,0,9,53.74H247.44c2.8,0,4.27-1.94,5.05-3.93h2.94a.22.22,0,0,0,.13,0L285,31.64l0,0,.08-.07a.18.18,0,0,0,.13.09.24.24,0,0,0,.25-.06c1.21-1.21.92-4.19.59-4.9ZM30.94,26.5l.29-.22h224V31.1l-224.52,0a6.28,6.28,0,0,0,.28-4.47ZM.51,20.63s-.24-1.86,2.18-4.28L29.79.8l.05,0c.2-.2.37-.29.47-.25s.4.75.43,1.17a9.22,9.22,0,0,1-.29,1.79s0,0,0,.06v23.2a.33.33,0,0,0,0,.13c.21.34.55,3-.32,4.17h0a.6.6,0,0,0-.57.21l-23,14.14H3.29a.25.25,0,0,0-.25.24,10.77,10.77,0,0,0,.11,1.88L.51,49.11Zm.64,28.68L3.24,48a9.62,9.62,0,0,0,.31,1.29Zm246.29,3.93H9a4.57,4.57,0,0,1-3.43-1.37c-1.8-1.86-2-5.09-2-6h249.3C252.75,47.2,252.1,53.24,247.44,53.24Zm5.91-7.61a.23.23,0,0,0-.07-.18.25.25,0,0,0-.18-.08H7.54L29.85,31.64l0,0,.07-.07,0,0,0,0s0,0,.07,0,0,0,0,0h0l225,0V49.31h-2.51A14.07,14.07,0,0,0,253.35,45.63Zm32.3-18.77c.21.34.54,3-.33,4.17h0a.62.62,0,0,0-.57.21L255.68,49.11V20.63s-.24-1.86,2.18-4.28L285,.8l.05,0c.2-.2.36-.29.47-.25s.4.75.43,1.17a9.22,9.22,0,0,1-.29,1.79.13.13,0,0,0,0,.06v23.2A.22.22,0,0,0,285.65,26.86Z" style="fill:#878787"/><path d="M285.35,1.14a.57.57,0,0,0-.64.19A3.29,3.29,0,0,0,284,3.41c0,.54.15.89.42,1a.84.84,0,0,0,.18,0,.68.68,0,0,0,.47-.22,3.38,3.38,0,0,0,.71-2.09C285.78,1.61,285.63,1.26,285.35,1.14Zm-.64,2.73h0c-.06.06-.09.08-.1.08s-.11-.17-.11-.54a2.86,2.86,0,0,1,.57-1.73.39.39,0,0,1,.09-.07s.12.16.12.53A2.81,2.81,0,0,1,284.71,3.87Z" style="fill:#878787"/><path d="M285.35,27.25a.57.57,0,0,0-.64.19,3.29,3.29,0,0,0-.71,2.08c0,.54.15.89.42,1a.48.48,0,0,0,.18,0,.66.66,0,0,0,.47-.23,3.35,3.35,0,0,0,.71-2.08C285.78,27.72,285.63,27.36,285.35,27.25ZM284.71,30h0c-.06.06-.09.08-.1.08s-.11-.17-.11-.54a2.83,2.83,0,0,1,.57-1.73c.05-.06.09-.07.09-.08a.83.83,0,0,1,.12.54A2.81,2.81,0,0,1,284.71,30Z" style="fill:#878787"/><path d="M29.26,4.42a.66.66,0,0,0,.18,0,.68.68,0,0,0,.46-.22,3.34,3.34,0,0,0,.71-2.09c0-.53-.15-.88-.42-1a.56.56,0,0,0-.64.19,3.29,3.29,0,0,0-.72,2.08C28.83,4,29,4.3,29.26,4.42Zm.64-2.74.1-.07s.11.16.11.53a2.87,2.87,0,0,1-.56,1.73h0a.44.44,0,0,1-.1.08s-.12-.17-.12-.54A2.86,2.86,0,0,1,29.9,1.68Z" style="fill:#878787"/><path d="M29.26,30.52a.4.4,0,0,0,.18,0,.66.66,0,0,0,.46-.23,3.29,3.29,0,0,0,.71-2.08c0-.53-.15-.89-.42-1a.56.56,0,0,0-.64.19,3.29,3.29,0,0,0-.72,2.08C28.83,30.06,29,30.41,29.26,30.52Zm.64-2.73a.58.58,0,0,1,.1-.08.86.86,0,0,1,.11.54A2.9,2.9,0,0,1,29.55,30h0a.44.44,0,0,1-.1.08s-.12-.17-.12-.54A2.83,2.83,0,0,1,29.9,27.79Z" style="fill:#878787"/></svg>