<svg xmlns="http://www.w3.org/2000/svg" width="241.53" height="52.15" viewBox="0 0 241.53 52.15"><title>deskshelf-55-65.5</title><path d="M241,15.31V3.75a9.61,9.61,0,0,0,.3-1.85s0-1.47-.62-1.56h0s-1-.26-1.41.18l-.69.4H55.44C55.35.62,55.21.38,55,.34h0s-1-.26-1.41.18L18.93,20.17v.77L.25,31.51v5.54H18.93V51.9h1.42V46.35h0V51.9H206L240,32c1.18-1.18,1.24-3.67,1.24-3.67a3.33,3.33,0,0,0-.3-1.24Zm-1.46,15.55a1,1,0,0,1-.19-.72,3.12,3.12,0,0,1,.64-1.92c.18-.18.34-.2.46-.08a1.08,1.08,0,0,1,.18.72,3.06,3.06,0,0,1-.64,1.92C239.8,31,239.64,31,239.52,30.86Zm.91-29.33a1.08,1.08,0,0,1,.18.72A3.06,3.06,0,0,1,240,4.17c-.17.18-.33.2-.45.08a1.05,1.05,0,0,1-.19-.72A3.18,3.18,0,0,1,240,1.6C240.15,1.43,240.31,1.41,240.43,1.53Z" style="fill:#d82001;opacity:0.2"/><path d="M208.4,20.59a2.82,2.82,0,0,0-.58,1.73c0,.64.26.9.58.58a2.8,2.8,0,0,0,.58-1.73C209,20.53,208.72,20.27,208.4,20.59Z" style="fill:#d82001;opacity:0.2"/><path d="M227.56,9.22A2.83,2.83,0,0,0,227,11c0,.64.26.89.58.57a2.8,2.8,0,0,0,.58-1.73C228.14,9.16,227.88,8.9,227.56,9.22Z" style="fill:#d82001;opacity:0.2"/><path d="M218,14.91a2.8,2.8,0,0,0-.58,1.73c0,.64.26.9.58.58a2.82,2.82,0,0,0,.58-1.73C218.56,14.85,218.3,14.59,218,14.91Z" style="fill:#d82001;opacity:0.2"/><path d="M237.14,3.54a2.82,2.82,0,0,0-.58,1.73c0,.64.26.9.58.58a2.8,2.8,0,0,0,.58-1.73C237.72,3.48,237.46,3.22,237.14,3.54Z" style="fill:#d82001;opacity:0.2"/><path d="M208.4,47.33a2.8,2.8,0,0,0-.58,1.73c0,.64.26.9.58.58a2.82,2.82,0,0,0,.58-1.73C209,47.27,208.72,47,208.4,47.33Z" style="fill:#d82001;opacity:0.2"/><path d="M227.56,36A2.83,2.83,0,0,0,227,37.7c0,.63.26.89.58.57a2.8,2.8,0,0,0,.58-1.73C228.14,35.9,227.88,35.64,227.56,36Z" style="fill:#d82001;opacity:0.2"/><path d="M218,41.65a2.8,2.8,0,0,0-.58,1.73c0,.64.26.9.58.58a2.83,2.83,0,0,0,.58-1.74C218.56,41.58,218.3,41.33,218,41.65Z" style="fill:#d82001;opacity:0.2"/><path d="M237.14,30.28a2.82,2.82,0,0,0-.58,1.73c0,.64.26.9.58.58a2.8,2.8,0,0,0,.58-1.73C237.72,30.22,237.46,30,237.14,30.28Z" style="fill:#d82001;opacity:0.2"/><path d="M240.44,1.24a.56.56,0,0,0-.64.19,3.29,3.29,0,0,0-.72,2.1c0,.54.15.89.43,1a.42.42,0,0,0,.18,0,.68.68,0,0,0,.46-.22h0a3.37,3.37,0,0,0,.71-2.1C240.86,1.71,240.71,1.35,240.44,1.24ZM239.8,4l-.1.07s-.12-.16-.12-.54a2.9,2.9,0,0,1,.57-1.75c.06-.06.1-.07.1-.08s.11.17.11.55A3,3,0,0,1,239.8,4Z" style="fill:#d82001;opacity:0.2"/><path d="M240.44,27.85a.56.56,0,0,0-.64.19,3.29,3.29,0,0,0-.72,2.1c0,.54.15.9.43,1a.4.4,0,0,0,.18,0,.66.66,0,0,0,.46-.23h0a3.37,3.37,0,0,0,.71-2.1C240.86,28.32,240.71,28,240.44,27.85Zm-.64,2.76c-.06.06-.1.07-.1.08a.84.84,0,0,1-.12-.55,2.9,2.9,0,0,1,.57-1.75c.06-.06.1-.07.1-.08s.11.17.11.55A3,3,0,0,1,239.8,30.61Z" style="fill:#d82001;opacity:0.2"/><path d="M241.23,3.78a10,10,0,0,0,.3-1.89c0-.25-.07-1.52-.69-1.77h-.05l0,0a2,2,0,0,0-1.63.21l-.61.36H55l.18-.13a.29.29,0,0,0,.09-.25.25.25,0,0,0-.18-.19A2,2,0,0,0,53.44.3L18.8,20s0,0,0,0l-.05.05a.36.36,0,0,0,0,.11s0,0,0,0v.62L.13,31.3s0,0,0,0,0,0,0,0a.17.17,0,0,0,0,.11s0,0,0,0v5.54s0,0,0,0,0,0,0,0a.43.43,0,0,0,0,.07l0,.06a.26.26,0,0,0,.12,0H18.67V51.9a.25.25,0,0,0,.25.25H206a.2.2,0,0,0,.13,0l34-19.85.05,0c1.23-1.24,1.31-3.74,1.31-3.86a3.88,3.88,0,0,0-.3-1.3ZM53.71.72l.06,0A.88.88,0,0,1,54.4.5l-.23.19h0l-34,19.23h-.34ZM19.17,20.42h.16l-.16.09Zm.93,25.94v5.29h-.93V37.3h.93ZM.5,36.8v-5H186v5Zm34.84.5L20.6,45.92V37.3Zm169,14.35H20.6v-5H204.36Zm0-5.54H21.27L36.33,37.3h150l.1,0,18-10.5Zm0-19.92L186.53,36.61V31.66l17.83-10.43Zm.12-5.64,0,.06h0L186.21,31.26H1.2L54.36,1.16h183.3Zm1.3,31.1h-.92V21h.92ZM206,20.52h-.38L238.74,1.13a.1.1,0,0,0,0,0l.62-.36,0,0a.66.66,0,0,1,.29-.14Zm34.8,6.73a3,3,0,0,1,.27,1.11s-.07,2.38-1.14,3.48L206.28,51.46V20.91l3.53-2.08,29-17.16,1.86-1A2.07,2.07,0,0,1,241,1.89a9.22,9.22,0,0,1-.29,1.79.2.2,0,0,0,0,.07V27.13A.24.24,0,0,0,240.76,27.25Z" style="fill:#d82001;opacity:0.2"/></svg>