<svg xmlns="http://www.w3.org/2000/svg" width="222.87" height="57.19" viewBox="0 0 222.87 57.19"><title>metalshelf-36-65.5</title><path d="M222.32,15V3.53a9.46,9.46,0,0,0,.3-1.84s-.16-2.27-1.33-1.11l-32.94,19c-2.58,2.57-2.28,4.52-2.28,4.52V26H36.94l-.27.2V3.53A9.46,9.46,0,0,0,37,1.69S36.81-.58,35.64.58L2.7,19.59C.12,22.17.43,24.11.43,24.11V52.87L.25,53H3.86c.67,2,2.09,3.94,5.06,3.94h169c2.76,0,4.18-2,4.9-3.94h3.28l35.27-21.56c.38-.38.45,0,.45,0,1.17-1.17.78-4.23.52-4.66ZM35.7,1.51c.35-.35.64-.07.64.63a3.09,3.09,0,0,1-.64,1.91c-.35.35-.64.07-.64-.63A3.09,3.09,0,0,1,35.7,1.51Zm0,26.1c.35-.34.64-.06.64.64a3.09,3.09,0,0,1-.64,1.91c-.35.35-.64.07-.64-.64A3.12,3.12,0,0,1,35.7,27.61Zm185.65,2.55c-.35.35-.64.07-.64-.64a3.12,3.12,0,0,1,.64-1.91c.35-.34.64-.06.64.64A3.09,3.09,0,0,1,221.35,30.16Zm0-26.11c-.35.35-.64.07-.64-.63a3.09,3.09,0,0,1,.64-1.91c.35-.35.64-.07.64.63A3.09,3.09,0,0,1,221.35,4.05Z" style="fill:#d82001;opacity:0.2"/><path d="M35.41,4.45a.48.48,0,0,1-.18,0c-.27-.12-.42-.47-.42-1a3.3,3.3,0,0,1,.71-2.09.57.57,0,0,1,.64-.19c.28.12.43.47.43,1a3.38,3.38,0,0,1-.71,2.09A.68.68,0,0,1,35.41,4.45Zm0-.49ZM36,1.61a.39.39,0,0,0-.09.07,2.87,2.87,0,0,0-.57,1.74c0,.36.08.51.11.53s0,0,.1-.08h0a2.81,2.81,0,0,0,.57-1.73C36.09,1.77,36,1.63,36,1.61Z" style="fill:#d82001;opacity:0.4"/><path d="M35.41,30.56a.84.84,0,0,1-.18,0c-.27-.12-.42-.47-.42-1a3.29,3.29,0,0,1,.71-2.08.57.57,0,0,1,.64-.19c.28.12.43.47.43,1a3.34,3.34,0,0,1-.71,2.09h0A.68.68,0,0,1,35.41,30.56Zm0-.5ZM36,27.71s0,0-.09.08a2.83,2.83,0,0,0-.57,1.73c0,.37.08.52.11.54s0,0,.1-.08h0a2.81,2.81,0,0,0,.57-1.73A.83.83,0,0,0,36,27.71Z" style="fill:#d82001;opacity:0.4"/><path d="M221.81,1.14a.57.57,0,0,0-.64.19,3.3,3.3,0,0,0-.71,2.09c0,.53.15.88.42,1a.48.48,0,0,0,.18,0,.68.68,0,0,0,.47-.22,3.38,3.38,0,0,0,.71-2.09C222.24,1.61,222.09,1.26,221.81,1.14Zm-.64,2.73h0c-.06.06-.09.08-.1.08s-.11-.17-.11-.53a2.87,2.87,0,0,1,.57-1.74l.09-.07s.12.16.12.53A2.81,2.81,0,0,1,221.17,3.87Z" style="fill:#d82001;opacity:0.4"/><path d="M221.81,27.25a.57.57,0,0,0-.64.19,3.29,3.29,0,0,0-.71,2.08c0,.54.15.89.42,1a.84.84,0,0,0,.18,0,.68.68,0,0,0,.47-.22,3.34,3.34,0,0,0,.71-2.09C222.24,27.72,222.09,27.37,221.81,27.25ZM221.17,30h0c-.06.06-.09.08-.1.08s-.11-.17-.11-.54a2.83,2.83,0,0,1,.57-1.73l.09-.08a.83.83,0,0,1,.12.54A2.81,2.81,0,0,1,221.17,30Z" style="fill:#d82001;opacity:0.4"/><path d="M222.57,3.57a9.14,9.14,0,0,0,.3-1.9c0-.23-.13-1.39-.75-1.63a.94.94,0,0,0-1,.34l-32.92,19-.05,0c-2.63,2.64-2.35,4.65-2.34,4.7v1.68H36.92V3.57a9.14,9.14,0,0,0,.3-1.9c0-.23-.13-1.39-.75-1.63a.94.94,0,0,0-1,.34l-32.92,19,0,0C-.12,22.05.17,24.06.18,24.11V52.74L.1,52.8a.25.25,0,0,0-.09.28.26.26,0,0,0,.24.17H3.68a6.7,6.7,0,0,0,1.44,2.41,5.08,5.08,0,0,0,3.8,1.53h169c2.81,0,4.28-1.95,5.06-3.94h3.12a.22.22,0,0,0,.13,0l35.27-21.56s0,0,0,0l.08-.07a.18.18,0,0,0,.13.09.24.24,0,0,0,.25-.06c1.21-1.21.92-4.19.59-4.9ZM.67,24.07s-.23-1.85,2.18-4.28L35.77.8l0,0c.2-.2.36-.29.47-.25s.4.75.43,1.17a9.22,9.22,0,0,1-.29,1.79.13.13,0,0,0,0,.06v23.2a.2.2,0,0,0,0,.13c.21.34.54,3-.33,4.17h0a.62.62,0,0,0-.57.21L6.79,48.81H3.25a.26.26,0,0,0-.25.24,13.68,13.68,0,0,0,.13,2L.68,52.55Zm.64,28.68,1.91-1.17a11.08,11.08,0,0,0,.29,1.17ZM177.9,56.69H8.92a4.63,4.63,0,0,1-3.44-1.37c-1.8-1.87-2-5.1-2-6H183.31C183.22,50.64,182.56,56.69,177.9,56.69Zm7.93-3.94h-2.7a14.27,14.27,0,0,0,.69-3.68.29.29,0,0,0-.07-.18.25.25,0,0,0-.18-.08H7.75L35.83,31.65s0,0,0,0l.08-.07s0,0,0,0l0,0s0,0,.07,0h.07l149.68,0Zm0-21.64-149.19,0a6.36,6.36,0,0,0,.28-4.48v-.31l.1-.07H185.83Zm36.28-4.25c.21.34.54,3-.32,4.17h0a.62.62,0,0,0-.57.21L186.33,52.55V24.07s-.23-1.85,2.18-4.28L221.42.8l.05,0c.2-.2.36-.29.47-.25s.4.75.43,1.17a9.22,9.22,0,0,1-.29,1.79.13.13,0,0,0,0,.06v23.2A.2.2,0,0,0,222.11,26.86Z" style="fill:#d82001;opacity:0.4"/></svg>