<svg xmlns="http://www.w3.org/2000/svg" width="222.76" height="52.01" viewBox="0 0 222.76 52.01"><title>railshelf-36-65.5</title><path d="M221.85,26.67a.11.11,0,0,1,0-.08v-23h0c1.24-1.24.42-4.38-.89-3.07l-35.5,20.51v1.48H36.64V21.08H185.42L221.29.26H36.37a.33.33,0,0,0-.14,0h-.58L13.43,13.07H6.63c-4,0-5.23,4.13-5.59,6.45a1.45,1.45,0,0,0,.07.66l-.85.49H.93l-.68.4V49.9A1.85,1.85,0,0,0,3.4,51.21L34,32.51H185.44V48.37a2.48,2.48,0,0,0,4.23,1.76l31.27-18.69C222.89,29.49,222.82,27.36,221.85,26.67Zm-.74,2.87a1.28,1.28,0,0,1,0-.28,2.1,2.1,0,0,1,.38-1.19.91.91,0,0,1,0,.27A2,2,0,0,1,221.11,29.54Zm0-26.56h0a.81.81,0,0,1,0-.29,2.14,2.14,0,0,1,.39-1.24h0a.92.92,0,0,1,0,.3A2.07,2.07,0,0,1,221.11,3Z" style="fill:#d82001;opacity:0.2"/><rect x="36.39" y="21.08" width="0.5" height="1.48" style="fill:#d82001;opacity:0.2"/><path d="M220.92,3.49a.5.5,0,0,0,.16,0,.52.52,0,0,0,.38-.19h0A2.49,2.49,0,0,0,222,1.74c0-.42-.13-.71-.36-.8a.49.49,0,0,0-.54.15,2.6,2.6,0,0,0-.54,1.6C220.57,3.11,220.69,3.39,220.92,3.49Zm.54-2h0a.92.92,0,0,1,0,.3,2.07,2.07,0,0,1-.4,1.24h0a.81.81,0,0,1,0-.29A2.14,2.14,0,0,1,221.46,1.45Z" style="fill:#d82001;opacity:0.2"/><path d="M221.65,27.56a.48.48,0,0,0-.54.15,2.48,2.48,0,0,0-.53,1.56c0,.41.12.69.35.78a.28.28,0,0,0,.15,0,.53.53,0,0,0,.38-.18,2.39,2.39,0,0,0,.53-1.55C222,27.93,221.87,27.65,221.65,27.56Zm-.54,2a1.25,1.25,0,0,1,0-.27,2,2,0,0,1,.38-1.19.82.82,0,0,1,0,.27A2,2,0,0,1,221.11,29.54Z" style="fill:#d82001;opacity:0.2"/><path d="M196.88,25.29a1.93,1.93,0,0,0-.4,1.19c0,.44.18.62.4.4a1.92,1.92,0,0,0,.39-1.19C197.27,25.25,197.1,25.07,196.88,25.29Z" style="fill:#d82001;opacity:0.2"/><path d="M196.88,22.65a1.93,1.93,0,0,0-.4,1.19c0,.44.18.62.4.4a2,2,0,0,0,.39-1.2C197.27,22.61,197.1,22.43,196.88,22.65Z" style="fill:#d82001;opacity:0.2"/><path d="M222.75,28a2,2,0,0,0-.67-1.43V3.73a2.9,2.9,0,0,0,.07-3.46A.86.86,0,0,0,221.5,0a.74.74,0,0,0-.14,0,.15.15,0,0,0-.07,0H35.65a.19.19,0,0,0-.12,0L13.36,12.82H6.63C2.45,12.82,1.18,17,.8,19.49a1.56,1.56,0,0,0,0,.57l-.69.39a.26.26,0,0,0-.12.29.3.3,0,0,0,.09.13.26.26,0,0,0-.1.2V49.9a2.06,2.06,0,0,0,1.29,1.94,2.2,2.2,0,0,0,.83.17,2,2,0,0,0,1.41-.58L34.05,32.76H185.19V48.37a2.7,2.7,0,0,0,1.68,2.52,2.78,2.78,0,0,0,1.08.22,2.58,2.58,0,0,0,1.85-.76l31.31-18.74A4.82,4.82,0,0,0,222.75,28ZM6.63,13.32H179c4.11,0,5.16,3.94,5.41,6.29a1.07,1.07,0,0,1-.27.85,1.13,1.13,0,0,1-.83.37H2.39a1.14,1.14,0,0,1-.85-.39,1.08,1.08,0,0,1-.25-.88C1.65,17.23,2.83,13.32,6.63,13.32ZM185.19,32.26H13.58a1,1,0,0,1-.87-.47c-.35-.53-.77-1.7-.77-4.26s.44-3.67.8-4.23a1.05,1.05,0,0,1,.89-.5H185.19Zm0-10H13.63a1.57,1.57,0,0,0-1.31.73,8.63,8.63,0,0,0-.88,4.5,8.86,8.86,0,0,0,.85,4.54,1.53,1.53,0,0,0,1.29.69H33.1L3.22,51A1.6,1.6,0,0,1,.5,49.9V21.21l.5-.29h.33a1.58,1.58,0,0,0,1.06.41h182.8Zm-.75-1.48,0,0a1.61,1.61,0,0,0,.4-1.24c-.28-2.51-1.41-6.73-5.91-6.73H14.37L35.72.51H220.36l-35,20.32Zm36.37,10.4L189.5,50a2.23,2.23,0,0,1-3.81-1.58V21.21L221.06.78a.1.1,0,0,0,.05,0,.74.74,0,0,1,.42-.24.34.34,0,0,1,.27.12,2.39,2.39,0,0,1-.15,2.83.24.24,0,0,0-.07.18v23a.33.33,0,0,0,.12.27,1.45,1.45,0,0,1,.55,1.13A4.32,4.32,0,0,1,220.81,31.22Z" style="fill:#d82001;opacity:0.2"/></svg>