<svg xmlns="http://www.w3.org/2000/svg" width="209.32" height="124.96" viewBox="0 0 209.32 124.96"><title>slopingshelf-22-65.5</title><path d="M208.8,15V3.63a9.27,9.27,0,0,0,.3-1.82S209,.25,207.88.25H22.22l-.31.52L.25,121.33c.1-.19,2.23-1.27,3.24-2l.62-.49c.13.3.16,0,.06.67L4,120.83a8.9,8.9,0,0,0-1.07,3.88H180l4.11-3.38.33-1.94a1.47,1.47,0,0,1,1.41-1.23H187a1.05,1.05,0,0,1,1.07,1.23l-.29,1.89,1.94,0,18.21-11.86v-.11l0,.11c1.16-1.15,1.19-3.57,1.19-3.57a3.29,3.29,0,0,0-.3-1.23Zm-.92,91.32a2.68,2.68,0,0,1-.54,1.46h0c-.05,0-.09.07-.09.08a.86.86,0,0,1-.11-.54,2.77,2.77,0,0,1,.56-1.71.32.32,0,0,1,.09-.08.54.54,0,0,1,.09.25ZM207.32,3.78h0l-.09.08a.87.87,0,0,1-.11-.53,2.92,2.92,0,0,1,.55-1.72c.06-.06.1-.07.1-.08a.84.84,0,0,1,.11.53A2.87,2.87,0,0,1,207.32,3.78Z" style="fill:#d82001;opacity:0.2"/><path d="M209,3.67a9,9,0,0,0,.3-1.88c0-.6-.37-1.73-1.41-1.78H22.22A.26.26,0,0,0,22,.13l-.3.51a.13.13,0,0,0,0,.08L.39,119.16a1.34,1.34,0,0,0-.07.27L0,121.28v0a.19.19,0,0,0,0,.18.25.25,0,0,0,.21.12.2.2,0,0,0,.13,0l3.54-2.23a.34.34,0,0,1,0,.1l-.2,1.37a9.15,9.15,0,0,0-1.08,3.91.25.25,0,0,0,.25.25H180a.23.23,0,0,0,.16-.06l4.11-3.37a.26.26,0,0,0,.09-.16l.32-1.94a1.24,1.24,0,0,1,1.17-1H187a.82.82,0,0,1,.64.27.85.85,0,0,1,.18.68l-.29,1.89a.25.25,0,0,0,.06.2.28.28,0,0,0,.2.08l1.94,0a.2.2,0,0,0,.13,0L208,109.6v0h0c1.21-1.21,1.26-3.65,1.26-3.77a3.52,3.52,0,0,0-.3-1.27ZM.59,120.84l.28-1.55A1.23,1.23,0,0,1,2,118.48H3.11a.8.8,0,0,1,.63.28s0,0,0,.06Zm2.56,3.62c.07-1.2.69-6.19,6.19-6.58H173.52c5.51.4,6.13,5.38,6.2,6.58Zm205.41-19.74a3.08,3.08,0,0,1,.26,1.09s0,2.32-1.11,3.39L189.6,121,188,121l.24-1.6a1.33,1.33,0,0,0-.3-1.08,1.29,1.29,0,0,0-1-.44h-1.12a1.73,1.73,0,0,0-1.66,1.44l-.31,1.85-3.66,3c-.16-1.58-1.09-6.43-6.66-6.83H9.33a6.64,6.64,0,0,0-5,2.43l0-.3a1.33,1.33,0,0,0-.3-1.08,1.3,1.3,0,0,0-1-.45H2a1.65,1.65,0,0,0-.93.31L22.15.86,22.36.5H207.87c.87,0,.95,1.27.95,1.29a9.07,9.07,0,0,1-.29,1.78s0,0,0,.06v101A.28.28,0,0,0,208.56,104.72Z" style="fill:#d82001;opacity:0.2"/><path d="M207,4.32a.44.44,0,0,0,.18,0,.62.62,0,0,0,.45-.23,3.26,3.26,0,0,0,.71-2.07c0-.53-.15-.88-.42-1a.56.56,0,0,0-.64.19,3.36,3.36,0,0,0-.7,2.07C206.62,3.86,206.77,4.21,207,4.32Zm.63-2.71c.06-.06.1-.07.1-.08a.84.84,0,0,1,.11.53,2.87,2.87,0,0,1-.56,1.72h0l-.09.08a.87.87,0,0,1-.11-.53A2.92,2.92,0,0,1,207.67,1.61Z" style="fill:#d82001;opacity:0.2"/><path d="M208,105.06a.56.56,0,0,0-.64.19,3.36,3.36,0,0,0-.7,2.07c0,.53.15.89.42,1a.42.42,0,0,0,.18,0,.61.61,0,0,0,.45-.22,3.26,3.26,0,0,0,.71-2.07C208.38,105.53,208.23,105.18,208,105.06Zm-.62,2.72h0c-.05,0-.09.07-.09.08a.86.86,0,0,1-.11-.54,2.77,2.77,0,0,1,.56-1.71.32.32,0,0,1,.09-.08s.11.17.11.53A2.8,2.8,0,0,1,207.34,107.78Z" style="fill:#d82001;opacity:0.2"/><path d="M205.62,1.82a.24.24,0,0,0-.28.21L188.76,116.38a.24.24,0,0,0,.21.28h0a.24.24,0,0,0,.24-.22L205.83,2.1A.24.24,0,0,0,205.62,1.82Z" style="fill:#d82001;opacity:0.2"/></svg>