<svg xmlns="http://www.w3.org/2000/svg" width="305.3" height="298.6" viewBox="0 0 305.3 298.6"><title>table-120-65.5</title><path d="M138.36,288V93.78H126V288c-3.57.91-6,2.56-6,4.46a1.64,1.64,0,0,1,0,.72c0,2.86,5.45,5.19,12.18,5.19s12.19-2.33,12.19-5.19a1.64,1.64,0,0,1,0-.72C144.41,290.53,142,288.86,138.36,288Z" style="fill:#d82001;opacity:0.2"/><path d="M305.05,1.42c0-.77-.45-1.18-1-1.15h0s-2-.33-2.18,2.12c-.08,1-1.49,12.29-2.76,17.59H119.21c0-5.94.09-16.59.09-18.55,0-.77-.45-1.18-1-1.15h0s-2-.33-2.18,2.12c-.1,1.32-.79,17.93-2.17,19.32-.79.78-21.44,12.42-21.44,12.42v.6L.25,88v5.54H184.91L279.26,39.1v.56L301.93,26l.9-.52v0l2.11-1.27S305.05,4.17,305.05,1.42ZM118.08,1c.35-.35.64-.07.64.64a3.18,3.18,0,0,1-.64,1.93c-.36.35-.65.06-.65-.64A3.1,3.1,0,0,1,118.08,1ZM303.83,3.58c-.36.35-.64.06-.64-.64A3.09,3.09,0,0,1,303.83,1c.35-.35.64-.07.64.64A3.18,3.18,0,0,1,303.83,3.58Z" style="fill:#d82001;opacity:0.2"/><path d="M117.61,4a.84.84,0,0,0,.18,0,.65.65,0,0,0,.46-.22h0A3.4,3.4,0,0,0,119,1.65c0-.53-.15-.89-.43-1a.56.56,0,0,0-.64.19,3.38,3.38,0,0,0-.72,2.11C117.18,3.47,117.34,3.83,117.61,4Zm.64-2.76a.44.44,0,0,1,.1-.08s.12.17.12.54a2.9,2.9,0,0,1-.57,1.75.44.44,0,0,1-.1.08s-.12-.17-.12-.54A2.87,2.87,0,0,1,118.25,1.19Z" style="fill:#d82001;opacity:0.4"/><path d="M304.2,0h-.08a2.18,2.18,0,0,0-1.59.41,2.56,2.56,0,0,0-.88,1.93c-.11,1.52-1.51,12.19-2.71,17.36H119.46c0-6,.09-16.38.09-18.3a1.26,1.26,0,0,0-1.1-1.4h-.08a2.18,2.18,0,0,0-1.59.41,2.56,2.56,0,0,0-.88,1.93c0,.17,0,.6-.07,1.22-.74,13.89-1.51,17.42-2,17.94S100.71,29.23,92.42,33.9a.26.26,0,0,0-.13.22v.46L.12,87.77l0,0,0,0A.18.18,0,0,0,0,88s0,0,0,0v5.54a.25.25,0,0,0,.25.25H125.77v194c-3.61.94-6,2.66-6,4.66a1.64,1.64,0,0,1,0,.72c0,3,5.46,5.44,12.43,5.44s12.44-2.39,12.44-5.44a3.11,3.11,0,0,0,0-.32,2.71,2.71,0,0,0,0-.4c0-2-2.41-3.74-6-4.68v-194h46.3a.2.2,0,0,0,.13,0l93.33-53.83h.89a.2.2,0,0,0,.13,0l25.68-15.43a.27.27,0,0,0,.12-.22c0-.2.11-20.08.11-22.8A1.26,1.26,0,0,0,304.2,0ZM302.15,2.4a2.14,2.14,0,0,1,.68-1.57L303,.76a3.41,3.41,0,0,0-.52,1.58c-.23,2.13-2.55,19-3.81,20.26l-.23.17C299.9,21.13,302.09,3.25,302.15,2.4ZM118.42.51c.38,0,.63.39.63.91,0,1.92-.06,12.32-.09,18.3h-.86a.24.24,0,0,0-.12,0l-2.67,1.54c.83-2.45,1.34-9.73,1.74-16.81.06-1.07.1-1.85.12-2.09C117.31,1.12,117.88.5,118.42.51Zm-4.27,21.37c.87-.87,1.56-6.68,2.18-18.27,0-.62.06-1,.07-1.21a2.1,2.1,0,0,1,.68-1.57l.11-.07a3.46,3.46,0,0,0-.51,1.58c0,.25-.07,1-.13,2.12-.25,4.42-.91,16.19-2,17.25h0l-1.19.69A6.83,6.83,0,0,0,114.15,21.88ZM92.79,34.27l.53-.3v0l-.53.3ZM128,292a6.92,6.92,0,0,0,4.23,1.14,6.77,6.77,0,0,0,4.32-1.21,4,4,0,0,0,2-1.51h0a1.68,1.68,0,0,1,.75,1.25c0,1.56-3.25,2.88-7.1,2.88s-7.1-1.32-7.1-2.88a1.65,1.65,0,0,1,.69-1.2A4.26,4.26,0,0,0,128,292Zm4.22,6.06c-5.2,0-9.63-1.39-11.25-3.32,2,1.85,6.21,3.1,11.25,3.1s9.3-1.26,11.27-3.11C141.87,296.7,137.44,298.1,132.22,298.1Zm11.94-5.66c0,2.72-5.35,4.94-11.94,4.94s-11.93-2.22-11.93-4.94c0-1.73,2.19-3.25,5.48-4.14v1.62a2.32,2.32,0,0,0-1.14,1.78c0,1.89,3.34,3.38,7.6,3.38s7.6-1.49,7.6-3.38a2.37,2.37,0,0,0-1.22-1.84v-1.58C141.93,289.16,144.16,290.69,144.16,292.44Zm-6-2.17c-.21.3-1.53,1.92-5.92,1.92s-5.72-1.63-5.92-1.92V93.78h11.84Zm46.55-197H.5v-5H184.66ZM278,39.52,185.16,93.1v-5L278,34.56Zm1-.59-.47.29V34.37H279Zm-.69-5.11-.15.08h0L184.84,87.74H1.18l117-67.52H298.82a6.42,6.42,0,0,1-.8,2.22.28.28,0,0,1-.08.06Zm26.37-9.74L279.51,39.22V34.27C282,32.89,298.2,23.72,299,23c1.52-1.52,3.94-20.37,4-20.56.13-1.27.71-1.89,1.24-1.88.38,0,.63.39.63.91C304.8,4,304.7,22.29,304.69,24.08Z" style="fill:#d82001;opacity:0.4"/><path d="M304.29.64a.56.56,0,0,0-.64.19,3.38,3.38,0,0,0-.71,2.11c0,.53.15.89.42,1a.84.84,0,0,0,.18,0,.65.65,0,0,0,.46-.22h0a3.4,3.4,0,0,0,.72-2.11C304.72,1.12,304.57.76,304.29.64Zm-.64,2.76a.44.44,0,0,1-.1.08s-.11-.17-.11-.54A2.94,2.94,0,0,1,304,1.19a.44.44,0,0,1,.1-.08s.12.17.12.54A2.9,2.9,0,0,1,303.65,3.4Z" style="fill:#d82001;opacity:0.4"/><path d="M287.42,31.14a2.19,2.19,0,0,0-.47,1.38c0,.51.21.71.47.46a2.25,2.25,0,0,0,.46-1.38C287.88,31.09,287.67,30.88,287.42,31.14Z" style="fill:#d82001;opacity:0.4"/><path d="M282.28,34.23a2.19,2.19,0,0,0-.47,1.38c0,.51.21.72.47.47a2.31,2.31,0,0,0,.46-1.39C282.74,34.18,282.53,34,282.28,34.23Z" style="fill:#d82001;opacity:0.4"/><path d="M297.69,25a2.25,2.25,0,0,0-.46,1.38c0,.51.21.71.46.46a2.24,2.24,0,0,0,.47-1.38C298.16,24.9,298,24.69,297.69,25Z" style="fill:#d82001;opacity:0.4"/><path d="M292.55,28a2.26,2.26,0,0,0-.46,1.39c0,.5.21.71.46.45A2.19,2.19,0,0,0,293,28.5C293,28,292.81,27.79,292.55,28Z" style="fill:#d82001;opacity:0.4"/><path d="M302.83,21.85a2.31,2.31,0,0,0-.46,1.39c0,.5.21.71.46.45a2.19,2.19,0,0,0,.46-1.38C303.29,21.81,303.09,21.6,302.83,21.85Z" style="fill:#d82001;opacity:0.4"/></svg>