<svg xmlns="http://www.w3.org/2000/svg" width="279.25" height="125.37" viewBox="0 0 279.25 125.37"><title>slopingshelf-22-90</title><path d="M278.73,15V3.63a10.24,10.24,0,0,0,.3-1.82S279,.25,277.8.25h0L22.22.67l-.31.51L.25,121.74c.1-.19,2.23-1.26,3.24-2l.62-.5c.13.3.16,0,.06.68L4,121.25a8.87,8.87,0,0,0-1.07,3.87l247-.41h0l4.11-3.38.32-1.94a1.48,1.48,0,0,1,1.42-1.23h1.12a1,1,0,0,1,1.06,1.23l-.28,1.89,1.94,0,18.2-11.86v-.11l0,.11c1.16-1.15,1.2-3.57,1.2-3.57a3.52,3.52,0,0,0-.3-1.23Zm-.93,91.32a2.68,2.68,0,0,1-.53,1.46h0l-.1.08a1,1,0,0,1-.11-.54,2.83,2.83,0,0,1,.56-1.71c.06-.06.09-.08.1-.08a.47.47,0,0,1,.08.25ZM277.25,3.78h0l-.09.08a.87.87,0,0,1-.11-.53,2.85,2.85,0,0,1,.56-1.72c0-.06.09-.07.09-.08a.84.84,0,0,1,.11.53A2.86,2.86,0,0,1,277.25,3.78Z" style="fill:#999"/><path d="M.25,121.74.6,119.8a.24.24,0,0,0,0,.09Z" style="fill:#fff"/><line x1="258.93" y1="116.42" x2="275.51" y2="2.06" style="fill:#fff"/><line x1="0.25" y1="121.77" x2="4.04" y2="119.37" style="fill:#fff"/><path d="M279,3.67a9.76,9.76,0,0,0,.3-1.88c0-.6-.37-1.73-1.41-1.78h-.08L22.22.42A.27.27,0,0,0,22,.54l-.3.52a.11.11,0,0,0,0,.08L.39,119.57a1.34,1.34,0,0,0-.07.27L0,121.7H0a.22.22,0,0,0,0,.19.27.27,0,0,0,.21.12.28.28,0,0,0,.13,0l3.54-2.24a.41.41,0,0,1,0,.11l-.2,1.36a9.22,9.22,0,0,0-1.08,3.91.25.25,0,0,0,.25.25l247-.41a.27.27,0,0,0,.16-.06l4.1-3.37a.26.26,0,0,0,.09-.16l.33-1.94a1.23,1.23,0,0,1,1.17-1h1.12a.8.8,0,0,1,.63.27.81.81,0,0,1,.18.68l-.28,1.89a.25.25,0,0,0,.06.2.26.26,0,0,0,.19.08l1.94,0a.23.23,0,0,0,.14,0l18.2-11.86,0,0h0c1.22-1.21,1.27-3.65,1.27-3.77a3.76,3.76,0,0,0-.3-1.27ZM.59,121.25l.28-1.55A1.22,1.22,0,0,1,2,118.9H3.11a.82.82,0,0,1,.63.27s0,0,0,.07Zm2.56,3.62c.07-1.2.69-6.18,6.19-6.58l234.1-.41c5.51.4,6.14,5.38,6.21,6.58Zm275.33-20.15a2.92,2.92,0,0,1,.27,1.09s-.05,2.32-1.11,3.39L259.52,121,258,121l.24-1.6a1.33,1.33,0,0,0-.3-1.08,1.3,1.3,0,0,0-1-.44h-1.12a1.74,1.74,0,0,0-1.67,1.44l-.3,1.85-3.67,3c-.15-1.58-1.09-6.43-6.65-6.83h0L9.33,117.8a6.64,6.64,0,0,0-5,2.43l0-.31a1.34,1.34,0,0,0-.3-1.08,1.32,1.32,0,0,0-1-.44H2a1.63,1.63,0,0,0-.93.3L22.15,1.27l.21-.35L277.8.5c.86,0,.95,1.27.95,1.29a10,10,0,0,1-.29,1.78.13.13,0,0,0,0,.06v101A.28.28,0,0,0,278.48,104.72Z" style="fill:#4d4d4d"/><path d="M277,4.32a.39.39,0,0,0,.17,0,.63.63,0,0,0,.46-.23,3.31,3.31,0,0,0,.7-2.07c0-.53-.14-.88-.42-1a.56.56,0,0,0-.64.19,3.36,3.36,0,0,0-.7,2.07C276.54,3.86,276.69,4.21,277,4.32Zm.63-2.71c0-.06.09-.07.09-.08a.84.84,0,0,1,.11.53,2.86,2.86,0,0,1-.55,1.72h0l-.09.08a.87.87,0,0,1-.11-.53A2.85,2.85,0,0,1,277.6,1.61Z" style="fill:#4d4d4d"/><path d="M277.89,105.06a.56.56,0,0,0-.64.19,3.3,3.3,0,0,0-.71,2.07c0,.53.15.89.42,1a.48.48,0,0,0,.18,0,.61.61,0,0,0,.46-.22,3.26,3.26,0,0,0,.71-2.07C278.31,105.53,278.16,105.18,277.89,105.06Zm-.62,2.72h0l-.1.08a1,1,0,0,1-.11-.54,2.83,2.83,0,0,1,.56-1.71c.06-.06.09-.08.1-.08s.11.17.11.53A2.87,2.87,0,0,1,277.27,107.78Z" style="fill:#4d4d4d"/><path d="M275.55,1.82a.23.23,0,0,0-.28.21L258.69,116.38a.24.24,0,0,0,.21.28h0a.26.26,0,0,0,.25-.22L275.76,2.1A.24.24,0,0,0,275.55,1.82Z" style="fill:#4d4d4d"/></svg>