<svg xmlns="http://www.w3.org/2000/svg" width="292.3" height="52.29" viewBox="0 0 292.3 52.29"><title>doubleshelf-36-90</title><path d="M291.75,15.31V3.75a9.61,9.61,0,0,0,.3-1.85S292-.52,290.82.65l-34,20.26V26.5l-1.42-.05V20.91l34-20H36.75C36.6.41,36.29,0,35.67.65l-34,20.26h0V52H255.4V46.5l1.42-.84V52l34-20c1.17-1.18,1.23-3.67,1.23-3.67a3.33,3.33,0,0,0-.3-1.24Zm-1,15.47c-.36.36-.65.07-.65-.64a3.07,3.07,0,0,1,.65-1.92c.35-.36.64-.07.64.64A3.12,3.12,0,0,1,290.75,30.78Zm0-26.61c-.36.36-.65.07-.65-.64a3.12,3.12,0,0,1,.65-1.93c.35-.35.64-.07.64.65A3.12,3.12,0,0,1,290.75,4.17Z" style="fill:#fffffa"/><path d="M34.9.51.25,20.91h0V52H1.68V46.58l34-20.09-34-.07V20.91L35.6.86h.51l.2-.53S35.34.07,34.9.51Z" style="fill:#e6e6eb"/><path d="M291.75,15.33V3.76a9.5,9.5,0,0,0,.3-1.85s0-1.49-.62-1.56h0s-1-.27-1.41.17L255.4,20.91h0l0,0h0V52h1.42v0l34-20c1.17-1.18,1.23-3.68,1.23-3.68a3.37,3.37,0,0,0-.3-1.24Zm-34.93,5.58,8.38-5-8.38,5v0Zm33.93,9.89c-.36.35-.65.07-.65-.64a3.1,3.1,0,0,1,.65-1.93c.35-.35.64-.07.64.64A3.18,3.18,0,0,1,290.75,30.8Zm0-26.61c-.36.35-.65.06-.65-.64a3.07,3.07,0,0,1,.65-1.93c.35-.36.64-.07.64.64A3.18,3.18,0,0,1,290.75,4.19Z" style="fill:#e6e6eb"/><path d="M259.63,46.33a2.8,2.8,0,0,0-.58,1.73c0,.64.26.9.58.58a2.83,2.83,0,0,0,.58-1.74C260.21,46.26,260,46,259.63,46.33Z" style="fill:#666675"/><path d="M278.26,35.67a2.8,2.8,0,0,0-.58,1.73c0,.64.26.9.58.58a2.86,2.86,0,0,0,.57-1.73C278.83,35.61,278.57,35.35,278.26,35.67Z" style="fill:#666675"/><path d="M268.94,41a2.8,2.8,0,0,0-.58,1.73c0,.64.26.9.58.58a2.82,2.82,0,0,0,.58-1.73C269.52,40.94,269.26,40.68,268.94,41Z" style="fill:#666675"/><path d="M287.57,30.34a2.82,2.82,0,0,0-.58,1.73c0,.64.26.9.58.58a2.8,2.8,0,0,0,.58-1.73C288.15,30.28,287.89,30,287.57,30.34Z" style="fill:#666675"/><path d="M259.63,20.88a2.83,2.83,0,0,0-.58,1.74c0,.63.26.89.58.58a2.83,2.83,0,0,0,.58-1.74C260.21,20.82,260,20.56,259.63,20.88Z" style="fill:#666675"/><path d="M278.26,9.56a2.8,2.8,0,0,0-.58,1.73c0,.64.26.9.58.58a2.86,2.86,0,0,0,.57-1.73C278.83,9.5,278.57,9.24,278.26,9.56Z" style="fill:#666675"/><path d="M268.94,15.22a2.82,2.82,0,0,0-.58,1.73c0,.64.26.9.58.58a2.8,2.8,0,0,0,.58-1.73C269.52,15.16,269.26,14.9,268.94,15.22Z" style="fill:#666675"/><path d="M287.57,3.9A2.8,2.8,0,0,0,287,5.63c0,.64.26.9.58.58a2.82,2.82,0,0,0,.58-1.73C288.15,3.84,287.89,3.58,287.57,3.9Z" style="fill:#666675"/><path d="M291.21,1.24a.56.56,0,0,0-.64.19,3.35,3.35,0,0,0-.72,2.1c0,.54.15.89.43,1a.45.45,0,0,0,.18,0,.66.66,0,0,0,.46-.22h0a3.4,3.4,0,0,0,.72-2.11C291.64,1.71,291.49,1.35,291.21,1.24ZM290.57,4l-.1.07s-.12-.16-.12-.54a2.9,2.9,0,0,1,.57-1.75c.06-.06.1-.07.1-.08a.83.83,0,0,1,.12.54A3,3,0,0,1,290.57,4Z" style="fill:#666675"/><path d="M291.21,27.85a.56.56,0,0,0-.64.19,3.35,3.35,0,0,0-.72,2.1c0,.54.15.9.43,1a.44.44,0,0,0,.18,0,.64.64,0,0,0,.46-.23h0a3.37,3.37,0,0,0,.72-2.1C291.64,28.32,291.49,28,291.21,27.85Zm-.64,2.76c-.06.06-.1.07-.1.08a.84.84,0,0,1-.12-.55,2.9,2.9,0,0,1,.57-1.75c.06-.06.1-.07.1-.08a.84.84,0,0,1,.12.55A2.9,2.9,0,0,1,290.57,30.61Z" style="fill:#666675"/><path d="M292,3.78a9.18,9.18,0,0,0,.3-1.89c0-.25-.07-1.52-.69-1.77h-.06l0,0a2,2,0,0,0-1.63.21l-.6.36H36.92a.92.92,0,0,0-.46-.54H36.4s0,0,0,0A2,2,0,0,0,34.75.3L.12,20.7s0,0,0,0l0,.05a.19.19,0,0,0,0,.1s0,0,0,0V52a.25.25,0,0,0,.25.25H256.82a.28.28,0,0,0,.13,0l34-20,.05,0c1.24-1.24,1.31-3.74,1.31-3.86a3.63,3.63,0,0,0-.3-1.3ZM1.43,26.45V51.79H.5V21.16h.93Zm.18-5.79H1.17L35,.72l0,0a.56.56,0,0,1,.3-.14Zm.32,6H34.77L1.93,46.07ZM255.15,51.79H1.93v-5H255.15Zm0-5.54H2.59l33.08-19.5H255.15Zm0-20H1.93v-5H255.15Zm.17-5.54H2.61l.09,0h0l33-19.44H288.44Zm1.25,31.13h-.92V21.16h.92Zm.19-31.13h-.44l33.2-19.53,0,0,.62-.37a.1.1,0,0,0,.05,0,.64.64,0,0,1,.3-.14Zm34.77,6.59a3,3,0,0,1,.27,1.11s-.07,2.38-1.14,3.48L257.07,51.6V21.05L291,.83c.19-.19.35-.28.43-.24s.37.76.38,1.3a9.33,9.33,0,0,1-.29,1.79.2.2,0,0,0,0,.07V27.13A.24.24,0,0,0,291.53,27.25Z" style="fill:#9d9d9c"/></svg>