<svg xmlns="http://www.w3.org/2000/svg" width="223.04" height="52.19" viewBox="0 0 223.04 52.19"><title>slopingshelf-36-65.5</title><path d="M222.5,14.4V3.58a10.21,10.21,0,0,0,.3-1.81s0-1.52-.81-1.52h-4.64L35.61.36,2.05,45.76a2,2,0,0,1,1-.33H4.17c.58,0,.83.42.64,1a7.94,7.94,0,0,0-2.46,5.52l176.17,0v-.06h.62l4.12-3.64,1.16-2.13a2.58,2.58,0,0,1,2-1.23h1.12c.68,0,.91.55.51,1.23l-1.1,1.76h2.91L221.61,30.7c1.15-1.15,1.19-3.55,1.19-3.55a3.48,3.48,0,0,0-.3-1.22Zm-1.33,15.24c0,.06-.09.08-.08.08s-.12-.15-.12-.52a2.83,2.83,0,0,1,.56-1.71c.05,0,.08-.07.09-.07a.83.83,0,0,1,.11.52A2.83,2.83,0,0,1,221.17,29.64Zm0-25.57a.54.54,0,0,1-.09.07.83.83,0,0,1-.11-.52,2.83,2.83,0,0,1,.56-1.71l.09-.08a.87.87,0,0,1,.11.53A2.88,2.88,0,0,1,221.17,4.07Z" style="fill:#fffffa"/><path d="M1.1,46.67.25,48.19l1.8-2.43A2.68,2.68,0,0,0,1.1,46.67Z" style="fill:#fff"/><line x1="190.55" y1="44.89" x2="220.01" y2="2.61" style="fill:#fff"/><path d="M221.81,1.37a.56.56,0,0,0-.64.19,3.28,3.28,0,0,0-.7,2.06c0,.52.15.87.42,1a.48.48,0,0,0,.18,0,.66.66,0,0,0,.46-.22h0a3.33,3.33,0,0,0,.7-2.06C222.23,1.83,222.08,1.48,221.81,1.37Zm-.64,2.7a.54.54,0,0,1-.09.07.83.83,0,0,1-.11-.52,2.83,2.83,0,0,1,.56-1.71l.09-.08a.87.87,0,0,1,.11.53A2.88,2.88,0,0,1,221.17,4.07Z" style="fill:#9d9d9c"/><path d="M221.81,27a.56.56,0,0,0-.64.19,3.3,3.3,0,0,0-.7,2.06c0,.52.15.87.42,1a.84.84,0,0,0,.18,0,.68.68,0,0,0,.46-.22,3.3,3.3,0,0,0,.7-2.06C222.23,27.42,222.08,27.07,221.81,27Zm-.64,2.69c0,.06-.09.08-.08.08s-.12-.15-.12-.52a2.83,2.83,0,0,1,.56-1.71c.05,0,.08-.07.09-.07a.83.83,0,0,1,.11.52A2.83,2.83,0,0,1,221.17,29.64Z" style="fill:#9d9d9c"/><path d="M219.8,2.47,190.34,44.74a.25.25,0,0,0,.06.35.3.3,0,0,0,.15,0,.24.24,0,0,0,.2-.11L220.21,2.76a.25.25,0,0,0-.41-.29Z" style="fill:#9d9d9c"/><path d="M222.75,3.61A9.19,9.19,0,0,0,223,1.76c0-.65-.24-1.76-1-1.76h-4.64L35.61.11a.28.28,0,0,0-.2.1L1.89,45.55a2.9,2.9,0,0,0-1,1L0,48.07a.25.25,0,0,0,.08.33.25.25,0,0,0,.34-.06l1.78-2.41a1.84,1.84,0,0,1,.82-.25H4.17a.44.44,0,0,1,.41.18.54.54,0,0,1,0,.43A8.37,8.37,0,0,0,2.1,51.92a.25.25,0,0,0,.25.25l176.16,0a.22.22,0,0,0,.13-.06h.49a.23.23,0,0,0,.16-.06l4.13-3.64a.18.18,0,0,0,.05-.07l1.16-2.12a2.33,2.33,0,0,1,1.73-1.11h1.12a.46.46,0,0,1,.41.17.72.72,0,0,1-.11.68l-1.11,1.76a.25.25,0,0,0,0,.25.24.24,0,0,0,.22.13h2.91l.12,0,31.81-17.17.06,0C223,29.67,223,27.25,223,27.13a3.65,3.65,0,0,0-.29-1.27ZM2.61,51.67c.07-1.19.69-6.14,6.15-6.53l163.34,0c5.46.39,6.08,5.33,6.16,6.53ZM222.29,26.06a3,3,0,0,1,.25,1.08,5.87,5.87,0,0,1-1.08,3.36L189.73,47.62h-2.39l.87-1.38a1.21,1.21,0,0,0,.11-1.19.9.9,0,0,0-.84-.42h-1.12A2.81,2.81,0,0,0,184.19,46l-1.14,2.1-4,3.54h-.28c-.1-1.32-.86-6.56-6.63-7h0l-163.35,0A7.08,7.08,0,0,0,5.1,45.86.58.58,0,0,0,5,45.61a.91.91,0,0,0-.84-.43H3.05l-.29,0,33-44.6L217.35.51H222c.44,0,.55,1,.55,1.26a9.37,9.37,0,0,1-.28,1.75.17.17,0,0,0,0,.07V25.93A.22.22,0,0,0,222.29,26.06Z" style="fill:#9d9d9c"/></svg>