<svg xmlns="http://www.w3.org/2000/svg" width="265.99" height="275.93" viewBox="0 0 265.99 275.93"><title>table-80-65.5</title><path d="M119.72,264.59c-6.73,0-12.19,2.33-12.19,5.19a1.32,1.32,0,0,1,0,.72c0,2.86,5.46,5.18,12.19,5.18s12.19-2.32,12.19-5.18a1.64,1.64,0,0,1,0-.72C131.91,266.92,126.45,264.59,119.72,264.59Z" style="fill:#e6e6eb"/><path d="M79.07.27h0s-2-.34-2.18,2.11c-.1,1.32-.79,17.93-2.18,19.32-.78.78-21.43,12.42-21.43,12.42v5.54l1-.59v.59L79.92,24S80,4.17,80,1.42C80,.65,79.58.24,79.07.27Zm-.26,3.31c-.35.35-.64.07-.64-.64A3.16,3.16,0,0,1,78.81,1c.35-.35.64-.07.64.64A3.18,3.18,0,0,1,78.81,3.58Z" style="fill:#e6e6eb"/><path d="M79.28.64a.58.58,0,0,0-.65.19,3.4,3.4,0,0,0-.71,2.11c0,.53.15.89.42,1a.48.48,0,0,0,.18,0A.68.68,0,0,0,79,3.76h0a3.4,3.4,0,0,0,.71-2.11C79.7,1.12,79.55.76,79.28.64ZM78.63,3.4l-.09.08s-.12-.17-.12-.54A2.9,2.9,0,0,1,79,1.19l.09-.08s.12.17.12.54A2.9,2.9,0,0,1,78.63,3.4Z" style="fill:#666675"/><path d="M79.18,0h-.07a2.2,2.2,0,0,0-1.6.41,2.56,2.56,0,0,0-.87,1.93c0,.17,0,.59-.07,1.2-.74,13.91-1.52,17.44-2,18S61.44,29.23,53.15,33.9a.27.27,0,0,0-.12.22v.75l.5-.29v-.31l.53-.3a.2.2,0,0,0-.06.15v.19L75.91,21.66c.91-2,1.46-9.72,1.87-17.18.06-1.07.1-1.85.13-2.09C78,1.15,78.61.51,79.13.51h0c.37,0,.63.39.63.91,0,2-.06,12.61-.1,18.55h.5c0-5.94.1-16.6.1-18.55A1.26,1.26,0,0,0,79.18,0ZM77.41,2.34c0,.25-.07,1-.13,2.11-.25,4.43-.9,16.2-2,17.26-.43.43-7.88,4.69-15,8.73,6.13-3.49,14.09-8.06,14.6-8.56.87-.87,1.56-6.68,2.18-18.29,0-.61.05-1,.06-1.19A2.14,2.14,0,0,1,77.81.83l.11-.06A3.41,3.41,0,0,0,77.41,2.34Z" style="fill:#666675"/><path d="M53.53,34.58v-.21h.35l.58-.33a.23.23,0,0,0-.21-.17h-1a.25.25,0,0,0-.25.25v.75Z" style="fill:#666675"/><path d="M125.85,265v.52c3.47.87,5.81,2.44,5.81,4.23,0,2.72-5.36,4.94-11.94,4.94s-11.94-2.22-11.94-4.94c0-1.78,2.3-3.34,5.73-4.21v-.52c-3.74.93-6.23,2.68-6.23,4.73,0,.12,0,.24,0,.36s0,.24,0,.36c0,3.05,5.47,5.43,12.44,5.43s12.44-2.38,12.44-5.43a1.88,1.88,0,0,0,0-.33,1.74,1.74,0,0,0,0-.39C132.16,267.71,129.64,266,125.85,265Zm-6.13,10.4c-5.21,0-9.63-1.39-11.25-3.31,2,1.84,6.21,3.1,11.25,3.1S129,274,131,272.11C129.37,274,124.94,275.43,119.72,275.43Z" style="fill:#666675"/><path d="M126.82,269c0,1.56-3.24,2.87-7.09,2.87s-7.1-1.31-7.1-2.87a1.8,1.8,0,0,1,.88-1.37v-.59a2.46,2.46,0,0,0-1.38,2c0,1.89,3.34,3.37,7.6,3.37s7.59-1.48,7.59-3.37a2.51,2.51,0,0,0-1.47-2v.59A1.85,1.85,0,0,1,126.82,269Z" style="fill:#666675"/><path d="M119.73,270.51c2.31,0,4.18-.69,4.71-1.66a7,7,0,0,1-1.41.53,7.86,7.86,0,0,1-3.3.63,8.15,8.15,0,0,1-3.2-.57,7.61,7.61,0,0,1-1.46-.52C115.65,269.85,117.48,270.51,119.73,270.51Z" style="fill:#666675"/><polygon points="125.85 70.87 184.91 70.87 263.57 25.51 263.57 19.97 78.84 19.97 0.25 65.33 0.25 70.87 113.51 70.87 125.85 70.87" style="fill:#fffffa"/><path d="M125.85,70.88v196.8s-1.11,2.1-6.17,2.1-6.17-2.1-6.17-2.1V70.87Z" style="fill:#e6e6eb"/><path d="M113.26,71.12V267.68a.27.27,0,0,0,0,.12c0,.09,1.24,2.23,6.39,2.23s6.35-2.14,6.39-2.23a.27.27,0,0,0,0-.12V71.12ZM125.6,267.61c-.2.3-1.52,1.92-5.92,1.92s-5.72-1.63-5.92-1.92V71.12H125.6Z" style="fill:#666675"/><path d="M126.1,71.12h58.81a.2.2,0,0,0,.13,0l54.19-31.26v-.3l-.25.18v-.3l-53.82,31v-5l53.82-31v-.28s19.12-10.72,19.9-11.5a1.46,1.46,0,0,0,.26-.43l-74.3,42.85H1.18L78.9,20.22H259.77l.12-.5h-181a.28.28,0,0,0-.13,0L.12,65.11l0,0a.1.1,0,0,0,0,0,.18.18,0,0,0,0,.1.05.05,0,0,0,0,0v5.54a.25.25,0,0,0,.25.25h113m71.4-.5H.5v-5H184.66Z" style="fill:#9d9d9c"/><path d="M264.77.31h0s-2-.33-2.18,2.12c-.1,1.32-2.32,18.85-3.71,20.24-.78.78-19.9,11.5-19.9,11.5V39.7l1-.59v.59l25.67-15.44s.12-20,.12-22.8C265.74.69,265.28.28,264.77.31Zm-.26,3.31c-.35.35-.64.06-.64-.64a3.16,3.16,0,0,1,.64-1.93c.36-.35.65-.07.65.64A3.12,3.12,0,0,1,264.51,3.62Z" style="fill:#e6e6eb"/><path d="M264.89.05h-.08a2.2,2.2,0,0,0-1.6.41,2.59,2.59,0,0,0-.87,1.93c-.14,1.93-2.39,18.83-3.63,20.08-.56.55-12.18,7.16-19.85,11.46l0,0s0,0,0,0a.21.21,0,0,0-.07.15V39.7h0a.26.26,0,0,0,.07.16l0,0,0,0,.12,0h1a.2.2,0,0,0,.13,0l25.67-15.43a.25.25,0,0,0,.12-.22c0-.2.12-20.08.12-22.8A1.27,1.27,0,0,0,264.89.05ZM239.7,39.46h-.47V34.41h.47Zm23.14-37a2.06,2.06,0,0,1,.68-1.56.39.39,0,0,1,.14-.08,3.3,3.3,0,0,0-.54,1.59c-.23,2.13-2.55,19-3.81,20.26l-.23.17C260.6,21.16,262.78,3.29,262.84,2.43Zm2.54,21.69L240.2,39.26V34.31c2.44-1.38,18.69-10.55,19.46-11.32,1.52-1.52,3.93-20.37,3.95-20.56.14-1.27.71-1.91,1.25-1.88.38,0,.63.39.63.91C265.49,4.05,265.38,22.32,265.38,24.12Z" style="fill:#666675"/><path d="M265,.68a.56.56,0,0,0-.64.19A3.38,3.38,0,0,0,263.62,3c0,.53.15.89.43,1a.44.44,0,0,0,.18,0,.64.64,0,0,0,.46-.23h0a3.35,3.35,0,0,0,.72-2.1C265.41,1.15,265.25.8,265,.68Zm-.64,2.76c-.06.06-.1.07-.1.08s-.12-.17-.12-.54a2.87,2.87,0,0,1,.57-1.75.44.44,0,0,1,.1-.08s.12.17.12.54A2.9,2.9,0,0,1,264.34,3.44Z" style="fill:#666675"/><path d="M248.1,31.18a2.25,2.25,0,0,0-.46,1.38c0,.51.21.71.46.46a2.19,2.19,0,0,0,.46-1.38C248.56,31.13,248.36,30.92,248.1,31.18Z" style="fill:#666675"/><path d="M243,34.27a2.19,2.19,0,0,0-.47,1.38c0,.51.21.72.47.46a2.25,2.25,0,0,0,.45-1.38C243.42,34.22,243.22,34,243,34.27Z" style="fill:#666675"/><path d="M258.38,25a2.25,2.25,0,0,0-.46,1.38c0,.51.21.71.46.46a2.24,2.24,0,0,0,.46-1.38C258.84,24.94,258.64,24.73,258.38,25Z" style="fill:#666675"/><path d="M253.24,28.08a2.25,2.25,0,0,0-.46,1.38c0,.51.21.72.46.46a2.19,2.19,0,0,0,.46-1.38C253.7,28,253.5,27.83,253.24,28.08Z" style="fill:#666675"/><path d="M263.52,21.89a2.3,2.3,0,0,0-.46,1.38c0,.51.21.72.46.46a2.19,2.19,0,0,0,.46-1.38C264,21.84,263.78,21.64,263.52,21.89Z" style="fill:#666675"/></svg>