<svg xmlns="http://www.w3.org/2000/svg" width="311.13" height="52.15" viewBox="0 0 311.13 52.15"><title>deskshelf-55-90</title><path d="M310.58,15.31V3.75a9.61,9.61,0,0,0,.3-1.85V1.83c0-.29-.11-1.41-.61-1.49h0s-1-.26-1.41.18l-.7.4H55.44C55.35.62,55.21.38,55,.34h0s-1-.26-1.41.18L18.93,20.17v.77L.25,31.51v5.54H18.93V51.9H275.64l34-19.86c1.18-1.18,1.23-3.67,1.23-3.67a3.33,3.33,0,0,0-.3-1.24Zm-.36-13.06a3.12,3.12,0,0,1-.64,1.92l-.13.11c-.29.17-.51-.13-.51-.75a3.12,3.12,0,0,1,.64-1.93.41.41,0,0,1,.13-.1C310,1.33,310.22,1.62,310.22,2.25Zm-1.28,27.89a3.06,3.06,0,0,1,.64-1.92.45.45,0,0,1,.13-.11c.29-.17.51.13.51.75a3.12,3.12,0,0,1-.64,1.92l-.13.11C309.16,31.06,308.94,30.76,308.94,30.14Z" style="fill:#52d7fd;opacity:0.2"/><path d="M278,20.59a2.82,2.82,0,0,0-.58,1.73c0,.64.26.9.58.58a2.86,2.86,0,0,0,.57-1.73C278.58,20.53,278.32,20.27,278,20.59Z" style="fill:#52d7fd;opacity:0.4"/><path d="M297.16,9.22a2.89,2.89,0,0,0-.57,1.74c0,.64.26.89.57.57a2.8,2.8,0,0,0,.58-1.73C297.74,9.16,297.48,8.9,297.16,9.22Z" style="fill:#52d7fd;opacity:0.4"/><path d="M287.59,14.91a2.8,2.8,0,0,0-.58,1.73c0,.64.26.9.58.58a2.88,2.88,0,0,0,.57-1.73C288.16,14.85,287.9,14.59,287.59,14.91Z" style="fill:#52d7fd;opacity:0.4"/><path d="M306.74,3.54a2.82,2.82,0,0,0-.57,1.73c0,.64.25.9.57.58a2.8,2.8,0,0,0,.58-1.73C307.32,3.48,307.06,3.22,306.74,3.54Z" style="fill:#52d7fd;opacity:0.4"/><path d="M278,47.33a2.8,2.8,0,0,0-.58,1.73c0,.64.26.9.58.58a2.88,2.88,0,0,0,.57-1.73C278.58,47.27,278.32,47,278,47.33Z" style="fill:#52d7fd;opacity:0.4"/><path d="M297.16,36a2.89,2.89,0,0,0-.57,1.74c0,.63.26.89.57.57a2.8,2.8,0,0,0,.58-1.73C297.74,35.9,297.48,35.64,297.16,36Z" style="fill:#52d7fd;opacity:0.4"/><path d="M287.59,41.65a2.8,2.8,0,0,0-.58,1.73c0,.64.26.9.58.58a2.89,2.89,0,0,0,.57-1.74C288.16,41.58,287.9,41.33,287.59,41.65Z" style="fill:#52d7fd;opacity:0.4"/><path d="M306.74,30.28a2.82,2.82,0,0,0-.57,1.73c0,.64.25.9.57.58a2.8,2.8,0,0,0,.58-1.73C307.32,30.22,307.06,30,306.74,30.28Z" style="fill:#52d7fd;opacity:0.4"/><path d="M310,1.24a.56.56,0,0,0-.64.19,3.35,3.35,0,0,0-.71,2.1c0,.54.15.89.42,1a.48.48,0,0,0,.18,0,.65.65,0,0,0,.46-.22h0a3.37,3.37,0,0,0,.71-2.1C310.47,1.71,310.32,1.35,310,1.24ZM309.4,4l-.1.07s-.11-.16-.11-.54a3,3,0,0,1,.56-1.75c.06-.06.1-.07.1-.08a.84.84,0,0,1,.12.55A2.92,2.92,0,0,1,309.4,4Z" style="fill:#52d7fd;opacity:0.4"/><path d="M310,27.85a.56.56,0,0,0-.64.19,3.35,3.35,0,0,0-.71,2.1c0,.54.15.9.42,1a.48.48,0,0,0,.18,0,.63.63,0,0,0,.46-.23h0a3.37,3.37,0,0,0,.71-2.1C310.47,28.32,310.32,28,310,27.85Zm-.64,2.76c-.06.06-.1.07-.1.08s-.11-.17-.11-.55a3,3,0,0,1,.56-1.75c.06-.06.1-.07.1-.08a.84.84,0,0,1,.12.55A2.9,2.9,0,0,1,309.4,30.61Z" style="fill:#52d7fd;opacity:0.4"/><path d="M310.83,3.78a9.18,9.18,0,0,0,.3-1.89c0-.25-.06-1.52-.69-1.77h-.05s0,0,0,0a1.93,1.93,0,0,0-1.62.21l-.61.36H55l.18-.13a.29.29,0,0,0,.09-.25.25.25,0,0,0-.18-.19A2,2,0,0,0,53.44.3L18.8,20s0,0,0,0l-.05.05a.36.36,0,0,0,0,.11s0,0,0,0v.62L.13,31.3s0,0,0,0,0,0,0,0a.17.17,0,0,0,0,.11s0,0,0,0v5.54s0,0,0,0,0,0,0,0a.43.43,0,0,0,0,.07l0,.06a.26.26,0,0,0,.12,0H18.67V51.9a.25.25,0,0,0,.25.25H275.64a.19.19,0,0,0,.12,0l34-19.85.05,0c1.24-1.24,1.31-3.74,1.31-3.86a3.63,3.63,0,0,0-.3-1.3ZM53.71.72l.06,0A.88.88,0,0,1,54.4.5l-.23.19h0l-34,19.23h-.34ZM19.17,20.42h.16l-.16.09Zm.93,25.94v5.29h-.93V37.3h.93ZM.5,36.8v-5H255.63v5Zm34.84.5L20.6,45.92V37.3ZM274,51.65H20.6v-5H274Zm0-5.54H21.27L36.33,37.3H255.9l.11,0L274,26.77Zm0-19.92L256.13,36.61V31.66L274,21.23Zm.13-5.64-.06.06h0l-18.2,10.64H1.2L54.36,1.16h252.9Zm1.3,31.1h-.93V21h.93Zm.18-31.13h-.39L308.35,1.13s0,0,0,0L309,.72a.1.1,0,0,0,.05,0,.7.7,0,0,1,.3-.14Zm34.8,6.73a3.18,3.18,0,0,1,.26,1.11s-.06,2.38-1.14,3.48l-33.6,19.62V20.91l3.52-2.08,29-17.16,1.87-1a2.15,2.15,0,0,1,.34,1.27,9.22,9.22,0,0,1-.29,1.79.2.2,0,0,0,0,.07V27.13A.17.17,0,0,0,310.37,27.25Z" style="fill:#52d7fd;opacity:0.4"/></svg>