<svg xmlns="http://www.w3.org/2000/svg" width="216.91" height="53.74" viewBox="0 0 216.91 53.74"><title>metalshelf-30-65.5</title><path d="M216.36,15V3.53a9.46,9.46,0,0,0,.3-1.84S216.5-.58,215.33.58L188.2,16.15c-2.58,2.57-2.27,4.52-2.27,4.52V26H31.14l-.45.35V3.53A8.64,8.64,0,0,0,31,1.69S30.84-.58,29.67.58L2.54,16.15C0,18.72.26,20.67.26,20.67V49.56H3.89c.67,2,2.09,3.93,5.06,3.93h169c2.76,0,4.17-2,4.9-3.93h3.09l29.46-18.13c.38-.38.45,0,.45,0,1.17-1.17.78-4.23.52-4.66ZM29.72,30.16c-.35.35-.64.07-.64-.64a3.12,3.12,0,0,1,.64-1.91c.35-.34.64-.06.64.64A3.09,3.09,0,0,1,29.72,30.16Zm0-26.11c-.35.35-.64.07-.64-.64a3.06,3.06,0,0,1,.64-1.9c.35-.35.64-.07.64.63A3.09,3.09,0,0,1,29.72,4.05ZM215.39,30.16c-.35.35-.64.07-.64-.64a3.12,3.12,0,0,1,.64-1.91c.35-.34.64-.06.64.64A3.09,3.09,0,0,1,215.39,30.16Zm0-26.11c-.35.35-.64.07-.64-.64a3.06,3.06,0,0,1,.64-1.9c.35-.35.64-.07.64.63A3.09,3.09,0,0,1,215.39,4.05Z" style="fill:#52d7fd;opacity:0.2"/><path d="M216.61,3.57a9.14,9.14,0,0,0,.3-1.9c0-.23-.13-1.39-.75-1.63a.94.94,0,0,0-1,.34l-27.1,15.55a.1.1,0,0,0-.05,0c-2.64,2.64-2.36,4.65-2.35,4.7v5.11H31.14a.22.22,0,0,0-.15.06l0,0V3.57a9.14,9.14,0,0,0,.3-1.9c0-.23-.12-1.39-.75-1.63-.3-.11-.62,0-1,.34L2.41,15.93a.1.1,0,0,0-.05,0C-.28,18.61,0,20.62,0,20.67V49.56l0,0s0,0,0,0v0a.13.13,0,0,0,.06.07l0,0h0l.12,0H3.72a6.56,6.56,0,0,0,1.44,2.41A5,5,0,0,0,9,53.74h169c2.8,0,4.27-1.94,5.05-3.93h2.94a.2.2,0,0,0,.13,0l29.46-18.13,0,0,.08-.07a.18.18,0,0,0,.13.09.24.24,0,0,0,.25-.06c1.21-1.21.92-4.19.59-4.9ZM30.94,26.5l.29-.22H185.68V31.1l-155,0a6.28,6.28,0,0,0,.28-4.47ZM.51,20.63s-.24-1.86,2.18-4.28L29.79.8l.05,0c.2-.2.37-.29.47-.25s.4.75.43,1.17a9.22,9.22,0,0,1-.29,1.79s0,0,0,.06v23.2a.33.33,0,0,0,0,.13c.21.34.55,3-.32,4.17h0a.6.6,0,0,0-.57.21l-23,14.14H3.29a.25.25,0,0,0-.25.24,10.77,10.77,0,0,0,.11,1.88L.51,49.11Zm.64,28.68L3.24,48a9.62,9.62,0,0,0,.31,1.29Zm176.79,3.93H9a4.57,4.57,0,0,1-3.43-1.37c-1.8-1.86-2-5.09-2-6h179.8C183.25,47.2,182.6,53.24,177.94,53.24Zm5.91-7.61a.23.23,0,0,0-.07-.18.23.23,0,0,0-.18-.08H7.54L29.85,31.64l0,0,.07-.07,0,0,0,0s0,0,.07,0,0,0,0,0h0l155.51,0V49.31h-2.51A14.07,14.07,0,0,0,183.85,45.63Zm32.3-18.77c.21.34.54,3-.32,4.17h0a.62.62,0,0,0-.57.21l-29,17.88V20.63s-.24-1.86,2.18-4.28L215.46.8l0,0c.2-.2.37-.29.47-.25s.4.75.43,1.17a9.22,9.22,0,0,1-.29,1.79.13.13,0,0,0,0,.06v23.2A.22.22,0,0,0,216.15,26.86Z" style="fill:#52d7fd;opacity:0.4"/><path d="M215.85,1.14a.57.57,0,0,0-.64.19,3.29,3.29,0,0,0-.71,2.08c0,.54.15.89.42,1a.84.84,0,0,0,.18,0,.68.68,0,0,0,.47-.22,3.38,3.38,0,0,0,.71-2.09C216.28,1.61,216.13,1.26,215.85,1.14Zm-.64,2.73h0c-.06.06-.09.08-.1.08s-.11-.17-.11-.54a2.86,2.86,0,0,1,.57-1.73.39.39,0,0,1,.09-.07s.12.16.12.53A2.81,2.81,0,0,1,215.21,3.87Z" style="fill:#52d7fd;opacity:0.4"/><path d="M215.85,27.25a.57.57,0,0,0-.64.19,3.29,3.29,0,0,0-.71,2.08c0,.54.15.89.42,1a.48.48,0,0,0,.18,0,.66.66,0,0,0,.47-.23,3.35,3.35,0,0,0,.71-2.08C216.28,27.72,216.13,27.36,215.85,27.25ZM215.21,30h0c-.06.06-.09.08-.1.08s-.11-.17-.11-.54a2.83,2.83,0,0,1,.57-1.73c.05-.06.09-.07.09-.08a.83.83,0,0,1,.12.54A2.81,2.81,0,0,1,215.21,30Z" style="fill:#52d7fd;opacity:0.4"/><path d="M29.26,4.42a.66.66,0,0,0,.18,0,.68.68,0,0,0,.46-.22,3.34,3.34,0,0,0,.71-2.09c0-.53-.15-.88-.42-1a.56.56,0,0,0-.64.19,3.29,3.29,0,0,0-.72,2.08C28.83,4,29,4.3,29.26,4.42Zm.64-2.74.1-.07s.11.16.11.53a2.87,2.87,0,0,1-.56,1.73h0a.44.44,0,0,1-.1.08s-.12-.17-.12-.54A2.86,2.86,0,0,1,29.9,1.68Z" style="fill:#fec34f;opacity:0.4"/><path d="M29.26,30.52a.4.4,0,0,0,.18,0,.66.66,0,0,0,.46-.23,3.29,3.29,0,0,0,.71-2.08c0-.53-.15-.89-.42-1a.56.56,0,0,0-.64.19,3.29,3.29,0,0,0-.72,2.08C28.83,30.06,29,30.41,29.26,30.52Zm.64-2.73a.58.58,0,0,1,.1-.08.86.86,0,0,1,.11.54A2.9,2.9,0,0,1,29.55,30h0a.44.44,0,0,1-.1.08s-.12-.17-.12-.54A2.83,2.83,0,0,1,29.9,27.79Z" style="fill:#fec34f;opacity:0.4"/></svg>