<svg xmlns="http://www.w3.org/2000/svg" width="292.25" height="52.01" viewBox="0 0 292.25 52.01"><title>railshelf-36-90</title><path d="M291.34,26.67s0-.05,0-.08v-23h0c1.24-1.24.42-4.38-.89-3.07l-35.5,20.51v1.48H36.64V21.08H254.9L290.78.26H36.37a.33.33,0,0,0-.14,0h-.58L13.43,13.07H6.63c-4,0-5.23,4.13-5.59,6.45a1.45,1.45,0,0,0,.07.66l-.86.49H.93l-.68.4V49.9a1.84,1.84,0,0,0,3.14,1.31L34,32.51H254.93V48.37a2.48,2.48,0,0,0,4.23,1.76l31.27-18.69C292.37,29.49,292.31,27.36,291.34,26.67Zm-.74,2.87a.85.85,0,0,1,0-.28,2,2,0,0,1,.38-1.19.91.91,0,0,1,0,.27A2.05,2.05,0,0,1,290.6,29.54ZM290.6,3h0a1.31,1.31,0,0,1,0-.29A2.07,2.07,0,0,1,291,1.45h0a.92.92,0,0,1,0,.3A2.07,2.07,0,0,1,290.6,3Z" style="fill:#52d7fd;opacity:0.2"/><rect x="36.39" y="21.08" width="0.5" height="1.48" style="fill:#d82001;opacity:0.2"/><path d="M290.41,3.49a.5.5,0,0,0,.16,0,.52.52,0,0,0,.38-.19h0a2.49,2.49,0,0,0,.55-1.59c0-.42-.13-.71-.36-.8a.49.49,0,0,0-.54.15,2.54,2.54,0,0,0-.54,1.6C290.06,3.11,290.18,3.39,290.41,3.49Zm.54-2h0a.92.92,0,0,1,0,.3A2.07,2.07,0,0,1,290.6,3h0a1.31,1.31,0,0,1,0-.29A2.07,2.07,0,0,1,291,1.45Z" style="fill:#52d7fd;opacity:0.4"/><path d="M291.13,27.56a.47.47,0,0,0-.53.15,2.48,2.48,0,0,0-.53,1.56c0,.41.12.69.35.78a.28.28,0,0,0,.15,0,.54.54,0,0,0,.38-.18,2.45,2.45,0,0,0,.53-1.55C291.48,27.93,291.36,27.65,291.13,27.56Zm-.53,2a.82.82,0,0,1,0-.27,2,2,0,0,1,.38-1.19.82.82,0,0,1,0,.27A2,2,0,0,1,290.6,29.54Z" style="fill:#52d7fd;opacity:0.4"/><path d="M266.37,25.29a1.93,1.93,0,0,0-.4,1.19c0,.44.18.62.4.4a1.92,1.92,0,0,0,.39-1.19C266.76,25.25,266.59,25.07,266.37,25.29Z" style="fill:#52d7fd;opacity:0.4"/><path d="M266.37,22.65a1.93,1.93,0,0,0-.4,1.19c0,.44.18.62.4.4a2,2,0,0,0,.39-1.2C266.76,22.61,266.59,22.43,266.37,22.65Z" style="fill:#52d7fd;opacity:0.4"/><path d="M292.24,28a2,2,0,0,0-.67-1.43V3.73a2.91,2.91,0,0,0,.07-3.46A.87.87,0,0,0,291,0a.93.93,0,0,0-.13,0l-.07,0H35.65a.19.19,0,0,0-.12,0L13.36,12.82H6.63C2.45,12.82,1.18,17,.8,19.49a1.56,1.56,0,0,0,0,.57l-.69.39a.26.26,0,0,0-.12.29.3.3,0,0,0,.09.13.26.26,0,0,0-.1.2V49.9a2.06,2.06,0,0,0,1.29,1.94,2.2,2.2,0,0,0,.83.17,2,2,0,0,0,1.41-.58L34.05,32.76H254.68V48.37a2.7,2.7,0,0,0,1.68,2.52,2.78,2.78,0,0,0,1.08.22,2.58,2.58,0,0,0,1.85-.76L290.6,31.61A4.82,4.82,0,0,0,292.24,28ZM6.63,13.32H248.45c4.11,0,5.15,3.94,5.41,6.29a1.07,1.07,0,0,1-.27.85,1.13,1.13,0,0,1-.83.37H2.39a1.14,1.14,0,0,1-.85-.39,1.08,1.08,0,0,1-.25-.88C1.65,17.23,2.83,13.32,6.63,13.32ZM254.68,32.26H13.58a1,1,0,0,1-.87-.47c-.35-.53-.77-1.7-.77-4.26s.44-3.67.8-4.23a1.05,1.05,0,0,1,.89-.5H254.68Zm0-10h-241a1.57,1.57,0,0,0-1.31.73,8.63,8.63,0,0,0-.88,4.5,8.86,8.86,0,0,0,.85,4.54,1.53,1.53,0,0,0,1.29.69H33.1L3.22,51A1.6,1.6,0,0,1,.5,49.9V21.21l.5-.29h.33a1.58,1.58,0,0,0,1.06.41H254.68Zm-.76-1.48,0,0a1.61,1.61,0,0,0,.4-1.24c-.28-2.51-1.41-6.73-5.91-6.73H14.37L35.72.51H289.85l-35,20.32Zm36.38,10.4L259,50a2.23,2.23,0,0,1-3.81-1.58V21.21L290.55.78a.1.1,0,0,0,.05,0A.74.74,0,0,1,291,.5a.36.36,0,0,1,.27.12,2.4,2.4,0,0,1-.15,2.83.24.24,0,0,0-.07.18v23a.3.3,0,0,0,.12.27,1.48,1.48,0,0,1,.55,1.13A4.32,4.32,0,0,1,290.3,31.22Z" style="fill:#52d7fd;opacity:0.4"/></svg>