<svg xmlns="http://www.w3.org/2000/svg" xmlns:xlink="http://www.w3.org/1999/xlink" width="5.74mm" height="13.84mm" viewBox="0 0 16.27 39.23"><defs><clipPath id="a"><path d="M11.63,28.12A4,4,0,0,1,10,24.88c0-1.27.73-1.87,1.63-1.36a4.07,4.07,0,0,1,1.62,3.24C13.25,28,12.52,28.63,11.63,28.12Z" style="fill:none"/></clipPath><clipPath id="b"><path d="M8.12,30.15A4,4,0,0,1,6.5,26.92c0-1.27.73-1.88,1.62-1.36a4,4,0,0,1,1.63,3.23C9.75,30.06,9,30.67,8.12,30.15Z" style="fill:none"/></clipPath><clipPath id="c"><path d="M4.21,32.09a4,4,0,0,1-1.63-3.24c0-1.27.73-1.87,1.63-1.36a4.07,4.07,0,0,1,1.62,3.24C5.83,32,5.1,32.6,4.21,32.09Z" style="fill:none"/></clipPath></defs><title>Etrack</title><polygon points="7.09 35.5 11.71 37.78 12.59 37.25 12.58 34.73 15.12 36.18 16.12 35.77 15.54 4.74 8.29 0.49 1.7 4.58 5.12 24.33 6.7 32.35 7.09 35.5" style="fill:#fff"/><polygon points="16.15 35.77 15.27 36.29 15.27 5.25 16.15 4.73 16.15 35.77" style="fill:#fff"/><path d="M15.33,36.4l-.19-.11v-31l.06-.1.88-.53.19.11v31l-.06.11Zm.06-31.08V36.07L16,35.7V5Z"/><path d="M15.21,36.38l-.87-.49.12-.22.87.5Zm-1.74-1-.86-.5.12-.22.87.5Z"/><line x1="11.71" y1="10.14" x2="11.71" y2="19.79" style="fill:#fff"/><rect x="11.58" y="10.14" width="0.25" height="9.65"/><rect x="4.46" y="3.19" width="0.25" height="3.08"/><polyline points="11.71 34.75 11.7 26.57 9.03 25.03" style="fill:#fff"/><polygon points="11.58 34.75 11.57 26.64 8.97 25.14 9.1 24.92 11.76 26.46 11.82 26.57 11.83 34.75 11.58 34.75"/><line x1="11.71" y1="19.73" x2="9.02" y2="18.18" style="fill:#fff"/><rect x="10.24" y="17.4" width="0.25" height="3.1" transform="translate(-11.23 18.46) rotate(-60.03)"/><polygon points="11.73 19.74 4.59 15.6 4.59 3.18 11.73 7.32 11.73 19.74" style="fill:#fff"/><path d="M11.67,19.83,4.54,15.69l-.06-.09V3.18l.17-.09,7.13,4.14.06.09V19.74Zm-7-4.3,6.92,4V7.39l-6.92-4Z"/><polygon points="11.73 19.73 4.6 15.59 4.6 3.18 11.73 7.32 11.73 19.73" style="fill:#fff"/><path d="M11.68,19.82,4.54,15.68l0-.09V3.18l.16-.09,7.14,4.14.06.09V19.73Zm-7-4.3,6.91,4V7.39l-6.91-4Z"/><path d="M12.24,28.42a1.29,1.29,0,0,1-.68-.2,4.15,4.15,0,0,1-1.68-3.34,1.69,1.69,0,0,1,.66-1.54,1.12,1.12,0,0,1,1.15.08,4.15,4.15,0,0,1,1.68,3.34,1.7,1.7,0,0,1-.66,1.54A.94.94,0,0,1,12.24,28.42Zm-1.23-5a.64.64,0,0,0-.35.1,1.46,1.46,0,0,0-.53,1.32A3.92,3.92,0,0,0,11.69,28a.87.87,0,0,0,.9.07,1.46,1.46,0,0,0,.53-1.32,3.92,3.92,0,0,0-1.56-3.13A1.13,1.13,0,0,0,11,23.46Z"/><g style="clip-path:url(#a)"><path d="M13,28a1.39,1.39,0,0,1-.68-.2,4.19,4.19,0,0,1-1.69-3.34,1.72,1.72,0,0,1,.66-1.55,1.12,1.12,0,0,1,1.15.08,4.19,4.19,0,0,1,1.69,3.34,1.69,1.69,0,0,1-.66,1.54A.88.88,0,0,1,13,28Zm-1.23-5a.7.7,0,0,0-.35.09,1.48,1.48,0,0,0-.54,1.33,3.91,3.91,0,0,0,1.56,3.12.89.89,0,0,0,.91.08,1.48,1.48,0,0,0,.53-1.33,3.88,3.88,0,0,0-1.56-3.12A1.06,1.06,0,0,0,11.75,23Z"/></g><polygon points="12.6 19.29 12.6 6.8 11.71 7.31 11.71 19.79 12.6 19.29" style="fill:#fff"/><path d="M11.77,19.9l-.19-.11V7.31l.06-.11.9-.51.18.11V19.29l-.07.11Zm.06-12.52v12.2l.65-.36V7Z"/><polygon points="11.7 37.57 4.56 33.43 4.56 22.41 11.7 26.55 11.7 37.57" style="fill:#fff"/><polyline points="9.03 25.03 11.7 26.57 12.59 26.07 9.05 24.02" style="fill:#fff"/><polygon points="11.76 26.68 11.64 26.68 8.97 25.14 9.1 24.92 11.7 26.43 12.33 26.06 8.98 24.12 9.11 23.91 12.65 25.96 12.65 26.17 11.76 26.68"/><polygon points="11.7 26.57 12.59 26.07 12.59 37.25 11.71 37.78 11.7 26.57" style="fill:#fff"/><path d="M11.77,37.89l-.19-.11V26.57l.07-.11.88-.5.19.11V37.25l-.06.11Zm.05-11.25V37.56l.63-.38V26.28Z"/><path d="M8.74,30.46a1.39,1.39,0,0,1-.68-.2h0a4.19,4.19,0,0,1-1.69-3.34A1.69,1.69,0,0,1,7,25.38a1.11,1.11,0,0,1,1.16.07,4.18,4.18,0,0,1,1.68,3.34,1.72,1.72,0,0,1-.66,1.55A.94.94,0,0,1,8.74,30.46Zm-1.23-5a.7.7,0,0,0-.35.09,1.48,1.48,0,0,0-.54,1.33A3.88,3.88,0,0,0,8.19,30h0a.85.85,0,0,0,.9.08,1.48,1.48,0,0,0,.53-1.33,3.9,3.9,0,0,0-1.56-3.12A1.13,1.13,0,0,0,7.51,25.5Z"/><g style="clip-path:url(#b)"><path d="M9.47,30a1.31,1.31,0,0,1-.67-.21,4.16,4.16,0,0,1-1.69-3.34A1.69,1.69,0,0,1,7.77,25,1.12,1.12,0,0,1,8.92,25a4.16,4.16,0,0,1,1.69,3.34A1.69,1.69,0,0,1,10,29.91,1,1,0,0,1,9.47,30Zm-1.22-5a.6.6,0,0,0-.35.1,1.46,1.46,0,0,0-.54,1.32,3.92,3.92,0,0,0,1.56,3.13h0a.87.87,0,0,0,.9.07,1.46,1.46,0,0,0,.54-1.32A3.92,3.92,0,0,0,8.8,25.24,1.16,1.16,0,0,0,8.25,25.07Z"/></g><polyline points="8.14 38.85 8.14 9.37 0.13 4.74 0.13 34.23" style="fill:#fff"/><polygon points="8.27 38.85 8.02 38.85 8.02 9.44 0.25 4.96 0.25 34.23 0 34.23 0 4.74 0.19 4.63 8.21 9.26 8.27 9.37 8.27 38.85"/><path d="M4.82,32.39a1.35,1.35,0,0,1-.68-.2,4.15,4.15,0,0,1-1.68-3.34,1.69,1.69,0,0,1,.66-1.54,1.14,1.14,0,0,1,1.15.07A4.2,4.2,0,0,1,6,30.73a1.7,1.7,0,0,1-.66,1.54A1,1,0,0,1,4.82,32.39Zm-1.23-5a.64.64,0,0,0-.35.1,1.46,1.46,0,0,0-.53,1.32A3.92,3.92,0,0,0,4.27,32a.87.87,0,0,0,.9.07,1.46,1.46,0,0,0,.54-1.32A3.9,3.9,0,0,0,4.14,27.6,1.13,1.13,0,0,0,3.59,27.43Z"/><g style="clip-path:url(#c)"><path d="M5.56,32a1.39,1.39,0,0,1-.68-.2h0A4.18,4.18,0,0,1,3.2,28.43a1.72,1.72,0,0,1,.66-1.55A1.12,1.12,0,0,1,5,27,4.18,4.18,0,0,1,6.69,30.3,1.69,1.69,0,0,1,6,31.84.85.85,0,0,1,5.56,32ZM5,31.55a.88.88,0,0,0,.9.08,1.48,1.48,0,0,0,.53-1.33,3.9,3.9,0,0,0-1.56-3.12A.86.86,0,0,0,4,27.1a1.48,1.48,0,0,0-.53,1.33A3.91,3.91,0,0,0,5,31.55Z"/></g><polygon points="8.14 39.12 8.14 9.37 9.03 8.85 9.02 38.59 8.14 39.12" style="fill:#fff"/><path d="M8.21,39.23,8,39.12V9.37l.06-.11L9,8.74l.19.11,0,29.74-.06.11ZM8.27,9.44V38.9l.62-.38,0-29.45Z"/><polygon points="4.58 3.19 4.58 6.63 1.75 4.82 4.58 3.19" style="fill:#fff"/><path d="M4.52,6.74,1.68,4.93V4.71L4.52,3.09l.19.1V6.63ZM2,4.83,4.46,6.4v-3Z"/><polygon points="8.15 1.15 8.15 4.59 5.31 2.77 8.15 1.15" style="fill:#fff"/><path d="M8.08,4.69,5.25,2.88V2.67L8.08,1l.19.11V4.59ZM5.55,2.78,8,4.36v-3Z"/><polygon points="11.71 7.31 4.58 3.19 1.91 4.74 9.03 8.86 8.14 9.37 0.13 4.74 8.14 0.11 16.15 4.73 15.27 5.25 8.14 1.14 5.47 2.68 12.6 6.8 11.71 7.31" style="fill:#fff"/><path d="M8.08,9.48l-8-4.63V4.63L8.08,0h.13l8,4.62v.22l-.88.52h-.12L8.14,1.28,5.72,2.68l6.94,4v.22l-.89.51h-.13L4.58,3.34,2.16,4.74l6.94,4V9l-.89.52ZM.38,4.74,8.14,9.23l.64-.37-6.93-4V4.63L4.52,3.09h.13l7.06,4.08.64-.37-6.94-4V2.57L8.08,1h.13l7.06,4.08.63-.38L8.14.25Z"/><line x1="0.12" y1="34.23" x2="8.14" y2="38.85" style="fill:#fff"/><path d="M7.86,38.83,7,38.33l.13-.21.86.5Zm-1.74-1-.86-.5.12-.21.87.5Zm-1.73-1-.86-.5.12-.21.87.5Zm-1.73-1-.87-.5.13-.21.87.5Zm-1.73-1-.87-.5.13-.21.86.5Z"/><line x1="9.09" y1="36.29" x2="11.73" y2="37.82" style="fill:#fff"/><path d="M11.62,37.9l-.86-.5.12-.22.87.5Zm-1.73-1L9,36.4l.13-.22.86.5Z"/></svg>