<svg xmlns="http://www.w3.org/2000/svg" width="293.3" height="132.38" viewBox="0 0 293.3 132.38"><title>cabinet_fdd-36-90</title><path d="M36.65,2.61A10.3,10.3,0,0,0,36.83,0s-.47,0-1.59,0L0,20.41v112H1.38L35.24,112c1.58-1.58,1.41-1.76,1.41-3.49V2.61Z" style="fill:#e6e6eb"/><path d="M291.93,0V0s-.47,0-1.6,0L255.09,20.41v112h1.38L291.71,112c.81-.81.87-1.08.87-2.81V4.42C293.82,3.18,293.36-.4,291.93,0Zm-.12,3.76h0a.58.58,0,0,1-.12.11s-.17-.16-.22-.62a3.36,3.36,0,0,1,.42-2c.07-.09.12-.11.13-.11s.17.15.22.61A3.29,3.29,0,0,1,291.81,3.8Z" style="fill:#e6e6eb"/><path d="M36.61,112c.89-.89.87-1.08.87-2.81V4.42C38.9,3,38.1-1.45,36.18.48L1.38,20.41v112Z" style="fill:#fff"/><path d="M36.59,4.41l-.14,0c-.3-.09-.51-.46-.57-1A3.72,3.72,0,0,1,36.41,1a.61.61,0,0,1,.66-.28c.3.09.51.46.57,1a3.71,3.71,0,0,1-.54,2.38A.64.64,0,0,1,36.59,4.41Zm.34-3.24s-.06,0-.13.11a3.29,3.29,0,0,0-.42,2c0,.46.18.61.21.62a.43.43,0,0,0,.12-.11h0a3.24,3.24,0,0,0,.43-2C37.09,1.32,37,1.18,36.93,1.17Z"/><line y1="20.41" x2="1.38" y2="20.41" style="fill:#fff"/><path d="M291.68,4.41l-.13,0c-.31-.09-.51-.46-.58-1A3.79,3.79,0,0,1,291.5,1a.61.61,0,0,1,.66-.28c.31.09.51.46.57,1a3.71,3.71,0,0,1-.53,2.38A.67.67,0,0,1,291.68,4.41ZM292,1.17s-.06,0-.13.11a3.36,3.36,0,0,0-.42,2c0,.46.19.61.22.62s.05,0,.12-.11h0a3.3,3.3,0,0,0,.43-2C292.19,1.32,292.05,1.18,292,1.17Z" style="fill:#666675"/><line x1="255.09" y1="20.41" x2="256.47" y2="20.41" style="fill:#fff"/><rect x="1.38" y="26.08" width="253.72" height="100.64" style="fill:#787878"/><polygon points="36.74 0.01 1.38 20.41 1.38 26.08 255.09 26.08 255.09 20.41 290.33 0.04 36.74 0.01" style="fill:#d9c38f"/><rect x="1.38" y="126.71" width="253.72" height="5.67" style="fill:#d9c38f"/><path d="M3.59,126.23H252.88a1.4,1.4,0,0,0,1.46-1.47V28.55a1.3,1.3,0,0,0-1.46-1.47H3.59a1.45,1.45,0,0,0-1.46,1.47v96.21A1.45,1.45,0,0,0,3.59,126.23Z" style="fill:#504f4e"/><path d="M128.23,42.24a4.4,4.4,0,1,1,4.4-4.4A4.4,4.4,0,0,1,128.23,42.24Z" style="fill:#666675"/><path d="M128.23,40.8a3,3,0,1,1,3-3A3,3,0,0,1,128.23,40.8Z" style="fill:#e6e6eb"/><path d="M245.7,33.51s-6.78-1.07-12.23,5.78c-3.76,4.73-3.63,8.18-3.63,8.18h-3.93l6.45,7.07,6.33-7.07h-3.87a13.62,13.62,0,0,1,2.52-8.36A15.68,15.68,0,0,1,245.7,33.51Z" style="fill:#878787"/></svg>