<svg xmlns="http://www.w3.org/2000/svg" width="293.3" height="132.38" viewBox="0 0 293.3 132.38"><title>cabinet_2d-36-90</title><path d="M36.65,2.61A10.3,10.3,0,0,0,36.83,0s-.47,0-1.59,0L0,20.41v112H1.38L35.24,112c1.58-1.58,1.41-1.76,1.41-3.49V2.61Z" style="fill:#fff"/><path d="M291.93,0V0s-.47,0-1.6,0L255.09,20.41v112h1.38L291.71,112c.81-.81.87-1.08.87-2.81V4.42C293.82,3.18,293.36-.4,291.93,0Zm-.12,3.76h0a.58.58,0,0,1-.12.11s-.17-.16-.22-.62a3.36,3.36,0,0,1,.42-2c.07-.09.12-.11.13-.11s.17.15.22.61A3.29,3.29,0,0,1,291.81,3.8Z" style="fill:#e6e6eb"/><path d="M36.61,112c.89-.89.87-1.08.87-2.81V4.42C38.9,3,38.1-1.45,36.18.48L1.38,20.41v112Z" style="fill:#fff"/><path d="M36.59,4.41l-.14,0c-.3-.09-.51-.46-.57-1A3.72,3.72,0,0,1,36.41,1a.61.61,0,0,1,.66-.28c.3.09.51.46.57,1a3.71,3.71,0,0,1-.54,2.38A.64.64,0,0,1,36.59,4.41Zm.34-3.24s-.06,0-.13.11a3.29,3.29,0,0,0-.42,2c0,.46.18.61.21.62a.43.43,0,0,0,.12-.11h0a3.24,3.24,0,0,0,.43-2C37.09,1.32,37,1.18,36.93,1.17Z"/><line y1="20.41" x2="1.38" y2="20.41" style="fill:#fff"/><path d="M291.68,4.41l-.13,0c-.31-.09-.51-.46-.58-1A3.79,3.79,0,0,1,291.5,1a.61.61,0,0,1,.66-.28c.31.09.51.46.57,1a3.71,3.71,0,0,1-.53,2.38A.67.67,0,0,1,291.68,4.41ZM292,1.17s-.06,0-.13.11a3.36,3.36,0,0,0-.42,2c0,.46.19.61.22.62s.05,0,.12-.11h0a3.3,3.3,0,0,0,.43-2C292.19,1.32,292.05,1.18,292,1.17Z" style="fill:#666675"/><line x1="255.09" y1="20.41" x2="256.47" y2="20.41" style="fill:#fff"/><rect x="1.38" y="26.08" width="253.72" height="100.64" style="fill:#787878"/><polygon points="36.74 0.01 1.38 20.41 1.38 26.08 255.09 26.08 255.09 20.41 290.33 0.04 36.74 0.01" style="fill:#d9c38f"/><rect x="1.38" y="126.71" width="253.72" height="5.67" style="fill:#d9c38f"/><path d="M252.52,27.44H144.44c-1.36,0-1.37,1.48-1.37,1.48v4.49a1.35,1.35,0,0,1-1.44,1.48H115.26a1.31,1.31,0,0,1-1.44-1.48V28.92s.42-1.48-1.45-1.48H4A1.45,1.45,0,0,0,2.5,28.92V73.8A1.44,1.44,0,0,0,4,75.27H252.52A1.41,1.41,0,0,0,254,73.8V28.92A1.31,1.31,0,0,0,252.52,27.44Z" style="fill:#504f4e"/><path d="M252.52,77.52H144.44c-1.36,0-1.37,1.48-1.37,1.48v4.49A1.34,1.34,0,0,1,141.63,85H115.26a1.31,1.31,0,0,1-1.44-1.47V79s.42-1.48-1.45-1.48H4A1.45,1.45,0,0,0,2.5,79v44.87A1.45,1.45,0,0,0,4,125.35H252.52a1.42,1.42,0,0,0,1.45-1.48V79A1.31,1.31,0,0,0,252.52,77.52Z" style="fill:#504f4e"/></svg>