<svg xmlns="http://www.w3.org/2000/svg" width="223.82" height="132.38" viewBox="0 0 223.82 132.38"><title>cabinet_2d-36-65.5</title><path d="M36.65,2.61A10.3,10.3,0,0,0,36.83,0s-.47,0-1.59,0L0,20.41v112H1.38L35.24,112c1.58-1.58,1.41-1.76,1.41-3.49V2.61Z" style="fill:#e6e6eb"/><path d="M222.45,0V0s-.47,0-1.59,0L185.62,20.41v112H187L222.23,112c.81-.81.87-1.08.87-2.81V4.42C224.34,3.18,223.88-.4,222.45,0Zm-.12,3.76h0a.58.58,0,0,1-.12.11s-.17-.16-.21-.62a3.22,3.22,0,0,1,.42-2,.35.35,0,0,1,.12-.11s.17.15.22.61A3.29,3.29,0,0,1,222.33,3.8Z" style="fill:#e6e6eb"/><path d="M36.61,112c.89-.89.87-1.08.87-2.81V4.42C38.9,3,38.1-1.45,36.18.48L1.38,20.41v112Z" style="fill:#fff"/><path d="M36.59,4.41l-.14,0c-.3-.09-.51-.46-.57-1A3.72,3.72,0,0,1,36.41,1a.61.61,0,0,1,.66-.28c.3.09.51.46.57,1a3.71,3.71,0,0,1-.54,2.38A.64.64,0,0,1,36.59,4.41Zm.34-3.24s-.06,0-.13.11a3.29,3.29,0,0,0-.42,2c0,.46.18.61.21.62a.43.43,0,0,0,.12-.11h0a3.24,3.24,0,0,0,.43-2C37.09,1.32,37,1.18,36.93,1.17Z"/><line y1="20.41" x2="1.38" y2="20.41" style="fill:#fff"/><path d="M222.21,4.41l-.14,0c-.31-.09-.51-.46-.57-1A3.79,3.79,0,0,1,222,1a.63.63,0,0,1,.67-.28c.3.09.5.46.57,1a3.71,3.71,0,0,1-.54,2.38A.67.67,0,0,1,222.21,4.41Zm.33-3.24a.35.35,0,0,0-.12.11,3.22,3.22,0,0,0-.42,2c0,.46.18.61.21.62s0,0,.12-.11h0a3.3,3.3,0,0,0,.43-2C222.71,1.32,222.58,1.18,222.54,1.17Z" style="fill:#666675"/><line x1="185.62" y1="20.41" x2="186.99" y2="20.41" style="fill:#fff"/><rect x="1.38" y="26.08" width="184.24" height="100.64" style="fill:#787878"/><rect x="1.38" y="126.71" width="184.24" height="5.67" style="fill:#d9c38f"/><polygon points="36.74 0.01 1.38 20.41 1.38 26.08 185.62 26.08 185.62 20.41 220.86 0.04 36.74 0.01" style="fill:#d9c38f"/><path d="M183.06,27.43H109.4c-1.36,0-1.36,1.48-1.36,1.48V33.4a1.35,1.35,0,0,1-1.45,1.48H80.23a1.32,1.32,0,0,1-1.45-1.48V28.91s.43-1.48-1.44-1.48H3.68a1.44,1.44,0,0,0-1.44,1.48V73.78a1.44,1.44,0,0,0,1.44,1.48H183.06a1.42,1.42,0,0,0,1.45-1.48V28.91A1.31,1.31,0,0,0,183.06,27.43Z" style="fill:#504f4e"/><path d="M183.06,77.49H109.4C108,77.49,108,79,108,79v4.49a1.34,1.34,0,0,1-1.45,1.47H80.23a1.31,1.31,0,0,1-1.45-1.47V79s.43-1.48-1.44-1.48H3.68A1.44,1.44,0,0,0,2.24,79v44.91a1.44,1.44,0,0,0,1.44,1.48H183.06a1.42,1.42,0,0,0,1.45-1.48V79A1.3,1.3,0,0,0,183.06,77.49Z" style="fill:#504f4e"/></svg>