<svg xmlns="http://www.w3.org/2000/svg" width="208.79" height="49.23" viewBox="0 0 208.79 49.23"><title>metalshelf-22-65.5</title><path d="M208.24,14.75V3.28a9.46,9.46,0,0,0,.3-1.84s-.16-2.27-1.33-1.11L188.13,11.38c-2.58,2.58-2.27,4.53-2.27,4.53v9.87H23.09l-.45.38V3.28a9.46,9.46,0,0,0,.3-1.84S22.78-.83,21.61.33L2.54,11.38C0,14,.26,15.91.26,15.91V44.8H4.33c.67,2,2.09,3.93,5.06,3.93h169c2.75,0,4.17-2,4.9-3.93h2.65l.08-.1,21.26-13.52c.38-.38.45,0,.45,0,1.17-1.17.78-4.23.52-4.66ZM21.67,30.16c-.35.35-.64.07-.64-.64a3.12,3.12,0,0,1,.64-1.91c.35-.34.64-.06.64.64A3.09,3.09,0,0,1,21.67,30.16Zm0-26.11c-.35.35-.64.07-.64-.63a3.07,3.07,0,0,1,.64-1.91c.35-.35.64-.07.64.63A3.09,3.09,0,0,1,21.67,4.05Zm185.6,26.11c-.36.35-.64.07-.64-.64a3.06,3.06,0,0,1,.64-1.91c.35-.34.63-.06.63.64A3.09,3.09,0,0,1,207.27,30.16Zm0-26.11c-.36.35-.64.07-.64-.63a3,3,0,0,1,.64-1.91c.35-.35.63-.07.63.63A3.09,3.09,0,0,1,207.27,4.05Z" style="fill:#504f4e"/><path d="M21.2,4.42a.84.84,0,0,0,.18,0,.68.68,0,0,0,.47-.22,3.32,3.32,0,0,0,.71-2.09c0-.53-.15-.88-.43-1a.57.57,0,0,0-.64.19,3.3,3.3,0,0,0-.71,2.09C20.78,4,20.93,4.3,21.2,4.42Zm.65-2.74a.39.39,0,0,1,.09-.07s.12.16.12.53a2.81,2.81,0,0,1-.57,1.73h0c-.06.06-.09.08-.1.08s-.11-.17-.11-.53A2.87,2.87,0,0,1,21.85,1.68Z" style="fill:#878787"/><path d="M208.49,3.57a10,10,0,0,0,.3-1.9c0-.23-.13-1.39-.76-1.63a.93.93,0,0,0-1,.34L188,11.42a.1.1,0,0,0,0,0c-2.64,2.64-2.36,4.65-2.35,4.7v9.62H23.09a.28.28,0,0,0-.16.06l0,0V3.57a9.14,9.14,0,0,0,.3-1.9c0-.23-.13-1.39-.75-1.63a.94.94,0,0,0-1,.34l-19,11-.05,0C-.28,14.1,0,16.11,0,16.16V45.05s0,0,0,.05,0,0,0,0v0a.13.13,0,0,0,.06.07l0,0s0,0,0,0l.12,0H4.15a6.85,6.85,0,0,0,1.44,2.41,5.08,5.08,0,0,0,3.8,1.52h169c2.8,0,4.27-1.94,5.05-3.93h2.5a.29.29,0,0,0,.2-.09l.05-.07,21.22-13.5,0,0,.08-.07a.18.18,0,0,0,.12.09.23.23,0,0,0,.25-.06c1.21-1.21.92-4.19.6-4.9ZM23.18,26.28H185.61v4.83l-163,0a6.33,6.33,0,0,0,.28-4.47v-.14ZM4.52,44.8a10.86,10.86,0,0,1-.42-1.89S4,42.46,4,42.36s0-.08,0-.12l0-.61c0-.1,0-.2,0-.27H183.78a13.72,13.72,0,0,1-.69,3.44c-.09.24-.2.5-.2.5-.73,1.77-2.07,3.43-4.51,3.43H9.39A4.56,4.56,0,0,1,6,47.36,6,6,0,0,1,4.7,45.3ZM22.44,26.9c.21.43.51,3-.34,4.13h0a.59.59,0,0,0-.57.22L6.38,40.86H3.72a.26.26,0,0,0-.25.24s0,.4,0,.93c0,.11,0,.61,0,.61v0l-.13.08L.51,44.51V16.12s-.24-1.86,2.18-4.28l19-11,.05,0c.2-.2.36-.29.47-.25s.4.75.43,1.17a9.22,9.22,0,0,1-.29,1.79.13.13,0,0,0,0,.06V26.29A4.42,4.42,0,0,0,22.44,26.9Zm-1.05,3.16s-.11-.17-.11-.54a2.83,2.83,0,0,1,.57-1.73c0-.06.09-.07.09-.08a.83.83,0,0,1,.12.54A2.83,2.83,0,0,1,21.49,30h0C21.43,30,21.4,30.06,21.39,30.06ZM21.14,28a3.82,3.82,0,0,0-.36,1.54c0,.54.15.89.42,1a.48.48,0,0,0,.18,0,.66.66,0,0,0,.47-.23,3.29,3.29,0,0,0,.71-2.08c0-.53-.15-.89-.43-1l-.08,0C21.59,27.14,21.14,28,21.14,28ZM1.12,44.8l2.5-1.59A14.15,14.15,0,0,0,4,44.8Zm183.17-3.68a.23.23,0,0,0-.07-.18.25.25,0,0,0-.18-.08H7.31L21.8,31.64l0,0,.08-.07s0,0,0,0l0,0s0,0,.07,0,0,0,.05,0,0,0,0,0l163.49,0V44.8h-2A14.07,14.07,0,0,0,184.29,41.12Zm1.82,3.49V31.36h0V16.12s-.24-1.86,2.18-4.28L207.34.8l0,0c.19-.2.36-.29.47-.25s.4.75.43,1.17A9.22,9.22,0,0,1,208,3.47a.13.13,0,0,0,0,.06v23.2a.28.28,0,0,0,0,.13c.21.34.55,3-.32,4.17h0a.58.58,0,0,0-.57.22L187.17,43.92Z" style="fill:#878787"/><path d="M207.73,1.14a.57.57,0,0,0-.64.19,3.3,3.3,0,0,0-.71,2.09c0,.53.15.88.42,1a.58.58,0,0,0,.64-.19,3.32,3.32,0,0,0,.71-2.09C208.15,1.61,208,1.26,207.73,1.14Zm-.64,2.73h0A.44.44,0,0,1,207,4s-.11-.17-.11-.53a2.93,2.93,0,0,1,.56-1.74l.1-.07s.11.16.11.53A2.81,2.81,0,0,1,207.09,3.87Z" style="fill:#878787"/><path d="M207.73,27.25a.57.57,0,0,0-.64.19,3.29,3.29,0,0,0-.71,2.08c0,.54.15.89.42,1a.4.4,0,0,0,.18,0,.64.64,0,0,0,.46-.23,3.29,3.29,0,0,0,.71-2.08C208.15,27.72,208,27.36,207.73,27.25ZM207.09,30h0a.44.44,0,0,1-.1.08s-.11-.17-.11-.54a2.9,2.9,0,0,1,.56-1.73c.06-.06.1-.07.1-.08a.86.86,0,0,1,.11.54A2.83,2.83,0,0,1,207.09,30Z" style="fill:#878787"/></svg>