<svg xmlns="http://www.w3.org/2000/svg" width="292.25" height="83.2" viewBox="0 0 292.25 83.2"><title>railshelf-36-90</title><path d="M291.34,26.67s0-.05,0-.08v-23h0c1.24-1.24.42-4.38-.89-3.07l-35.5,20.51v1.48H36.64V21.08H254.9L290.78.26H36.37a.33.33,0,0,0-.14,0h-.58L13.43,13.07H6.63c-4,0-5.23,4.13-5.59,6.45a1.45,1.45,0,0,0,.07.66l-.86.49H.93l-.68.4V49.9A1.85,1.85,0,0,0,3.4,51.21L34,32.51H254.93V48.37a2.48,2.48,0,0,0,4.23,1.76l31.27-18.69C292.37,29.49,292.31,27.36,291.34,26.67Zm-.74,2.87a.85.85,0,0,1,0-.28,2,2,0,0,1,.38-1.19.91.91,0,0,1,0,.27A2.05,2.05,0,0,1,290.6,29.54ZM290.6,3h0a1.31,1.31,0,0,1,0-.29A2.07,2.07,0,0,1,291,1.45h0a.92.92,0,0,1,0,.3A2.07,2.07,0,0,1,290.6,3Z" style="fill:#504f4e"/><path d="M254.68,32.26H13.58a1,1,0,0,1-.87-.47c-.35-.53-.77-1.7-.77-4.26s.44-3.67.8-4.23a1.05,1.05,0,0,1,.89-.5H254.68Z" style="fill:#e6e6eb"/><rect x="36.39" y="21.08" width="0.5" height="1.48"/><path d="M290.41,3.49a.5.5,0,0,0,.16,0,.52.52,0,0,0,.38-.19h0a2.49,2.49,0,0,0,.55-1.59c0-.42-.13-.71-.36-.8a.49.49,0,0,0-.54.15,2.54,2.54,0,0,0-.54,1.6C290.06,3.11,290.18,3.39,290.41,3.49Zm.54-2h0a.92.92,0,0,1,0,.3A2.07,2.07,0,0,1,290.6,3h0a1.31,1.31,0,0,1,0-.29A2.07,2.07,0,0,1,291,1.45Z" style="fill:#666675"/><path d="M291.13,27.56a.47.47,0,0,0-.53.15,2.48,2.48,0,0,0-.53,1.56c0,.41.12.69.35.78a.28.28,0,0,0,.15,0,.54.54,0,0,0,.38-.18,2.45,2.45,0,0,0,.53-1.55C291.48,27.93,291.36,27.65,291.13,27.56Zm-.53,2a.82.82,0,0,1,0-.27,2,2,0,0,1,.38-1.19.82.82,0,0,1,0,.27A2,2,0,0,1,290.6,29.54Z" style="fill:#666675"/><path d="M266.37,25.29a1.93,1.93,0,0,0-.4,1.19c0,.44.18.62.4.4a1.92,1.92,0,0,0,.39-1.19C266.76,25.25,266.59,25.07,266.37,25.29Z" style="fill:#666675"/><path d="M266.37,22.65a1.93,1.93,0,0,0-.4,1.19c0,.44.18.62.4.4a2,2,0,0,0,.39-1.2C266.76,22.61,266.59,22.43,266.37,22.65Z" style="fill:#666675"/><path d="M292.24,28a2,2,0,0,0-.67-1.43V3.73a2.91,2.91,0,0,0,.07-3.46A.87.87,0,0,0,291,0a.93.93,0,0,0-.13,0l-.07,0H35.65a.19.19,0,0,0-.12,0L13.36,12.82H6.63C2.45,12.82,1.18,17,.8,19.49a1.56,1.56,0,0,0,0,.57l-.69.39a.26.26,0,0,0-.12.29.3.3,0,0,0,.09.13.26.26,0,0,0-.1.2V49.9a2.06,2.06,0,0,0,1.29,1.94,2.2,2.2,0,0,0,.83.17,2,2,0,0,0,1.41-.58L34.05,32.76h144c-.09.31-.18.61-.28.9A.25.25,0,0,0,178,34H178a.25.25,0,0,0,.23-.17c.11-.3.21-.63.31-1a.29.29,0,0,0,0-.09h76.13V48.37a2.7,2.7,0,0,0,1.68,2.52,2.78,2.78,0,0,0,1.08.22,2.58,2.58,0,0,0,1.85-.76L290.6,31.61A4.82,4.82,0,0,0,292.24,28ZM6.63,13.32H248.45c4.11,0,5.15,3.94,5.41,6.29a1.07,1.07,0,0,1-.27.85,1.13,1.13,0,0,1-.83.37H2.39a1.14,1.14,0,0,1-.85-.39,1.08,1.08,0,0,1-.25-.88C1.65,17.23,2.83,13.32,6.63,13.32ZM254.68,32.26H170.16q.06-.45.15-.9a.25.25,0,0,0-.19-.3.26.26,0,0,0-.3.19c-.07.34-.12.67-.17,1H13.58a1,1,0,0,1-.87-.47c-.35-.53-.77-1.7-.77-4.26s.44-3.67.8-4.23a1.05,1.05,0,0,1,.89-.5H174.34q-.22.18-.45.39a.25.25,0,0,0,0,.35.23.23,0,0,0,.18.08.26.26,0,0,0,.18-.07q.24-.23.48-.42l.26-.19a.23.23,0,0,0,.09-.14h79.61Zm0-10H178.14s0,0,0,0a2.25,2.25,0,0,0-.36-.24.26.26,0,0,0-.34.11.26.26,0,0,0,0,.15h-.73a.25.25,0,0,0,.25-.25.24.24,0,0,0-.26-.25,3,3,0,0,0-1.06.23.24.24,0,0,0-.13.28H13.63a1.57,1.57,0,0,0-1.31.73,8.63,8.63,0,0,0-.88,4.5,8.86,8.86,0,0,0,.85,4.54,1.53,1.53,0,0,0,1.29.69H33.1L3.22,51A1.6,1.6,0,0,1,.5,49.9V21.21l.5-.29h.33a1.58,1.58,0,0,0,1.06.41H254.68Zm-.76-1.48,0,0a1.61,1.61,0,0,0,.4-1.24c-.28-2.51-1.41-6.73-5.91-6.73H14.37L35.72.51H289.85l-35,20.32Zm36.38,10.4L259,50a2.23,2.23,0,0,1-3.81-1.58V21.21L290.55.78a.1.1,0,0,0,.05,0A.74.74,0,0,1,291,.5a.36.36,0,0,1,.27.12,2.4,2.4,0,0,1-.15,2.83.24.24,0,0,0-.07.18v23a.3.3,0,0,0,.12.27,1.48,1.48,0,0,1,.55,1.13A4.32,4.32,0,0,1,290.3,31.22Z" style="fill:#878787"/><path d="M174.32,44.53a.25.25,0,0,0,.5,0v-1a.25.25,0,0,0-.5,0Z" style="fill:#666675"/><path d="M174.32,42.53a.25.25,0,0,0,.5,0v-1a.25.25,0,0,0-.5,0Z" style="fill:#666675"/><path d="M174.6,38.8a.25.25,0,0,0,.16-.06c.27-.21.53-.43.78-.65a.26.26,0,0,0,0-.36.25.25,0,0,0-.35,0l-.75.63a.24.24,0,0,0,0,.35A.23.23,0,0,0,174.6,38.8Z" style="fill:#666675"/><path d="M176.84,36.21a.25.25,0,0,0-.35.06,8.32,8.32,0,0,1-.6.76.23.23,0,0,0,0,.35.23.23,0,0,0,.16.06.27.27,0,0,0,.19-.08,7.73,7.73,0,0,0,.64-.8A.25.25,0,0,0,176.84,36.21Z" style="fill:#666675"/><path d="M175.49,22.29a.24.24,0,0,0,.3.18,7.28,7.28,0,0,1,1-.21A.25.25,0,0,0,177,22a.24.24,0,0,0-.09-.16.26.26,0,0,0-.2-.05,6.59,6.59,0,0,0-1,.22A.24.24,0,0,0,175.49,22.29Z" style="fill:#666675"/><path d="M178.07,32.76a7.61,7.61,0,0,1-.28.89.26.26,0,0,0,.15.33.25.25,0,0,0,.17,0,.28.28,0,0,0,.15-.15,9.16,9.16,0,0,0,.3-1,.28.28,0,0,0,0-.09Z" style="fill:#666675"/><path d="M174.32,46.53a.25.25,0,0,0,.5,0v-1a.25.25,0,0,0-.5,0Z" style="fill:#666675"/><path d="M177.44,34.57c-.13.3-.28.6-.43.88a.25.25,0,0,0,.1.34.27.27,0,0,0,.12,0,.26.26,0,0,0,.22-.13c.16-.29.31-.6.45-.92a.26.26,0,0,0-.13-.33A.26.26,0,0,0,177.44,34.57Z" style="fill:#666675"/><path d="M174.32,40.53a.25.25,0,0,0,.5,0v-1a.25.25,0,0,0-.5,0Z" style="fill:#666675"/><path d="M174.32,48.53a.25.25,0,0,0,.5,0v-1a.25.25,0,0,0-.5,0Z" style="fill:#666675"/><path d="M170,34.28c0-.32,0-.65,0-1a.25.25,0,0,0-.23-.27.24.24,0,0,0-.26.24c0,.34,0,.68,0,1a.25.25,0,0,0,.25.25A.25.25,0,0,0,170,34.28Z" style="fill:#666675"/><path d="M170.11,32.33c.06-.32.12-.64.2-1a.26.26,0,0,0-.18-.31.24.24,0,0,0-.3.19,9.22,9.22,0,0,0-.21,1,.25.25,0,0,0,.2.29A.24.24,0,0,0,170.11,32.33Z" style="fill:#666675"/><path d="M174.23,23.57c.24-.21.5-.42.76-.62a.24.24,0,0,0,0-.35.24.24,0,0,0-.35-.05c-.27.21-.54.42-.79.64a.25.25,0,0,0,0,.35A.24.24,0,0,0,174.23,23.57Z" style="fill:#666675"/><path d="M170.66,29.13a.26.26,0,0,0-.32.17c-.1.32-.2.64-.28,1a.24.24,0,0,0,.17.3h.07a.25.25,0,0,0,.24-.18c.08-.32.18-.64.28-.95A.26.26,0,0,0,170.66,29.13Z" style="fill:#666675"/><path d="M173.19,23.94c-.22.25-.43.53-.63.81a.25.25,0,0,0,.06.35.28.28,0,0,0,.15,0,.23.23,0,0,0,.2-.1c.19-.27.4-.53.6-.78a.24.24,0,0,0,0-.35A.25.25,0,0,0,173.19,23.94Z" style="fill:#666675"/><path d="M172,25.6c-.17.29-.34.58-.5.89a.26.26,0,0,0,.11.34.23.23,0,0,0,.11,0,.26.26,0,0,0,.23-.13c.15-.3.31-.58.48-.86a.25.25,0,0,0-.09-.34A.24.24,0,0,0,172,25.6Z" style="fill:#666675"/><path d="M171.07,27.4c-.14.31-.27.62-.39.94a.25.25,0,0,0,.15.32l.09,0a.25.25,0,0,0,.23-.16c.12-.31.24-.61.38-.91a.25.25,0,0,0-.46-.21Z" style="fill:#666675"/><path d="M162.27,58.54l-.77.65a.25.25,0,0,0,0,.35.25.25,0,0,0,.19.09.27.27,0,0,0,.16-.06l.76-.64a.25.25,0,0,0,0-.36A.25.25,0,0,0,162.27,58.54Z" style="fill:#666675"/><path d="M167,54.85l-.81.59a.25.25,0,0,0-.05.35.23.23,0,0,0,.2.1.3.3,0,0,0,.15,0l.8-.59a.25.25,0,1,0-.29-.4Z" style="fill:#666675"/><path d="M165.41,56l-.8.61a.26.26,0,0,0,0,.36.25.25,0,0,0,.2.09.27.27,0,0,0,.15-.05l.79-.61a.25.25,0,0,0-.3-.4Z" style="fill:#666675"/><path d="M160.74,59.84l-.75.66a.26.26,0,0,0,0,.36.27.27,0,0,0,.19.08.23.23,0,0,0,.16-.06c.25-.23.5-.44.75-.66a.24.24,0,0,0,0-.35A.25.25,0,0,0,160.74,59.84Z" style="fill:#666675"/><path d="M163.83,57.28l-.78.62a.26.26,0,0,0,0,.36.25.25,0,0,0,.19.09.23.23,0,0,0,.16-.06l.78-.62a.26.26,0,0,0,0-.36A.25.25,0,0,0,163.83,57.28Z" style="fill:#666675"/><path d="M156.32,63.92l-.71.7a.25.25,0,0,0,0,.36.24.24,0,0,0,.18.07A.22.22,0,0,0,156,65l.71-.7a.25.25,0,1,0-.35-.36Z" style="fill:#666675"/><path d="M145.69,75.85l-.62.79a.26.26,0,0,0,.05.35.27.27,0,0,0,.15.05.23.23,0,0,0,.2-.1l.61-.78a.26.26,0,0,0,0-.36A.25.25,0,0,0,145.69,75.85Z" style="fill:#666675"/><path d="M146.93,74.28l-.62.78a.24.24,0,0,0,0,.35.22.22,0,0,0,.15.06.23.23,0,0,0,.2-.1c.2-.26.41-.51.62-.77a.24.24,0,0,0,0-.35A.25.25,0,0,0,146.93,74.28Z" style="fill:#666675"/><path d="M144.47,77.43l-.61.8a.25.25,0,0,0,.06.35.24.24,0,0,0,.14,0,.25.25,0,0,0,.2-.1l.6-.8a.24.24,0,0,0,0-.35A.25.25,0,0,0,144.47,77.43Z" style="fill:#666675"/><path d="M148.2,72.74l-.64.77a.25.25,0,0,0,0,.35.24.24,0,0,0,.35,0l.63-.76a.25.25,0,1,0-.38-.32Z" style="fill:#666675"/><path d="M140.94,82.29l-.36.52a.25.25,0,0,0,.06.35.23.23,0,0,0,.14,0,.25.25,0,0,0,.21-.1l.36-.53a.25.25,0,1,0-.41-.28Z" style="fill:#666675"/><path d="M143.27,79l-.59.81a.25.25,0,0,0,0,.35.3.3,0,0,0,.15,0,.24.24,0,0,0,.2-.11l.59-.8a.25.25,0,0,0-.4-.3Z" style="fill:#666675"/><path d="M142.09,80.65l-.58.82a.24.24,0,0,0,.06.34.23.23,0,0,0,.15,0,.24.24,0,0,0,.2-.11l.58-.81a.25.25,0,0,0-.41-.29Z" style="fill:#666675"/><path d="M159.24,61.17l-.74.68a.25.25,0,0,0,0,.35.27.27,0,0,0,.18.08.27.27,0,0,0,.17-.06l.74-.68a.25.25,0,0,0,0-.35A.26.26,0,0,0,159.24,61.17Z" style="fill:#666675"/><path d="M153.51,66.77l-.68.72a.25.25,0,0,0,0,.36.28.28,0,0,0,.17.07.25.25,0,0,0,.18-.08l.69-.73a.25.25,0,0,0,0-.35A.25.25,0,0,0,153.51,66.77Z" style="fill:#666675"/><path d="M154.9,65.33l-.69.72a.24.24,0,0,0,0,.35.23.23,0,0,0,.17.07.24.24,0,0,0,.18-.07l.7-.71a.25.25,0,0,0,0-.36A.26.26,0,0,0,154.9,65.33Z" style="fill:#666675"/><path d="M149.49,71.21l-.65.76a.25.25,0,0,0,.19.42.25.25,0,0,0,.19-.09l.65-.76a.24.24,0,0,0,0-.35A.25.25,0,0,0,149.49,71.21Z" style="fill:#666675"/><path d="M168.66,53.69l-.83.57a.25.25,0,0,0-.06.35.26.26,0,0,0,.21.11.24.24,0,0,0,.14,0l.82-.57a.25.25,0,0,0,.06-.35A.24.24,0,0,0,168.66,53.69Z" style="fill:#666675"/><path d="M150.81,69.71l-.66.75a.25.25,0,0,0,0,.35.27.27,0,0,0,.16.06.24.24,0,0,0,.19-.08l.66-.75a.25.25,0,0,0-.37-.33Z" style="fill:#666675"/><path d="M152.15,68.23c-.23.24-.45.49-.68.74a.25.25,0,0,0,0,.35.27.27,0,0,0,.17.06.22.22,0,0,0,.18-.08l.67-.73a.25.25,0,1,0-.36-.34Z" style="fill:#666675"/><path d="M157.77,62.53l-.73.69a.26.26,0,0,0,0,.36.24.24,0,0,0,.18.07.23.23,0,0,0,.17-.07l.72-.68a.25.25,0,0,0,0-.36A.25.25,0,0,0,157.77,62.53Z" style="fill:#666675"/><path d="M198.51,43.17h-1a.25.25,0,0,0,0,.5h1a.25.25,0,0,0,0-.5Z" style="fill:#666675"/><path d="M190.51,43.93l-1,.2a.25.25,0,0,0-.19.3.25.25,0,0,0,.24.2h.06l1-.2a.26.26,0,0,0,.2-.3A.25.25,0,0,0,190.51,43.93Z" style="fill:#666675"/><path d="M196.5,43.2l-1,.06a.25.25,0,0,0-.23.26.26.26,0,0,0,.25.24h0l1,0a.25.25,0,0,0,.24-.26A.25.25,0,0,0,196.5,43.2Z" style="fill:#666675"/><path d="M192.49,43.59c-.33,0-.66.1-1,.15a.25.25,0,0,0-.2.29.25.25,0,0,0,.24.21h.05l1-.16a.25.25,0,0,0,.21-.28A.24.24,0,0,0,192.49,43.59Z" style="fill:#666675"/><path d="M194.49,43.34l-1,.11a.25.25,0,0,0,0,.5h0c.33-.05.66-.08,1-.11a.26.26,0,0,0,.23-.28A.26.26,0,0,0,194.49,43.34Z" style="fill:#666675"/><path d="M200.52,43.25c-.33,0-.66,0-1-.06a.23.23,0,0,0-.26.24.24.24,0,0,0,.24.26l1,.06h0a.25.25,0,0,0,0-.5Z" style="fill:#666675"/><path d="M208.41,44.79l-1-.3a.24.24,0,0,0-.31.17.25.25,0,0,0,.17.31c.32.09.63.19.94.3h.08a.25.25,0,0,0,.24-.17A.25.25,0,0,0,208.41,44.79Z" style="fill:#666675"/><path d="M206.48,44.22c-.32-.09-.65-.17-1-.24a.25.25,0,0,0-.3.19.24.24,0,0,0,.19.29l1,.24h.07a.24.24,0,0,0,.24-.19A.25.25,0,0,0,206.48,44.22Z" style="fill:#666675"/><path d="M202.53,43.45c-.33-.05-.67-.09-1-.12a.25.25,0,1,0-.05.5l1,.11h0a.25.25,0,0,0,0-.49Z" style="fill:#666675"/><path d="M204.52,43.77l-1-.18a.25.25,0,0,0-.29.21.26.26,0,0,0,.21.29l1,.17h.05a.25.25,0,0,0,.05-.5Z" style="fill:#666675"/><path d="M173.75,50.48l-.87.5a.25.25,0,0,0-.09.34.26.26,0,0,0,.22.13.22.22,0,0,0,.13,0l.86-.5a.26.26,0,0,0,.09-.34A.25.25,0,0,0,173.75,50.48Z" style="fill:#666675"/><path d="M175.5,49.5l-.75.41a.26.26,0,0,0,.07-.16v-.22a.25.25,0,0,0-.5,0v.22a.25.25,0,0,0,.25.25s.05,0,.08,0l0,0a.25.25,0,0,0-.1.34.26.26,0,0,0,.22.13l.12,0,.88-.48a.26.26,0,0,0,.1-.34A.25.25,0,0,0,175.5,49.5Z" style="fill:#666675"/><path d="M177.28,48.57c-.3.15-.6.3-.89.46a.25.25,0,0,0,.11.47.27.27,0,0,0,.12,0l.88-.45a.24.24,0,0,0,.12-.33A.27.27,0,0,0,177.28,48.57Z" style="fill:#666675"/><path d="M172,51.5l-.85.53a.26.26,0,0,0-.08.35.26.26,0,0,0,.21.11.25.25,0,0,0,.14,0l.84-.52a.25.25,0,0,0,.08-.35A.25.25,0,0,0,172,51.5Z" style="fill:#666675"/><path d="M170.32,52.57l-.83.56a.25.25,0,0,0,.14.45.27.27,0,0,0,.14,0l.83-.55a.24.24,0,0,0,.07-.34A.26.26,0,0,0,170.32,52.57Z" style="fill:#666675"/><path d="M179.09,47.71l-.91.42a.26.26,0,0,0-.12.34.27.27,0,0,0,.23.14.23.23,0,0,0,.11,0l.9-.42a.24.24,0,0,0,.12-.33A.24.24,0,0,0,179.09,47.71Z" style="fill:#666675"/><path d="M182.8,46.15l-.94.37a.24.24,0,0,0-.14.32A.25.25,0,0,0,182,47l.1,0,.92-.36a.25.25,0,0,0,.15-.32A.25.25,0,0,0,182.8,46.15Z" style="fill:#666675"/><path d="M184.69,45.48l-.95.33a.24.24,0,0,0-.15.32.24.24,0,0,0,.23.16h.09l.94-.33a.25.25,0,0,0,.16-.31A.26.26,0,0,0,184.69,45.48Z" style="fill:#666675"/><path d="M186.61,44.88l-1,.29a.25.25,0,0,0,.07.49h.07l1-.29a.25.25,0,1,0-.14-.48Z" style="fill:#666675"/><path d="M180.93,46.9l-.92.39a.25.25,0,0,0-.13.33.24.24,0,0,0,.23.15.2.2,0,0,0,.1,0l.91-.39a.25.25,0,0,0,.14-.33A.25.25,0,0,0,180.93,46.9Z" style="fill:#666675"/><path d="M188.55,44.36l-1,.25a.25.25,0,0,0,.06.49h.07l1-.24a.25.25,0,0,0-.12-.49Z" style="fill:#666675"/></svg>