<svg xmlns="http://www.w3.org/2000/svg" width="190.64" height="114.39" viewBox="0 0 190.64 114.39"><title>panel-3-65.5</title><path d="M189.53,107.32V4.53a7.34,7.34,0,0,0,.71-2.84c0-1.1-.78-1.74-1.22-1.3C188.84.57,185.81,2,185.81,2l.24,112.16s2.87-1.68,3-1.78a4.13,4.13,0,0,0,1.37-3.13A2.21,2.21,0,0,0,189.53,107.32ZM188.87,3.87c-.38.37-.67.16-.67-.47a2.87,2.87,0,0,1,.67-1.82c.37-.36.66-.15.66.48A2.87,2.87,0,0,1,188.87,3.87Z" style="fill:#fffffa"/><path d="M4.32,1C4.09.36,3.55.05,3.21.39,3,.57.25,2.16.25,2.16V114.32h185.8L185.81,2.16H4.41L185.81,2,188.2.83Z" style="fill:#fffffa"/><path d="M190.64,109.23a2.57,2.57,0,0,0-.86-2V4.59a7.55,7.55,0,0,0,.71-2.9,1.74,1.74,0,0,0-.85-1.63.71.71,0,0,0-.79.14,7,7,0,0,1-.71.38L4.49.77A1.32,1.32,0,0,0,3.83.06.7.7,0,0,0,3,.21C2.91.32,1.7,1,.5,1.73H.25A.25.25,0,0,0,0,2v.18H0v112a.25.25,0,0,0,.06.15s0,0,0,0,0,0,0,0a.17.17,0,0,0,.12,0h185.8a.2.2,0,0,0,.13,0c1.92-1.12,2.93-1.73,3-1.81l-.17-.18.2.15A4.35,4.35,0,0,0,190.64,109.23ZM3.64.52a.73.73,0,0,1,.25.2l0,.05H3.1a2,2,0,0,0,.29-.2A.2.2,0,0,1,3.64.52ZM.5,113.89V2.41l185.06-.18.11,51.5.13,60.16ZM185.76,1.73H1.59l.87-.46L187.1,1.08Zm3.12,110.42,0,0c-.14.11-1.51.92-2.55,1.53V108L186.06,2.14c.68-.31,1.56-.73,2.22-1.07h0a6.13,6.13,0,0,0,.88-.49.22.22,0,0,1,.26,0A1.28,1.28,0,0,1,190,1.69a7.31,7.31,0,0,1-.68,2.73.2.2,0,0,0,0,.11V107.32a.27.27,0,0,0,.12.21,2,2,0,0,1,.74,1.7A3.92,3.92,0,0,1,188.88,112.15Z" style="fill:#9d9d9c"/><path d="M189.39,1.19a.64.64,0,0,0-.7.21,3.21,3.21,0,0,0-.74,2c0,.61.25.81.4.87a.45.45,0,0,0,.18,0,.71.71,0,0,0,.51-.25,3.08,3.08,0,0,0,.74-2C189.78,1.45,189.54,1.25,189.39,1.19Zm-.7,2.5h0a1.58,1.58,0,0,1-.15.11.65.65,0,0,1-.09-.41A2.69,2.69,0,0,1,189,1.76a.79.79,0,0,1,.15-.11s.09.12.09.41A2.64,2.64,0,0,1,188.69,3.69Z"/></svg>