<svg xmlns="http://www.w3.org/2000/svg" width="222.76" height="83.2" viewBox="0 0 222.76 83.2"><title>railshelf-36-65.5</title><path d="M221.85,26.67a.11.11,0,0,1,0-.08v-23h0c1.24-1.24.42-4.38-.89-3.07l-35.5,20.51v1.48H36.64V21.08H185.42L221.29.26H36.37a.33.33,0,0,0-.14,0h-.58L13.43,13.07H6.63c-4,0-5.23,4.13-5.59,6.45a1.45,1.45,0,0,0,.07.66l-.86.49H.93l-.68.4V49.9A1.85,1.85,0,0,0,3.4,51.21L34,32.51H185.44V48.37a2.48,2.48,0,0,0,4.23,1.76l31.27-18.69C222.89,29.49,222.82,27.36,221.85,26.67Zm-.74,2.87a1.28,1.28,0,0,1,0-.28,2,2,0,0,1,.38-1.19.91.91,0,0,1,0,.27A2.05,2.05,0,0,1,221.11,29.54Zm0-26.56h0a.81.81,0,0,1,0-.29,2.14,2.14,0,0,1,.39-1.24h0a.92.92,0,0,1,0,.3A2.07,2.07,0,0,1,221.11,3Z" style="fill:#fffffa"/><path d="M185.19,32.26H100.67c0-.3.09-.6.16-.9a.26.26,0,0,0-.2-.3.26.26,0,0,0-.29.19c-.07.34-.13.67-.18,1H13.58a1,1,0,0,1-.87-.47c-.35-.53-.77-1.7-.77-4.26s.44-3.67.8-4.23a1.05,1.05,0,0,1,.89-.5h91.22q-.22.18-.45.39a.25.25,0,0,0,0,.35.25.25,0,0,0,.36,0,6.4,6.4,0,0,1,.49-.42l.25-.19a.23.23,0,0,0,.09-.14h79.61Z" style="fill:#e6e6eb"/><rect x="36.39" y="21.08" width="0.5" height="1.48"/><path d="M220.92,3.49a.5.5,0,0,0,.16,0,.52.52,0,0,0,.38-.19h0A2.49,2.49,0,0,0,222,1.74c0-.42-.13-.71-.36-.8a.49.49,0,0,0-.54.15,2.6,2.6,0,0,0-.54,1.6C220.57,3.11,220.69,3.39,220.92,3.49Zm.54-2h0a.92.92,0,0,1,0,.3,2.07,2.07,0,0,1-.4,1.24h0a.81.81,0,0,1,0-.29A2.14,2.14,0,0,1,221.46,1.45Z" style="fill:#9d9d9c"/><path d="M221.65,27.56a.48.48,0,0,0-.54.15,2.48,2.48,0,0,0-.53,1.56c0,.41.12.69.35.78a.28.28,0,0,0,.15,0,.53.53,0,0,0,.38-.18,2.39,2.39,0,0,0,.53-1.55C222,27.93,221.87,27.65,221.65,27.56Zm-.54,2a1.25,1.25,0,0,1,0-.27,2,2,0,0,1,.38-1.19.82.82,0,0,1,0,.27A2,2,0,0,1,221.11,29.54Z" style="fill:#9d9d9c"/><path d="M196.88,25.29a1.93,1.93,0,0,0-.4,1.19c0,.44.18.62.4.4a1.92,1.92,0,0,0,.39-1.19C197.27,25.25,197.1,25.07,196.88,25.29Z" style="fill:#9d9d9c"/><path d="M196.88,22.65a1.93,1.93,0,0,0-.4,1.19c0,.44.18.62.4.4a2,2,0,0,0,.39-1.2C197.27,22.61,197.1,22.43,196.88,22.65Z" style="fill:#9d9d9c"/><path d="M222.75,28a2,2,0,0,0-.67-1.43V3.73a2.9,2.9,0,0,0,.07-3.46A.86.86,0,0,0,221.5,0a.74.74,0,0,0-.14,0,.15.15,0,0,0-.07,0H35.65a.19.19,0,0,0-.12,0L13.36,12.82H6.63C2.45,12.82,1.18,17,.8,19.49a1.56,1.56,0,0,0,0,.57l-.69.39a.26.26,0,0,0-.12.29.3.3,0,0,0,.09.13.26.26,0,0,0-.1.2V49.9a2.06,2.06,0,0,0,1.29,1.94,2.2,2.2,0,0,0,.83.17,2,2,0,0,0,1.41-.58L34.05,32.76h74.53c-.09.31-.18.61-.28.9a.26.26,0,0,0,.16.32h.08a.27.27,0,0,0,.24-.17c.1-.3.2-.63.3-1,0,0,0-.06,0-.09h76.12V48.37a2.7,2.7,0,0,0,1.68,2.52,2.78,2.78,0,0,0,1.08.22,2.58,2.58,0,0,0,1.85-.76l31.31-18.74A4.82,4.82,0,0,0,222.75,28ZM6.63,13.32H179c4.11,0,5.16,3.94,5.41,6.29a1.07,1.07,0,0,1-.27.85,1.13,1.13,0,0,1-.83.37H2.39a1.14,1.14,0,0,1-.85-.39,1.08,1.08,0,0,1-.25-.88C1.65,17.23,2.83,13.32,6.63,13.32ZM185.19,32.26H100.67c0-.3.09-.6.16-.9a.26.26,0,0,0-.2-.3.26.26,0,0,0-.29.19c-.07.34-.13.67-.18,1H13.58a1,1,0,0,1-.87-.47c-.35-.53-.77-1.7-.77-4.26s.44-3.67.8-4.23a1.05,1.05,0,0,1,.89-.5h91.22q-.22.18-.45.39a.25.25,0,0,0,0,.35.25.25,0,0,0,.36,0,6.4,6.4,0,0,1,.49-.42l.25-.19a.23.23,0,0,0,.09-.14h79.61Zm0-10H108.65s0,0,0,0a2.92,2.92,0,0,0-.37-.24.26.26,0,0,0-.34.11.26.26,0,0,0,0,.15h-.72a.25.25,0,0,0,.24-.25.24.24,0,0,0-.25-.25,3,3,0,0,0-1.07.23.24.24,0,0,0-.13.28H13.63a1.57,1.57,0,0,0-1.31.73,8.63,8.63,0,0,0-.88,4.5,8.86,8.86,0,0,0,.85,4.54,1.53,1.53,0,0,0,1.29.69H33.1L3.22,51A1.6,1.6,0,0,1,.5,49.9V21.21l.5-.29h.33a1.58,1.58,0,0,0,1.06.41h182.8Zm-.75-1.48,0,0a1.61,1.61,0,0,0,.4-1.24c-.28-2.51-1.41-6.73-5.91-6.73H14.37L35.72.51H220.36l-35,20.32Zm36.37,10.4L189.5,50a2.23,2.23,0,0,1-3.81-1.58V21.21L221.06.78a.1.1,0,0,0,.05,0,.74.74,0,0,1,.42-.24.34.34,0,0,1,.27.12,2.39,2.39,0,0,1-.15,2.83.24.24,0,0,0-.07.18v23a.33.33,0,0,0,.12.27,1.45,1.45,0,0,1,.55,1.13A4.32,4.32,0,0,1,220.81,31.22Z" style="fill:#9d9d9c"/><path d="M104.83,44.53a.25.25,0,1,0,.5,0v-1a.25.25,0,0,0-.5,0Z" style="fill:#666675"/><path d="M104.83,42.53a.25.25,0,1,0,.5,0v-1a.25.25,0,0,0-.5,0Z" style="fill:#666675"/><path d="M105.12,38.8a.24.24,0,0,0,.15-.06c.27-.21.53-.43.78-.65a.25.25,0,0,0,0-.36.25.25,0,0,0-.35,0l-.75.63a.24.24,0,0,0,0,.35A.23.23,0,0,0,105.12,38.8Z" style="fill:#666675"/><path d="M107.35,36.21a.25.25,0,0,0-.35.06,8.32,8.32,0,0,1-.6.76.25.25,0,0,0,0,.35.27.27,0,0,0,.16.06.27.27,0,0,0,.19-.08,7.73,7.73,0,0,0,.64-.8A.25.25,0,0,0,107.35,36.21Z" style="fill:#666675"/><path d="M106,22.28a.25.25,0,0,0,.31.18,9.39,9.39,0,0,1,.95-.19.25.25,0,0,0,.21-.28.26.26,0,0,0-.09-.16.25.25,0,0,0-.19,0,8.2,8.2,0,0,0-1,.2A.25.25,0,0,0,106,22.28Z" style="fill:#666675"/><path d="M104.83,46.53a.25.25,0,1,0,.5,0v-1a.25.25,0,0,0-.5,0Z" style="fill:#666675"/><path d="M108,34.57c-.13.3-.28.6-.43.88a.26.26,0,0,0,.1.34.27.27,0,0,0,.12,0,.25.25,0,0,0,.22-.13c.16-.29.31-.6.45-.92a.25.25,0,0,0-.13-.33A.26.26,0,0,0,108,34.57Z" style="fill:#666675"/><path d="M108.58,32.76c-.08.3-.18.6-.28.89a.26.26,0,0,0,.15.32.28.28,0,0,0,.13,0,.24.24,0,0,0,.19-.16,7.45,7.45,0,0,0,.3-1,.19.19,0,0,0,0-.08Z" style="fill:#666675"/><path d="M104.83,40.53a.25.25,0,1,0,.5,0v-1a.25.25,0,0,0-.5,0Z" style="fill:#666675"/><path d="M104.83,48.53a.25.25,0,1,0,.5,0v-1a.25.25,0,0,0-.5,0Z" style="fill:#666675"/><path d="M100.51,34.28c0-.32,0-.65,0-1a.26.26,0,0,0-.23-.27.25.25,0,0,0-.27.24c0,.34,0,.68,0,1a.25.25,0,1,0,.5,0Z" style="fill:#666675"/><path d="M101.17,29.13a.24.24,0,0,0-.31.17c-.11.32-.2.64-.29,1a.24.24,0,0,0,.18.3h.06a.25.25,0,0,0,.24-.18c.09-.32.18-.64.28-.95A.26.26,0,0,0,101.17,29.13Z" style="fill:#666675"/><path d="M105.54,22.59a.25.25,0,0,0-.35-.05c-.27.21-.53.42-.78.65a.24.24,0,0,0,0,.35l.05,0a.24.24,0,0,0,.3,0l.77-.62A.24.24,0,0,0,105.54,22.59Z" style="fill:#666675"/><path d="M100.63,31.06a.26.26,0,0,0-.3.2c-.06.33-.12.66-.17,1a.25.25,0,0,0,.21.28h.07a.25.25,0,0,0,.22-.21c0-.33.1-.65.16-1A.25.25,0,0,0,100.63,31.06Z" style="fill:#666675"/><path d="M103.7,23.94c-.21.25-.42.53-.62.81a.25.25,0,0,0,.06.35.23.23,0,0,0,.14,0,.22.22,0,0,0,.2-.1q.3-.41.6-.78a.24.24,0,0,0,0-.35A.25.25,0,0,0,103.7,23.94Z" style="fill:#666675"/><path d="M102.52,25.6c-.17.29-.34.58-.5.89a.26.26,0,0,0,.11.34.25.25,0,0,0,.12,0,.24.24,0,0,0,.22-.13c.15-.3.31-.58.48-.86a.25.25,0,0,0-.09-.34A.24.24,0,0,0,102.52,25.6Z" style="fill:#666675"/><path d="M101.58,27.4l-.39.94a.25.25,0,0,0,.15.32l.09,0a.25.25,0,0,0,.23-.16c.12-.31.25-.61.38-.91a.25.25,0,0,0-.13-.33A.25.25,0,0,0,101.58,27.4Z" style="fill:#666675"/><path d="M92.78,58.54l-.76.65a.24.24,0,0,0,0,.35.24.24,0,0,0,.35,0l.76-.64a.25.25,0,1,0-.32-.39Z" style="fill:#666675"/><path d="M97.53,54.85l-.81.59a.25.25,0,0,0,0,.35.23.23,0,0,0,.2.1.3.3,0,0,0,.15,0l.8-.59a.25.25,0,1,0-.29-.4Z" style="fill:#666675"/><path d="M95.92,56l-.8.61a.28.28,0,0,0,0,.36.27.27,0,0,0,.2.09.27.27,0,0,0,.15-.05l.79-.61a.25.25,0,0,0-.3-.4Z" style="fill:#666675"/><path d="M91.26,59.84l-.76.66a.26.26,0,0,0,0,.36.27.27,0,0,0,.19.08.23.23,0,0,0,.16-.06c.25-.23.5-.44.75-.66a.25.25,0,1,0-.32-.38Z" style="fill:#666675"/><path d="M94.34,57.28l-.78.62a.26.26,0,0,0,0,.36.25.25,0,0,0,.2.09.22.22,0,0,0,.15-.06l.78-.62a.26.26,0,0,0,0-.36A.25.25,0,0,0,94.34,57.28Z" style="fill:#666675"/><path d="M86.84,63.92l-.72.7a.25.25,0,0,0,0,.36.24.24,0,0,0,.18.07.26.26,0,0,0,.18-.07c.23-.24.47-.47.71-.7a.26.26,0,0,0,0-.36A.25.25,0,0,0,86.84,63.92Z" style="fill:#666675"/><path d="M76.2,75.85l-.62.79a.26.26,0,0,0,0,.35.3.3,0,0,0,.15.05.23.23,0,0,0,.2-.1l.61-.78a.26.26,0,0,0,0-.36A.25.25,0,0,0,76.2,75.85Z" style="fill:#666675"/><path d="M77.44,74.28l-.62.78a.24.24,0,0,0,0,.35.22.22,0,0,0,.15.06.23.23,0,0,0,.2-.1l.62-.77a.24.24,0,0,0,0-.35A.25.25,0,0,0,77.44,74.28Z" style="fill:#666675"/><path d="M75,77.43l-.6.8a.25.25,0,0,0,.2.4.28.28,0,0,0,.2-.1l.6-.8a.25.25,0,0,0-.4-.3Z" style="fill:#666675"/><path d="M78.71,72.74l-.63.77a.25.25,0,0,0,.19.41.23.23,0,0,0,.19-.1c.21-.25.42-.51.64-.76a.25.25,0,0,0,0-.35A.24.24,0,0,0,78.71,72.74Z" style="fill:#666675"/><path d="M71.45,82.29l-.36.52a.25.25,0,0,0,.06.35.27.27,0,0,0,.14,0,.25.25,0,0,0,.21-.1l.36-.53a.25.25,0,1,0-.41-.28Z" style="fill:#666675"/><path d="M73.78,79l-.59.81a.25.25,0,0,0,0,.35.3.3,0,0,0,.15,0,.24.24,0,0,0,.2-.11l.59-.8a.25.25,0,1,0-.4-.3Z" style="fill:#666675"/><path d="M72.61,80.65l-.58.82a.23.23,0,0,0,.06.34.19.19,0,0,0,.14,0,.23.23,0,0,0,.2-.11l.58-.81a.25.25,0,0,0-.06-.35A.24.24,0,0,0,72.61,80.65Z" style="fill:#666675"/><path d="M89.75,61.17l-.74.68a.25.25,0,0,0,0,.35.27.27,0,0,0,.18.08.24.24,0,0,0,.17-.06l.74-.68a.25.25,0,0,0,0-.35A.26.26,0,0,0,89.75,61.17Z" style="fill:#666675"/><path d="M84,66.77l-.69.72a.26.26,0,0,0,0,.36.28.28,0,0,0,.17.07.27.27,0,0,0,.19-.08c.22-.25.45-.49.68-.73a.25.25,0,0,0,0-.35A.24.24,0,0,0,84,66.77Z" style="fill:#666675"/><path d="M85.42,65.33l-.7.72a.25.25,0,0,0,.18.42.26.26,0,0,0,.18-.07l.69-.71a.25.25,0,0,0,0-.36A.25.25,0,0,0,85.42,65.33Z" style="fill:#666675"/><path d="M80,71.21c-.21.26-.43.51-.65.76a.25.25,0,0,0,.19.42.25.25,0,0,0,.2-.09c.21-.26.43-.51.64-.76a.25.25,0,0,0,0-.35A.26.26,0,0,0,80,71.21Z" style="fill:#666675"/><path d="M99.17,53.69l-.82.57a.25.25,0,0,0-.06.35.23.23,0,0,0,.2.11.24.24,0,0,0,.14,0l.82-.57a.25.25,0,1,0-.28-.41Z" style="fill:#666675"/><path d="M81.32,69.71l-.66.75a.25.25,0,0,0,0,.35.27.27,0,0,0,.17.06.24.24,0,0,0,.19-.08l.65-.75a.23.23,0,0,0,0-.35A.25.25,0,0,0,81.32,69.71Z" style="fill:#666675"/><path d="M82.66,68.23c-.23.24-.45.49-.67.74a.24.24,0,0,0,0,.35.27.27,0,0,0,.17.06.24.24,0,0,0,.19-.08c.22-.25.44-.49.67-.73a.26.26,0,0,0,0-.36A.25.25,0,0,0,82.66,68.23Z" style="fill:#666675"/><path d="M88.28,62.53l-.72.69a.25.25,0,0,0,0,.36.24.24,0,0,0,.18.07.23.23,0,0,0,.17-.07c.24-.23.48-.46.73-.68a.25.25,0,0,0-.35-.37Z" style="fill:#666675"/><path d="M129,43.17h-1a.25.25,0,0,0,0,.5h1a.25.25,0,0,0,0-.5Z" style="fill:#666675"/><path d="M121,43.93l-1,.2a.26.26,0,0,0-.19.3.25.25,0,0,0,.24.2h.06l1-.2a.25.25,0,1,0-.1-.49Z" style="fill:#666675"/><path d="M127,43.2c-.33,0-.67,0-1,.06a.25.25,0,0,0-.24.26.26.26,0,0,0,.25.24h0l1,0a.25.25,0,0,0,.24-.26A.24.24,0,0,0,127,43.2Z" style="fill:#666675"/><path d="M123,43.59l-1,.15a.26.26,0,0,0-.2.29.26.26,0,0,0,.25.21h0l1-.16a.25.25,0,0,0,.21-.28A.24.24,0,0,0,123,43.59Z" style="fill:#666675"/><path d="M125,43.34l-1,.11a.25.25,0,0,0-.21.28A.24.24,0,0,0,124,44h0c.34-.05.66-.08,1-.11a.26.26,0,0,0,.23-.28A.25.25,0,0,0,125,43.34Z" style="fill:#666675"/><path d="M131,43.25c-.34,0-.67,0-1-.06a.24.24,0,0,0-.26.24.25.25,0,0,0,.24.26l1,.06h0a.25.25,0,0,0,0-.5Z" style="fill:#666675"/><path d="M138.92,44.79l-1-.3a.24.24,0,0,0-.31.17.25.25,0,0,0,.17.31c.32.09.63.19,1,.3h.08a.25.25,0,0,0,.07-.49Z" style="fill:#666675"/><path d="M137,44.22c-.32-.09-.65-.17-1-.24a.25.25,0,0,0-.3.19.25.25,0,0,0,.19.29l1,.24h.06a.24.24,0,0,0,.24-.19A.24.24,0,0,0,137,44.22Z" style="fill:#666675"/><path d="M133,43.45c-.33-.05-.66-.09-1-.12a.25.25,0,0,0,0,.5l1,.11h0a.26.26,0,0,0,.25-.21A.25.25,0,0,0,133,43.45Z" style="fill:#666675"/><path d="M135,43.77l-1-.18a.25.25,0,0,0-.29.21.26.26,0,0,0,.21.29l1,.17h0a.27.27,0,0,0,.25-.21A.25.25,0,0,0,135,43.77Z" style="fill:#666675"/><path d="M104.26,50.48l-.87.5a.25.25,0,0,0-.09.34.26.26,0,0,0,.22.13.22.22,0,0,0,.13,0l.86-.5a.25.25,0,1,0-.25-.43Z" style="fill:#666675"/><path d="M106,49.5l-.75.41a.26.26,0,0,0,.07-.16v-.22a.25.25,0,0,0-.5,0v.22a.25.25,0,0,0,.25.25s0,0,.08,0l0,0a.25.25,0,0,0,.12.47.27.27,0,0,0,.12,0l.88-.48a.26.26,0,0,0,.1-.34A.25.25,0,0,0,106,49.5Z" style="fill:#666675"/><path d="M107.79,48.57l-.89.46a.26.26,0,0,0-.11.34.25.25,0,0,0,.22.13.27.27,0,0,0,.12,0L108,49a.25.25,0,0,0,.11-.33A.26.26,0,0,0,107.79,48.57Z" style="fill:#666675"/><path d="M102.53,51.5l-.85.53a.26.26,0,0,0-.08.35.26.26,0,0,0,.21.11.23.23,0,0,0,.14,0l.84-.52a.26.26,0,0,0,.09-.35A.27.27,0,0,0,102.53,51.5Z" style="fill:#666675"/><path d="M100.84,52.57l-.84.56a.25.25,0,0,0,.14.45.23.23,0,0,0,.14,0l.83-.55a.24.24,0,0,0,.07-.34A.25.25,0,0,0,100.84,52.57Z" style="fill:#666675"/><path d="M109.6,47.71l-.91.42a.26.26,0,0,0-.11.34.24.24,0,0,0,.22.14.2.2,0,0,0,.11,0l.9-.42a.24.24,0,0,0,.12-.33A.24.24,0,0,0,109.6,47.71Z" style="fill:#666675"/><path d="M113.31,46.15l-.94.37a.24.24,0,0,0-.14.32.26.26,0,0,0,.23.16l.1,0,.93-.36a.25.25,0,0,0-.18-.47Z" style="fill:#666675"/><path d="M115.2,45.48l-1,.33a.25.25,0,0,0,.08.48h.09l.94-.33a.25.25,0,0,0,.16-.31A.26.26,0,0,0,115.2,45.48Z" style="fill:#666675"/><path d="M117.12,44.88l-1,.29a.25.25,0,0,0,.07.49h.08l1-.29a.25.25,0,1,0-.14-.48Z" style="fill:#666675"/><path d="M111.44,46.9l-.92.39a.25.25,0,0,0-.13.33.24.24,0,0,0,.23.15.18.18,0,0,0,.1,0l.91-.39a.25.25,0,0,0,.14-.33A.25.25,0,0,0,111.44,46.9Z" style="fill:#666675"/><path d="M119.06,44.36l-1,.25a.26.26,0,0,0-.18.31.25.25,0,0,0,.24.18h.07l1-.24a.24.24,0,0,0,.18-.3A.25.25,0,0,0,119.06,44.36Z" style="fill:#666675"/></svg>