<svg xmlns="http://www.w3.org/2000/svg" width="373.21" height="297.65" viewBox="0 0 373.21 297.65"><title>table-120-90</title><path d="M151.12,286.31c-6.73,0-12.19,2.32-12.19,5.18a2.09,2.09,0,0,0,0,.36,2.2,2.2,0,0,0,0,.36c0,2.87,5.46,5.19,12.19,5.19s12.19-2.32,12.19-5.19a2.23,2.23,0,0,0-.05-.36,2.08,2.08,0,0,0,.05-.36C163.31,288.63,157.85,286.31,151.12,286.31Z" style="fill:#e6e6eb"/><path d="M157.25,286.74v.53c3.47.86,5.81,2.43,5.81,4.22,0,2.73-5.36,4.94-11.94,4.94s-11.94-2.21-11.94-4.94c0-1.78,2.3-3.34,5.73-4.2v-.52c-3.75.92-6.23,2.67-6.23,4.72a2.09,2.09,0,0,0,0,.36,2.2,2.2,0,0,0,0,.36c0,3.05,5.46,5.44,12.44,5.44s12.44-2.39,12.44-5.44a1.77,1.77,0,0,0-.05-.32,2.57,2.57,0,0,0,.05-.4C163.56,289.43,161,287.67,157.25,286.74Zm-6.13,10.41c-5.21,0-9.63-1.39-11.26-3.32,2,1.85,6.21,3.1,11.26,3.1s9.3-1.26,11.26-3.1C160.76,295.76,156.33,297.15,151.12,297.15Z" style="fill:#666675"/><path d="M158.22,290.75c0,1.56-3.25,2.88-7.09,2.88s-7.1-1.32-7.1-2.88a1.78,1.78,0,0,1,.88-1.36v-.6a2.46,2.46,0,0,0-1.38,2c0,1.89,3.34,3.38,7.6,3.38s7.59-1.49,7.59-3.38a2.54,2.54,0,0,0-1.47-2v.59A1.86,1.86,0,0,1,158.22,290.75Z" style="fill:#666675"/><path d="M151.13,292.23c2.3,0,4.17-.7,4.7-1.66a7.52,7.52,0,0,1-1.4.53,9,9,0,0,1-6.5,0,7.34,7.34,0,0,1-1.47-.51C147.05,291.56,148.88,292.23,151.13,292.23Z" style="fill:#666675"/><path d="M157.25,92.83V289.4s-1.11,2.09-6.17,2.09-6.17-2.09-6.17-2.09V92.83Z" style="fill:#e6e6eb"/><path d="M144.66,92.83V289.4a.2.2,0,0,0,0,.11c.05.09,1.24,2.23,6.39,2.23s6.34-2.14,6.39-2.23a.2.2,0,0,0,0-.11V92.83ZM157,289.32c-.2.3-1.53,1.92-5.92,1.92s-5.72-1.62-5.92-1.92V92.83H157Z" style="fill:#666675"/><path d="M117,.27h0s-2-.33-2.18,2.12c-.1,1.32-.79,17.93-2.17,19.32-.78.78-21.44,12.42-21.44,12.42v5.54l1-.59v.59L117.81,24s.11-19.8.11-22.55C117.92.65,117.47.24,117,.27Zm-.25,3.31c-.36.35-.64.06-.64-.64A3.09,3.09,0,0,1,116.7,1c.35-.35.64-.07.64.64A3.18,3.18,0,0,1,116.7,3.58Z" style="fill:#fff"/><polygon points="153.59 92.53 254.29 92.53 372.21 24.51 372.21 18.97 118.19 18.97 0.34 86.99 0.34 92.53 141.25 92.53 153.59 92.53" style="fill:#d8c28e"/><path d="M117.16.64a.56.56,0,0,0-.64.19,3.38,3.38,0,0,0-.71,2.11c0,.53.15.89.42,1a.84.84,0,0,0,.18,0,.65.65,0,0,0,.46-.22h0a3.4,3.4,0,0,0,.72-2.11C117.59,1.12,117.44.76,117.16.64Zm-.64,2.76a.44.44,0,0,1-.1.08s-.11-.17-.11-.54a2.94,2.94,0,0,1,.56-1.75.44.44,0,0,1,.1-.08s.12.17.12.54A2.9,2.9,0,0,1,116.52,3.4Z" style="fill:#666675"/><path d="M117.07,0H117a2.18,2.18,0,0,0-1.59.41,2.56,2.56,0,0,0-.88,1.93c0,.17,0,.6-.06,1.22-.75,13.89-1.52,17.42-2,17.94S99.33,29.23,91,33.9a.25.25,0,0,0-.12.22v.75l.5-.29v-.31l.52-.3a.25.25,0,0,0-.06.15v.16l21.94-12.66c.89-2.07,1.43-9.73,1.85-17.14.06-1.07.1-1.85.13-2.09.13-1.27.7-1.89,1.24-1.88.38,0,.63.39.63.91,0,1.94-.06,12.57-.09,18.52h.5c0-6,.09-16.57.09-18.52A1.26,1.26,0,0,0,117.07,0ZM115.3,2.34c0,.25-.07,1-.13,2.12-.25,4.42-.9,16.19-2,17.25-.42.43-7.81,4.66-14.93,8.68,6.11-3.48,14-8,14.5-8.51.87-.87,1.57-6.68,2.18-18.27,0-.62.06-1,.07-1.21A2.14,2.14,0,0,1,115.7.83l.12-.07A3.34,3.34,0,0,0,115.3,2.34Z" style="fill:#666675"/><path d="M153.75,92.83H254.2a.27.27,0,0,0,.12,0L347.65,39l-.07-.25v-.28L254.45,92.15v-5L368.18,21.58a5,5,0,0,0,.32-.76l-.77.45h0L254.13,86.79H1.18l117-67.52H368.94c0-.16.08-.32.12-.5h-251a.17.17,0,0,0-.12,0L.12,86.82s0,0,0,0l0,.05A.21.21,0,0,0,0,87s0,0,0,0v5.54a.25.25,0,0,0,.25.25h153.5ZM254,87.29v5H.5v-5Z" style="fill:#9d9d9c"/><path d="M372.24.27h0s-2-.33-2.18,2.12c-.1,1.32-2.32,18.85-3.71,20.24-.78.78-19.9,11.5-19.9,11.5v5.54l1-.59v.59l25.67-15.44s.12-20,.12-22.8C373.21.65,372.75.24,372.24.27ZM372,3.58c-.35.35-.64.06-.64-.64A3.16,3.16,0,0,1,372,1c.36-.35.64-.07.64.64A3.12,3.12,0,0,1,372,3.58Z" style="fill:#e6e6eb"/><path d="M372.11,0H372a2.2,2.2,0,0,0-1.6.41,2.59,2.59,0,0,0-.87,1.93c-.15,1.94-2.4,18.84-3.63,20.08-.56.55-12.18,7.16-19.85,11.46,0,0,0,0,0,0s0,0,0,0a.21.21,0,0,0-.07.15v5.54a.26.26,0,0,0,.07.16s0,0,0,0l0,0,.12,0h1a.22.22,0,0,0,.13,0L373,24.44a.25.25,0,0,0,.12-.22c0-.2.12-20.08.12-22.8A1.26,1.26,0,0,0,372.11,0ZM346.92,38.93l-.47.29V34.37h.47ZM370.06,2.4a2.07,2.07,0,0,1,.68-1.57l.12-.07a3.41,3.41,0,0,0-.53,1.58c-.22,2.13-2.54,19-3.81,20.26l-.22.17C367.8,21.13,370,3.25,370.06,2.4Zm2.53,21.68L347.42,39.22V34.27c2.44-1.38,18.69-10.55,19.46-11.32,1.52-1.52,3.93-20.37,3.95-20.56.14-1.27.71-1.89,1.25-1.88.38,0,.63.39.63.91C372.71,4,372.6,22.29,372.59,24.08Z" style="fill:#666675"/><path d="M372.2.64a.56.56,0,0,0-.64.19,3.32,3.32,0,0,0-.72,2.11c0,.53.15.89.43,1a.66.66,0,0,0,.18,0,.68.68,0,0,0,.46-.22h0a3.4,3.4,0,0,0,.71-2.11C372.62,1.12,372.47.76,372.2.64Zm-.64,2.76a.44.44,0,0,1-.1.08s-.12-.17-.12-.54a2.87,2.87,0,0,1,.57-1.75.44.44,0,0,1,.1-.08s.11.17.11.54A3,3,0,0,1,371.56,3.4Z" style="fill:#666675"/><path d="M355.32,31.14a2.25,2.25,0,0,0-.46,1.38c0,.51.21.71.46.46a2.19,2.19,0,0,0,.46-1.38C355.78,31.09,355.58,30.88,355.32,31.14Z" style="fill:#666675"/><path d="M350.18,34.23a2.25,2.25,0,0,0-.46,1.38c0,.51.21.72.46.47a2.24,2.24,0,0,0,.46-1.39C350.64,34.18,350.44,34,350.18,34.23Z" style="fill:#666675"/><path d="M365.6,25a2.25,2.25,0,0,0-.46,1.38c0,.51.21.71.46.46a2.3,2.3,0,0,0,.46-1.38C366.06,24.9,365.85,24.69,365.6,25Z" style="fill:#666675"/><path d="M360.46,28a2.26,2.26,0,0,0-.46,1.39c0,.5.21.71.46.45a2.25,2.25,0,0,0,.46-1.38C360.92,28,360.71,27.79,360.46,28Z" style="fill:#666675"/><path d="M370.74,21.85a2.24,2.24,0,0,0-.46,1.39c0,.5.2.71.46.45a2.25,2.25,0,0,0,.46-1.38C371.2,21.81,371,21.6,370.74,21.85Z" style="fill:#666675"/></svg>